<svg width="32" height="32" viewBox="0 0 8.467 8.467" xmlns="http://www.w3.org/2000/svg"><defs><linearGradient id="a" x1=".216" x2="7.922" y1="2.61" y2="2.61" gradientUnits="userSpaceOnUse"><stop stop-color="#179eb1" offset="0"/><stop stop-color="#105da8" offset="1"/></linearGradient></defs><path d="M2.72 5.16l.002.472s.274-.115.521-.162c.24-.045.302-.202.302-.353 0-.152-.035-.31-.329-.31S2.72 5 2.72 5.16zm2.441.426v.003c-.631 0-1.348.354-1.348 1.444s.58 1.439 1.313 1.439c.732 0 1.1-.252 1.1-.252v-.606s-.638.24-1.015.245c-.348.005-.524-.076-.53-.304-.006-.227.404-.207.733-.302.358-.102.825-.197.825-.813s-.444-.853-1.078-.853zM.23 5.79v.6s.631-.18.899-.18c.27 0 .467.09.467.242 0 .151-.278.203-.901.386-.379.112-.677.285-.677.828s.298.782.808.782c.639 0 .84-.366.84-.366s-.015.321.05.321h.617V6.391c0-.512-.252-.79-1.092-.791s-1.012.19-1.012.19zm3.247.035s-.232.158-.404.172c-.22.019-.353.106-.353.166v2.244h.757zm1.68.396c.327.001.299.165.299.289 0 .121-.055.21-.403.285-.346.074-.47.157-.47.157 0-.556.247-.733.574-.731zm-3.575.842l.001.437c0 .144-.176.391-.462.391-.285 0-.36-.134-.36-.328 0-.202.257-.32.42-.346.29-.045.401-.154.401-.154z" fill="white"/><path d="M3.284.453C2.102.949.51 2.181.216 4.6l.638-.082c.278-1.339 1.51-1.975 2.382-1.995 1.005-.023 2.022.511 2.446 1.373l.204-.104c-.468-.95-1.434-1.549-2.664-1.493-.469.021-.943.16-1.366.429a3.279 3.279 0 012.21-.637c.737.058 1.445.356 1.964.875.52.52.851 1.265.833 2.246h.23c.016-1.036-.342-1.847-.902-2.409-.56-.563-1.32-.873-2.104-.934a3.666 3.666 0 00-2.054.441 3.813 3.813 0 011.968-.678c1.534-.091 3.122.731 3.703 2.62l.218-.066c-.61-1.981-2.309-2.883-3.94-2.783-.608.037-1.2.207-1.731.505a3.94 3.94 0 011.709-.691c1.433-.22 2.949.34 3.775 1.286l.168-.15C7.24 1.59 6.187 1.074 5.063.962A4.496 4.496 0 003.93.995c-.47.073-.923.224-1.34.451.589-.414 1.215-.597 1.774-.679 1.53-.224 2.61.349 2.61.349l.104-.214S6.413.58 5.445.501a5.633 5.633 0 00-1.134.022 4.143 4.143 0 00-1.2.332c.106-.063.21-.12.32-.175C4.374.21 5.677.245 5.677.245l.017-.228s-.156-.016-.632.005c-.475.02-1.148.17-1.778.431z" fill="url(#a)"/></svg>
