<?xml version="1.0" encoding="UTF-8" standalone="no"?>
<!-- Created with Inkscape (http://www.inkscape.org/) -->

<svg
   xmlns:dc="http://purl.org/dc/elements/1.1/"
   xmlns:cc="http://creativecommons.org/ns#"
   xmlns:rdf="http://www.w3.org/1999/02/22-rdf-syntax-ns#"
   xmlns:svg="http://www.w3.org/2000/svg"
   xmlns="http://www.w3.org/2000/svg"
   xmlns:sodipodi="http://sodipodi.sourceforge.net/DTD/sodipodi-0.dtd"
   xmlns:inkscape="http://www.inkscape.org/namespaces/inkscape"
   width="32"
   height="32"
   viewBox="0 0 8.4666666 8.4666667"
   version="1.1"
   id="svg3832"
   inkscape:version="0.92.4 5da689c313, 2019-01-14"
   sodipodi:docname="aie-logo.svg">
  <defs
     id="defs3826" />
  <sodipodi:namedview
     id="base"
     pagecolor="#ffffff"
     bordercolor="#666666"
     borderopacity="1.0"
     inkscape:pageopacity="0.0"
     inkscape:pageshadow="2"
     inkscape:zoom="63.356768"
     inkscape:cx="21.162778"
     inkscape:cy="0.058381197"
     inkscape:document-units="mm"
     inkscape:current-layer="layer1"
     showgrid="false"
     inkscape:window-width="1245"
     inkscape:window-height="819"
     inkscape:window-x="375"
     inkscape:window-y="84"
     inkscape:window-maximized="0" />
  <metadata
     id="metadata3829">
    <rdf:RDF>
      <cc:Work
         rdf:about="">
        <dc:format>image/svg+xml</dc:format>
        <dc:type
           rdf:resource="http://purl.org/dc/dcmitype/StillImage" />
        <dc:title></dc:title>
      </cc:Work>
    </rdf:RDF>
  </metadata>
  <g
     inkscape:label="Layer 1"
     inkscape:groupmode="layer"
     id="layer1"
     transform="translate(0,-288.53333)">
    <path
       style="color:#000000;display:inline;opacity:1;vector-effect:none;fill:#5d5d5d;fill-opacity:1;stroke:none;stroke-width:0.21127582px;stroke-linecap:butt;stroke-linejoin:miter;stroke-miterlimit:4;stroke-dasharray:none;stroke-dashoffset:0;stroke-opacity:1;marker:none"
       d="m 3.2170935,293.33961 c -0.2953387,0 -0.4969694,0.19447 -0.4969694,0.3535 v 0.47182 h 0.00249 c 0,0 0.2727652,-0.11882 0.5201418,-0.16172 0.2398007,-0.0506 0.3027184,-0.20154 0.3027184,-0.35299 0,-0.15148 -0.035553,-0.31061 -0.3283528,-0.31061 z m 1.9439967,0.77996 v 0.003 c -0.6310727,0 -1.3479321,0.35358 -1.3479321,1.44406 0,1.0905 0.5803906,1.43865 1.3124358,1.43865 0.7320453,0 1.1004342,-0.25243 1.1004342,-0.25243 v -0.6059 c 0,0 -0.6385241,0.23997 -1.0146475,0.24503 -0.3483538,0.005 -0.5249491,-0.0761 -0.5300023,-0.30322 -0.00746,-0.22718 0.4039881,-0.20679 0.7321417,-0.30271 0.3584491,-0.1009 0.8253284,-0.19709 0.8253284,-0.813 0,-0.61592 -0.444158,-0.85294 -1.0777582,-0.85294 z m -3.9264466,0.0124 c -0.83301929,0 -1.00429554,0.19179 -1.00429554,0.19179 v 0.60051 c 0,0 0.63071811,-0.18143 0.89829474,-0.18143 0.2700962,0 0.467388,0.0907 0.467388,0.24207 0,0.15147 -0.2777485,0.20225 -0.90125307,0.38653 -0.37864301,0.11105 -0.67642497,0.28505 -0.67642497,0.82777 0,0.54272 0.29766531,0.78244 0.80757009,0.78244 0.63864705,0 0.84060605,-0.36583 0.84060605,-0.36583 0,0 -0.015398,0.32048 0.050283,0.32048 h 0.616285 v -2.01205 c 0,-0.51242 -0.2524483,-0.78982 -1.0930341,-0.78981 z m 2.2427681,0.2253 c 0,0 -0.2326263,0.15896 -0.4042774,0.17158 -0.2196131,0.0203 -0.3530102,0.10606 -0.3530102,0.16665 v 2.24423 H 3.4774117 Z M 5.14827,294.7512 v 0.003 c 0.3357342,0 0.3081464,0.16426 0.3081464,0.28794 0,0.12115 -0.055415,0.21177 -0.4037889,0.28496 -0.3458279,0.0757 -0.4698499,0.15678 -0.4698499,0.15678 0,-0.55533 0.2474326,-0.73212 0.5654924,-0.73212 z m -3.5675277,0.84209 0.00249,0.003 v 0.43682 c 0,0.14386 -0.1767183,0.39147 -0.4619615,0.39147 -0.28524481,0 -0.36089875,-0.13391 -0.36089875,-0.32835 0,-0.20196 0.25745645,-0.32037 0.42153935,-0.34562 0.290298,-0.0453 0.3988636,-0.15677 0.3988636,-0.15677 z"
       id="path13"
       inkscape:connector-curvature="0" />
    <path
       inkscape:connector-curvature="0"
       style="color:#000000;text-indent:0;text-align:start;text-transform:none;display:inline;opacity:1;vector-effect:none;fill:#5d5d5d;fill-opacity:1;stroke:none;stroke-width:0.22684847px;stroke-linecap:butt;stroke-linejoin:miter;stroke-miterlimit:4;stroke-dasharray:none;stroke-dashoffset:0;stroke-opacity:1;marker:none"
       d="m 5.2688983,288.5464 c -0.4426992,0.0177 -1.1887296,0.1053 -1.9853115,0.43996 -1.1818941,0.496 -2.77369723,1.72844 -3.06746187,4.14688 l 0.63808709,-0.0819 c 0.27736878,-1.33901 1.50981758,-1.97438 2.38155268,-1.99487 1.0056331,-0.0218 2.022203,0.51102 2.4457752,1.37319 l 0.2049483,-0.1039 c -0.4686553,-0.94961 -1.4346705,-1.54806 -2.6643852,-1.49342 -0.4686615,0.022 -0.9427869,0.15986 -1.3663591,0.42903 0.6558515,-0.49735 1.478396,-0.6941 2.2094008,-0.63672 0.7378246,0.0587 1.4455995,0.35526 1.9648143,0.87448 0.5192147,0.51919 0.8512394,1.26524 0.8334749,2.24627 h 0.2295469 c 0.016392,-1.03569 -0.3415913,-1.84731 -0.9017927,-2.40888 -0.5602029,-0.56293 -1.3198996,-0.87445 -2.1041839,-0.93459 -0.1967581,-0.014 -0.396241,-0.014 -0.591629,0 -0.5137494,0.0451 -1.0138372,0.19129 -1.4620017,0.44133 0.571138,-0.40989 1.2570472,-0.63398 1.9675485,-0.6777 1.5344144,-0.097 3.1221225,0.731 3.7028209,2.61929 l 0.2186161,-0.0656 c -0.6107606,-1.98123 -2.3091367,-2.88574 -3.9405655,-2.78327 -0.6066593,0.0382 -1.2023897,0.20496 -1.7311725,0.50556 0.520585,-0.38259 1.1081174,-0.59574 1.7093129,-0.69139 1.431938,-0.22406 2.9485879,0.34024 3.7752353,1.28573 l 0.1680567,-0.15023 c -0.6640418,-0.76244 -1.7161407,-1.27754 -2.839282,-1.38959 -0.3743815,-0.0368 -0.7569595,-0.0274 -1.1340737,0.0326 -0.4618261,0.0725 -0.9154542,0.21863 -1.3390266,0.4509 0.5875324,-0.41401 1.2133204,-0.5971 1.7721592,-0.67907 1.5303193,-0.22274 2.6097353,0.34841 2.6097353,0.34841 l 0.1038468,-0.21315 c 0,0 -0.664048,-0.31972 -1.6314272,-0.4017 -0.3224566,-0.0274 -0.770621,-0.0233 -1.1340721,0.0218 -0.3935085,0.0505 -0.8020472,0.15304 -1.1996585,0.33203 0.1052153,-0.0629 0.2090512,-0.12022 0.3197255,-0.17488 0.942787,-0.47003 2.2462844,-0.43452 2.2462844,-0.43452 l 0.016392,-0.22817 c 0,0 -0.1557637,-0.0163 -0.4235706,-0.005 z"
       id="path9" />
  </g>
</svg>
