<svg xmlns="http://www.w3.org/2000/svg" viewBox="0 0 235 40" height="40" width="235"><defs><linearGradient id="a" y2="17.15" gradientUnits="userSpaceOnUse" x2="50.13" gradientTransform="matrix(1.27095 0 0 1.27095 0 -13.85)" y1="17.15" x1="5.75"><stop stop-color="#179fb1" offset="0"/><stop stop-color="#0f5da9" offset="1"/></linearGradient></defs><path style="text-indent:0;text-align:start;text-transform:none;block-progression:tb" d="M44.28-11.07c-3.24.13-8.7.77-14.53 3.22C21.1-4.22 9.45 4.8 7.3 22.5l4.67-.6C14 12.1 23.02 7.45 29.4 7.3c7.36-.16 14.8 3.74 17.9 10.05l1.5-.76C45.37 9.64 38.3 5.26 29.3 5.66c-3.43.16-6.9 1.17-10 3.14 4.8-3.64 10.82-5.08 16.17-4.66 5.4.43 10.58 2.6 14.38 6.4 3.8 3.8 6.23 9.26 6.1 16.44h1.68c.12-7.58-2.5-13.52-6.6-17.63-4.1-4.12-9.66-6.4-15.4-6.84-1.44-.1-2.9-.1-4.33 0-3.76.33-7.42 1.4-10.7 3.23 4.18-3 9.2-4.64 14.4-4.96C46.23.07 57.85 6.13 62.1 19.95l1.6-.48C59.23 4.97 46.8-1.65 34.86-.9c-4.44.28-8.8 1.5-12.67 3.7C26 0 30.3-1.56 34.7-2.26 45.18-3.9 56.28.23 62.33 7.15l1.23-1.1C58.7.47 51-3.3 42.78-4.12c-2.74-.27-5.54-.2-8.3.24-3.38.53-6.7 1.6-9.8 3.3 4.3-3.03 8.88-4.37 12.97-4.97C48.85-7.18 56.75-3 56.75-3l.76-1.56S52.65-6.9 45.57-7.5c-2.36-.2-5.64-.17-8.3.16-2.88.37-5.87 1.12-8.78 2.43.77-.46 1.53-.88 2.34-1.28 6.9-3.44 16.44-3.18 16.44-3.18l.12-1.67s-1.14-.12-3.1-.04z" color="#000" fill="url(#a)" transform="matrix(.60232 0 0 .60232 .446 9.124)"/><path d="M8.9 25.45c-3.3 0-3.98.76-3.98.76v2.38s2.5-.72 3.56-.72c1.07 0 1.85.36 1.85.96s-1.1.8-3.57 1.53c-1.5.44-2.68 1.13-2.68 3.28s1.18 3.1 3.2 3.1c2.53 0 3.33-1.45 3.33-1.45s-.06 1.27.2 1.27h2.44v-7.97c0-2.03-1-3.13-4.33-3.13zm1.38 5.8v1.73c0 .57-.7 1.55-1.83 1.55-1.13 0-1.43-.53-1.43-1.3 0-.8 1.02-1.27 1.67-1.37 1.15-.18 1.58-.62 1.58-.62z" fill="#fff"/><path d="M14.8 36.56h3V26.33s-.92.63-1.6.68c-.87.08-1.4.42-1.4.66v8.9zM14.8 25.57V23.7c0-.63.8-1.4 1.97-1.4 1.16 0 1.3.63 1.3 1.23s-.25 1.2-1.2 1.4c-.98.17-2.06.64-2.06.64zM24.47 25.4c-2.5 0-5.34 1.4-5.34 5.72s2.3 5.7 5.2 5.7c2.9 0 4.36-1 4.36-1v-2.4s-2.53.95-4.02.97c-1.38.02-2.08-.3-2.1-1.2-.03-.9 1.6-.82 2.9-1.2 1.42-.4 3.27-.78 3.27-3.22 0-2.44-1.76-3.38-4.27-3.38zm-.05 2.5c1.33 0 1.22.65 1.22 1.14 0 .48-.22.84-1.6 1.13-1.37.3-1.86.62-1.86.62 0-2.2.98-2.9 2.24-2.9z" color="#000" fill="#fff"/><g><g style="line-height:100%;-inkscape-font-specification:Nunito" font-size="17.5" font-family="Nunito" letter-spacing="0" word-spacing="0" fill="#fff"><path d="M56.23 11.48c.03-.58-.26-1.23-.85-1.4-.77-.23-1.6-.12-2.35.08-.44.1-.82.38-1.27.44-.45.03-.77-.56-.47-.9.52-.8 1.53-1.03 2.42-1.14 1.14-.1 2.4-.08 3.35.63.8.6 1.1 1.65 1.04 2.62 0 1.5.02 3.02 0 4.53 0 .6-.7.98-1.25.77-.43-.1-.6-.57-.56-.97v-.44c-.5.86-1.4 1.43-2.35 1.54-1.08.14-2.34-.15-2.98-1.1-.7-1-.5-2.58.53-3.3 1-.75 2.32-.86 3.53-.9h1.2v-.46zm0 1.6c-1.04.03-2.14-.08-3.1.42-.45.24-.75.74-.7 1.27.04.64.6 1.17 1.22 1.24.9.2 1.9-.23 2.3-1.07.32-.57.27-1.23.28-1.86zM59.96 12.9c0-1.58.83-3.2 2.26-3.9 1.16-.6 2.57-.6 3.8-.18.43.18 1 .5.95 1.04 0 .43-.48.75-.88.57-.87-.34-1.9-.58-2.76-.1-.96.48-1.35 1.64-1.32 2.66.04.93.4 1.94 1.25 2.43.8.47 1.8.3 2.65 0 .33-.2.82-.3 1.06.07.27.35.1.85-.26 1.06-.74.53-1.68.7-2.57.72-1.35.03-2.72-.63-3.45-1.8-.5-.76-.74-1.68-.74-2.6zM74 11.48c.03-.58-.25-1.23-.85-1.4-.76-.23-1.6-.12-2.34.08-.43.1-.82.38-1.26.44-.45.03-.78-.56-.47-.9.53-.8 1.53-1.03 2.42-1.14 1.13-.1 2.4-.08 3.35.63.8.6 1.08 1.65 1.04 2.62-.02 1.5 0 3.02-.02 4.53-.02.6-.7.98-1.26.77-.42-.1-.6-.57-.56-.97v-.44c-.48.86-1.37 1.43-2.33 1.54-1.08.14-2.34-.15-3-1.1-.7-1-.48-2.58.54-3.3 1.02-.75 2.32-.86 3.53-.9H74v-.46zm0 1.6c-1.04.03-2.14-.08-3.08.42-.46.24-.77.74-.7 1.27.02.64.58 1.17 1.2 1.24.9.2 1.9-.23 2.3-1.07.32-.57.28-1.23.28-1.86zM86.3 16.22c.03.7-.75 1.13-1.36.9-.6-.15-.7-.82-.68-1.35-.03-.2-.36.48-.53.53-1.18 1.2-3.34 1.37-4.6.18-1.08-1.02-1.44-2.6-1.36-4.05.1-1.37.66-2.85 1.93-3.53 1.44-.77 3.4-.34 4.4.95.25.46.17-.02.18-.25V5.72c.07-.87 1.33-1.1 1.82-.46.3.42.15.94.2 1.42v9.54zM82 9.85c-.83-.05-1.6.5-1.88 1.28-.4 1.07-.37 2.27-.07 3.36.22.77.9 1.5 1.77 1.48.76.05 1.6-.27 1.97-.97.5-.9.5-1.97.4-2.97-.1-.9-.58-1.83-1.5-2.1-.22-.05-.46-.08-.7-.08zM96.52 12.62c.02.36-.33.64-.68.58H90.1c.03.93.46 1.92 1.34 2.34 1.03.5 2.24.25 3.25-.2.36-.12.85-.56 1.2-.16.3.33.1.8-.2 1.05-.9.8-2.16 1.04-3.33 1.05-1.44 0-2.92-.72-3.64-2-.76-1.28-.88-2.95-.2-4.3.65-1.45 2.18-2.5 3.8-2.46 1.24-.05 2.55.42 3.33 1.44.57.75.83 1.72.86 2.66zm-1.77-.44c-.08-.86-.48-1.8-1.33-2.14-.88-.36-2.04-.23-2.66.56-.36.45-.58 1-.65 1.58h4.65zM110.13 11.77c.04-.8-.43-1.7-1.27-1.87-1-.23-2.13.33-2.43 1.33-.23.77-.1 1.58-.14 2.36-.02.94.02 1.9-.03 2.83-.16.88-1.56 1-1.9.2-.15-.5-.05-1.02-.08-1.52-.02-1.18 0-2.38-.02-3.57-.03-.8-.6-1.58-1.42-1.66-1-.15-2.03.48-2.3 1.45-.17.73-.07 1.5-.1 2.24v2.77c-.07.9-1.44 1.15-1.87.4-.24-.45-.1-.97-.15-1.45V9.45c.07-.93 1.5-1.12 1.9-.33.16.33.1.7.1 1.07.74-1.45 2.6-2.05 4.08-1.46.76.3 1.34.96 1.57 1.74.56-1.15 1.76-2 3.06-1.96 1.1-.03 2.25.6 2.67 1.64.44 1 .27 2.1.3 3.14v3.03c-.07.9-1.44 1.15-1.87.4-.22-.45-.1-.97-.13-1.45v-3.5zM116.7 17.08l-3.18-7.32c-.27-.74.68-1.38 1.33-1.06.48.22.54.8.75 1.23l2.04 5.2 2.4-6.06c.3-.65 1.33-.54 1.6.07.25.5-.12 1-.28 1.46-1.3 3.2-2.57 6.4-3.87 9.58-.33.67-1.4.6-1.7-.05-.25-.5.12-.98.26-1.45l.63-1.6zM128.1 12.9c0-1.4.62-2.9 1.85-3.67 1.14-.76 2.6-.85 3.92-.57 1.36.3 2.52 1.36 2.92 2.7.55 1.63.2 3.6-1.08 4.8-.93.86-2.25 1.2-3.5 1.1-1.4-.03-2.82-.76-3.5-2-.42-.7-.62-1.53-.63-2.35zm2.1 0c0 1.03.3 2.2 1.23 2.76.86.52 2.1.38 2.75-.4.63-.76.8-1.8.73-2.74-.08-.93-.43-1.97-1.3-2.44-.9-.44-2.1-.26-2.7.53-.5.66-.7 1.5-.7 2.3zM141.63 9.9v6.4c-.04.78-1.05 1.1-1.62.7-.46-.32-.37-.9-.38-1.4V9.9c-.4-.02-.82.04-1.22-.05-.52-.17-.52-1 0-1.18.4-.1.8-.03 1.22-.05 0-1.07-.07-2.25.6-3.15.63-.78 1.74-.83 2.64-.7.52.03 1.3.2 1.17.9-.04.53-.63.65-1.04.5-.47-.07-1.1.03-1.23.57-.17.6-.13 1.25-.14 1.88.5 0 .98-.03 1.46.03.5.1.62.86.18 1.13-.36.2-.8.1-1.18.1h-.47zM152.55 5.78c.02.62-.63 1-1.2.96-.57.04-1.26-.4-1.17-1.06.1-.68.9-.95 1.5-.82.45.08.87.43.87.92zm-2.2 3.83c-.03-.6.62-1.1 1.2-.96.53.07.9.6.82 1.1v6.56c-.05.7-.88 1.07-1.47.78-.44-.18-.57-.7-.54-1.12V9.6zM154.73 9.56c-.03-.54.5-.96 1-.94.55-.03 1.07.44 1 1v.57c.6-1.2 2.02-1.83 3.3-1.66.98.1 1.9.7 2.26 1.62.4.9.28 1.92.3 2.9v3.26c-.04.6-.73 1-1.28.82-.5-.1-.77-.6-.72-1.07v-4.54c-.04-.74-.52-1.5-1.28-1.63-.87-.2-1.86.2-2.3.98-.4.66-.26 1.45-.28 2.18v3.26c-.04.6-.73 1-1.3.82-.47-.1-.76-.58-.7-1.05V9.55zM165.7 8.62c.07-.8.12-1.6.2-2.4.1-.74 1.32-.98 1.66-.26.1.44.04.9.06 1.34v1.32c.5.02 1.03-.03 1.54.03.55.15.64 1 .14 1.26-.38.16-.8.07-1.2.1h-.48c0 1.52-.02 3.05 0 4.58.04.4.1 1 .57 1.12.5.17 1.04-.18 1.5.1.4.3.36.96-.1 1.18-.6.33-1.33.32-2 .27-.72-.06-1.4-.48-1.68-1.17-.43-1-.28-2.1-.3-3.17V10c-.4-.02-.78.04-1.15-.06-.56-.2-.5-1.14.07-1.3.4-.05.78 0 1.17-.02zM179.3 12.62c.02.36-.32.64-.67.58h-5.75c.03.93.46 1.92 1.34 2.34 1.03.5 2.25.25 3.25-.2.37-.12.86-.56 1.2-.16.3.33.1.8-.2 1.05-.88.8-2.15 1.04-3.32 1.05-1.44 0-2.9-.72-3.63-2-.77-1.28-.88-2.95-.2-4.3.64-1.45 2.18-2.5 3.8-2.46 1.23-.05 2.54.42 3.32 1.44.57.75.83 1.72.87 2.66zm-1.77-.44c-.08-.86-.48-1.8-1.32-2.14-.88-.36-2.04-.23-2.65.56-.36.45-.6 1-.65 1.58h4.63zM181.22 9.56c-.03-.55.5-.96 1.02-.94.5-.02.98.37.98.88v.7c.22-.84.93-1.56 1.8-1.65.42-.07.94-.05 1.2.34.3.42.05 1.06-.44 1.2-.38.1-.78.02-1.16.16-.83.23-1.4 1.08-1.4 1.92 0 1.4.02 2.78 0 4.16-.04.6-.7.94-1.24.8-.46-.06-.8-.5-.76-.95V9.55zM192.78 11.48c.03-.58-.26-1.23-.85-1.4-.77-.23-1.6-.12-2.35.08-.44.1-.82.38-1.27.44-.44.03-.77-.56-.46-.9.53-.8 1.54-1.03 2.43-1.14 1.13-.1 2.4-.08 3.35.63.8.6 1.08 1.65 1.04 2.62v4.53c-.02.6-.72.98-1.26.77-.43-.1-.6-.57-.57-.97v-.44c-.48.86-1.37 1.43-2.33 1.54-1.08.14-2.34-.15-2.98-1.1-.7-1-.5-2.58.52-3.3 1.02-.75 2.33-.86 3.54-.9h1.2v-.46zm0 1.6c-1.04.03-2.14-.08-3.1.42-.45.24-.75.74-.7 1.27.04.64.6 1.17 1.22 1.24.9.2 1.9-.23 2.3-1.07.3-.57.27-1.23.27-1.86zM196.5 12.9c0-1.58.83-3.2 2.27-3.9 1.16-.6 2.57-.6 3.8-.18.43.18 1 .5.95 1.04 0 .43-.48.75-.88.57-.86-.34-1.88-.58-2.75-.1-.97.48-1.37 1.64-1.33 2.66.04.93.4 1.94 1.25 2.43.8.47 1.8.3 2.65 0 .33-.2.82-.3 1.06.07.27.35.1.85-.26 1.06-.74.53-1.68.7-2.57.72-1.35.03-2.72-.63-3.45-1.8-.5-.76-.74-1.68-.74-2.6zM206.28 8.62c.06-.8.1-1.6.18-2.4.12-.74 1.34-.98 1.67-.26.1.44.04.9.06 1.34v1.32c.5.02 1.02-.03 1.53.03.55.15.64 1 .14 1.26-.38.16-.8.07-1.2.1h-.48c0 1.52-.03 3.05 0 4.58.03.4.08 1 .57 1.12.5.17 1.04-.18 1.5.1.4.3.36.96-.08 1.18-.62.33-1.36.32-2.03.27-.72-.06-1.4-.48-1.68-1.17-.44-1-.3-2.1-.32-3.17V10c-.38-.02-.77.04-1.14-.06-.56-.2-.5-1.14.08-1.3.38-.05.78 0 1.16-.02zM214.08 5.78c0 .62-.64 1-1.2.96-.58.04-1.26-.4-1.17-1.06.1-.7.95-.97 1.56-.8.43.08.82.44.82.9zm-2.2 3.83c-.03-.6.6-1.1 1.2-.96.52.07.88.6.82 1.1v6.56c-.06.7-.88 1.07-1.48.78-.44-.18-.57-.7-.53-1.12V9.6zM221.4 15.74c-.23.62-.64 1.3-1.34 1.4-.62.13-1.34-.06-1.68-.62-.4-.65-.62-1.38-.92-2.08l-1.88-4.7c-.2-.55.32-1.1.87-1.12.5-.06.9.34 1.02.8.74 1.92 1.47 3.85 2.2 5.8l2.22-6c.2-.63 1.06-.78 1.53-.36.4.27.37.8.18 1.16l-2.2 5.72zM233.16 12.62c0 .36-.33.64-.68.58h-5.75c.03.93.46 1.92 1.34 2.34 1.03.5 2.25.25 3.25-.2.37-.12.86-.56 1.2-.16.3.33.1.8-.2 1.05-.88.8-2.15 1.04-3.32 1.05-1.44 0-2.9-.72-3.63-2-.77-1.28-.88-2.95-.2-4.3.64-1.45 2.18-2.5 3.8-2.46 1.23-.05 2.54.42 3.32 1.44.56.75.82 1.72.86 2.66zm-1.78-.44c-.08-.86-.48-1.8-1.32-2.14-.9-.36-2.05-.23-2.66.56-.36.45-.6 1-.65 1.58h4.63zM59.2 30.12c.02.36-.33.64-.68.58h-5.75c.03.93.47 1.92 1.34 2.34 1.04.5 2.26.25 3.26-.2.37-.12.87-.56 1.22-.16.28.33.1.8-.2 1.05-.9.8-2.17 1.04-3.34 1.05-1.44 0-2.9-.72-3.63-2-.75-1.28-.87-2.95-.2-4.3.66-1.45 2.2-2.5 3.8-2.46 1.25-.05 2.56.42 3.33 1.44.58.75.84 1.72.87 2.66zm-1.78-.44c-.08-.86-.48-1.8-1.32-2.14-.88-.36-2.04-.23-2.66.56-.36.45-.58 1-.65 1.58h4.62zM61.1 27.06c-.02-.54.5-.96 1.02-.94.54-.03 1.06.44 1 1v.57c.58-1.2 2-1.83 3.3-1.66.97.1 1.88.7 2.25 1.62.43.9.3 1.92.3 2.9 0 1.08.02 2.17 0 3.26-.03.6-.72 1-1.27.82-.5-.1-.77-.6-.72-1.07v-4.54c-.03-.74-.5-1.5-1.27-1.63-.87-.2-1.86.2-2.3.98-.4.66-.25 1.45-.28 2.18v3.26c-.04.6-.73 1-1.28.82-.48-.1-.78-.58-.73-1.05v-6.54zM72.1 26.12c.05-.8.1-1.6.17-2.4.12-.74 1.34-.98 1.67-.26.1.44.04.9.06 1.34v1.32c.5.02 1.03-.03 1.54.03.55.15.64 1 .14 1.26-.38.16-.8.07-1.2.1H74c0 1.52-.02 3.05.02 4.58.02.4.07 1 .56 1.12.5.17 1.04-.18 1.5.1.4.3.36.96-.08 1.18-.6.33-1.35.32-2.02.27-.72-.06-1.4-.48-1.68-1.17-.43-1-.28-2.1-.3-3.17v-2.9c-.4-.02-.78.04-1.15-.06-.56-.2-.5-1.14.08-1.3.38-.05.78 0 1.16-.02zM85.7 30.12c0 .36-.34.64-.7.58h-5.74c.03.93.46 1.92 1.34 2.34 1.03.5 2.25.25 3.25-.2.37-.12.87-.56 1.2-.16.3.33.12.8-.2 1.05-.88.8-2.15 1.04-3.32 1.05-1.44 0-2.9-.72-3.63-2-.76-1.28-.88-2.95-.2-4.3.65-1.45 2.18-2.5 3.8-2.46 1.24-.05 2.55.42 3.32 1.44.58.75.83 1.72.87 2.66zm-1.8-.44c-.07-.86-.47-1.8-1.3-2.14-.9-.36-2.06-.23-2.67.56-.36.45-.58 1-.65 1.58h4.63zM87.6 27.06c-.03-.55.5-.96 1.02-.94.5-.02.98.37.98.88v.7c.22-.84.93-1.56 1.8-1.65.43-.07.95-.05 1.2.34.3.42.06 1.06-.44 1.2-.38.1-.78.02-1.16.16-.82.23-1.4 1.08-1.38 1.92-.02 1.4 0 2.78-.02 4.16-.04.6-.7.94-1.24.8-.45-.06-.8-.5-.76-.95v-6.64zM94.9 26.12c.05-.8.1-1.6.17-2.4.12-.74 1.33-.98 1.67-.26.1.44.04.9.06 1.34v1.32c.5.02 1.03-.03 1.54.03.55.15.63 1 .14 1.26-.38.16-.8.07-1.2.1h-.48c0 1.52-.02 3.05 0 4.58.04.4.1 1 .57 1.12.5.17 1.05-.18 1.5.1.4.3.37.96-.08 1.18-.62.33-1.35.32-2.02.27-.72-.06-1.4-.48-1.68-1.17-.44-1-.28-2.1-.3-3.17v-2.9c-.4-.02-.78.04-1.15-.06-.56-.2-.5-1.14.07-1.3.4-.05.78 0 1.17-.02zM105.78 28.98c.02-.58-.26-1.23-.86-1.4-.76-.23-1.6-.12-2.34.08-.44.1-.83.38-1.27.44-.44.03-.77-.56-.46-.9.53-.8 1.53-1.03 2.42-1.14 1.14-.1 2.4-.08 3.36.63.8.6 1.08 1.65 1.04 2.62v4.53c-.03.6-.72.98-1.27.77-.43-.1-.62-.57-.57-.97v-.44c-.48.86-1.37 1.43-2.33 1.54-1.08.14-2.34-.15-2.98-1.1-.7-1-.5-2.58.52-3.3 1.02-.75 2.32-.86 3.54-.9h1.2V29zm0 1.6c-1.05.03-2.15-.08-3.1.42-.45.24-.76.74-.7 1.27.03.64.6 1.17 1.22 1.24.9.2 1.9-.23 2.3-1.07.3-.57.27-1.23.27-1.86zM112.2 23.28c0 .62-.65 1-1.2.96-.6.04-1.27-.4-1.18-1.06.1-.7.94-.97 1.55-.8.43.08.82.44.82.9zM110 27.1c-.04-.6.6-1.1 1.2-.96.5.07.87.6.8 1.1v6.56c-.04.7-.87 1.07-1.47.78-.44-.18-.57-.7-.53-1.12V27.1zM114.36 27.06c-.03-.54.5-.96 1-.94.56-.03 1.07.44 1 1v.57c.6-1.2 2.02-1.83 3.32-1.66.96.1 1.87.7 2.24 1.62.43.9.3 1.92.3 2.9 0 1.08.02 2.17 0 3.26-.02.6-.7 1-1.27.82-.5-.1-.77-.6-.7-1.07-.02-1.5 0-3.03-.02-4.54-.03-.74-.5-1.5-1.27-1.63-.87-.2-1.86.2-2.3.98-.4.66-.26 1.45-.3 2.18 0 1.1.02 2.18 0 3.26-.03.6-.72 1-1.27.82-.5-.1-.8-.6-.73-1.07v-6.5zM136.27 29.27c.05-.8-.42-1.7-1.27-1.87-1-.23-2.13.33-2.43 1.33-.22.77-.1 1.58-.13 2.36-.02.94.02 1.9-.02 2.83-.16.88-1.56 1-1.9.2-.15-.5-.06-1.02-.08-1.52v-3.57c-.04-.8-.6-1.58-1.44-1.66-1-.15-2.02.48-2.3 1.45-.16.73-.06 1.5-.1 2.24 0 .92.02 1.85 0 2.77-.06.9-1.43 1.15-1.87.4-.22-.45-.1-.97-.13-1.45v-5.83c.07-.93 1.5-1.12 1.9-.33.15.33.1.7.1 1.07.73-1.45 2.6-2.05 4.08-1.46.76.3 1.34.96 1.57 1.74.56-1.15 1.75-2 3.06-1.96 1.12-.03 2.26.6 2.68 1.64.44 1 .27 2.1.3 3.14v3.03c-.07.9-1.44 1.15-1.87.4-.22-.45-.1-.97-.13-1.45v-3.5zM148.6 30.12c.03.36-.32.64-.67.58h-5.74c.02.93.45 1.92 1.33 2.34 1.03.5 2.24.25 3.25-.2.37-.12.86-.56 1.2-.16.3.33.1.8-.2 1.05-.9.8-2.15 1.04-3.32 1.05-1.44 0-2.92-.72-3.64-2-.76-1.28-.88-2.95-.2-4.3.65-1.45 2.18-2.5 3.8-2.46 1.24-.05 2.55.42 3.33 1.44.57.75.83 1.72.86 2.66zm-1.76-.44c-.08-.86-.48-1.8-1.33-2.14-.87-.36-2.03-.23-2.65.56-.36.45-.58 1-.65 1.58h4.64zM150.53 27.06c-.04-.54.5-.96 1-.94.55-.03 1.07.44 1 1v.57c.6-1.2 2-1.83 3.3-1.66.98.1 1.9.7 2.26 1.62.4.9.27 1.92.3 2.9v3.26c-.04.6-.73 1-1.3.82-.48-.1-.76-.6-.7-1.07v-4.54c-.04-.74-.52-1.5-1.28-1.63-.87-.2-1.86.2-2.3.98-.4.66-.26 1.45-.3 2.18 0 1.1.02 2.18 0 3.26-.02.6-.7 1-1.27.82-.5-.1-.78-.6-.72-1.07v-6.5zM161.5 26.12c.07-.8.1-1.6.18-2.4.13-.74 1.34-.98 1.67-.26.1.44.04.9.06 1.34v1.32c.53.02 1.05-.03 1.56.03.55.15.63 1 .14 1.26-.38.16-.8.07-1.2.1h-.5c.02 1.52 0 3.05.03 4.58.03.4.08 1 .56 1.12.48.17 1.04-.18 1.5.1.4.3.36.96-.1 1.18-.6.33-1.33.32-2 .27-.72-.06-1.42-.48-1.68-1.17-.44-1-.3-2.1-.32-3.17v-2.9c-.38-.02-.77.04-1.14-.06-.56-.2-.5-1.14.08-1.3.38-.05.78 0 1.17-.02z"/></g></g></svg>