<svg xmlns="http://www.w3.org/2000/svg" width="32" height="32" viewBox="0 0 8.467 8.467"><g color="#000" fill="#5d5d5d"><path style="marker:none" d="M3.217 4.806c-.295 0-.497.195-.497.354v.472h.003s.272-.12.52-.162c.24-.05.302-.202.302-.353 0-.152-.035-.31-.328-.31zm1.944.78v.003c-.631 0-1.348.354-1.348 1.444 0 1.09.58 1.439 1.313 1.439.732 0 1.1-.252 1.1-.252v-.606s-.638.24-1.015.245c-.348.005-.525-.076-.53-.304-.007-.227.404-.206.733-.302.358-.101.825-.197.825-.813 0-.616-.444-.853-1.078-.853zM1.235 5.6C.402 5.599.23 5.79.23 5.79v.6s.631-.18.899-.18c.27 0 .467.09.467.242 0 .151-.278.202-.901.386-.379.111-.677.285-.677.828 0 .543.298.782.808.782.639 0 .84-.366.84-.366s-.015.321.05.321h.617V6.391c0-.512-.252-.79-1.093-.79zm2.242.225s-.232.159-.404.172c-.22.02-.353.106-.353.166v2.244h.757zm1.671.394v.003c.336 0 .308.164.308.288 0 .121-.055.212-.403.285-.346.075-.47.157-.47.157 0-.556.247-.733.565-.733zm-3.567.842l.002.003V7.5c0 .144-.176.391-.462.391-.285 0-.36-.134-.36-.328 0-.202.257-.32.42-.346.291-.045.4-.156.4-.156z"/><path style="text-indent:0;text-align:start;text-transform:none;marker:none" d="M5.269.013a5.826 5.826 0 00-1.985.44C2.102.949.51 2.181.216 4.6l.638-.082c.278-1.339 1.51-1.974 2.382-1.995 1.005-.022 2.022.511 2.446 1.373l.204-.104c-.468-.95-1.434-1.548-2.664-1.493-.469.022-.943.16-1.366.429a3.284 3.284 0 012.21-.637c.737.059 1.445.356 1.964.875.52.519.851 1.265.833 2.246h.23c.016-1.036-.342-1.847-.902-2.409-.56-.563-1.32-.874-2.104-.934a3.654 3.654 0 00-2.054.441 3.76 3.76 0 011.968-.678c1.534-.097 3.122.731 3.703 2.62l.218-.066c-.61-1.981-2.309-2.886-3.94-2.783a4.012 4.012 0 00-1.731.505 3.88 3.88 0 011.709-.691c1.432-.224 2.949.34 3.775 1.286l.168-.15C7.24 1.59 6.187 1.074 5.063.962A4.456 4.456 0 003.93.995a4.097 4.097 0 00-1.34.451C3.179 1.032 3.805.85 4.364.767c1.53-.223 2.61.349 2.61.349l.104-.214S6.413.582 5.445.501a5.99 5.99 0 00-1.134.022c-.393.05-.802.153-1.2.332.106-.063.21-.12.32-.175C4.374.21 5.677.245 5.677.245l.017-.228S5.538.001 5.27.012z"/></g></svg>