<?xml version="1.0" encoding="UTF-8" standalone="no"?>
<!-- Created with Inkscape (http://www.inkscape.org/) -->

<svg
   xmlns:dc="http://purl.org/dc/elements/1.1/"
   xmlns:cc="http://creativecommons.org/ns#"
   xmlns:rdf="http://www.w3.org/1999/02/22-rdf-syntax-ns#"
   xmlns:svg="http://www.w3.org/2000/svg"
   xmlns="http://www.w3.org/2000/svg"
   xmlns:sodipodi="http://sodipodi.sourceforge.net/DTD/sodipodi-0.dtd"
   xmlns:inkscape="http://www.inkscape.org/namespaces/inkscape"
   width="32"
   height="32"
   viewBox="0 0 32 32.000001"
   id="svg2"
   version="1.1"
   inkscape:version="0.91 r13725"
   sodipodi:docname="application-icon.svg">
  <defs
     id="defs4" />
  <sodipodi:namedview
     id="base"
     pagecolor="#eff2f4"
     bordercolor="#666666"
     borderopacity="1.0"
     inkscape:pageopacity="0"
     inkscape:pageshadow="2"
     inkscape:zoom="16"
     inkscape:cx="21.40406"
     inkscape:cy="15.874382"
     inkscape:document-units="px"
     inkscape:current-layer="layer1"
     showgrid="false"
     units="px"
     borderlayer="true"
     inkscape:window-width="1920"
     inkscape:window-height="985"
     inkscape:window-x="3840"
     inkscape:window-y="0"
     inkscape:window-maximized="1" />
  <metadata
     id="metadata7">
    <rdf:RDF>
      <cc:Work
         rdf:about="">
        <dc:format>image/svg+xml</dc:format>
        <dc:type
           rdf:resource="http://purl.org/dc/dcmitype/StillImage" />
        <dc:title></dc:title>
      </cc:Work>
    </rdf:RDF>
  </metadata>
  <g
     inkscape:label="Layer 1"
     inkscape:groupmode="layer"
     id="layer1"
     transform="translate(0,-1020.3622)">
    <path
       style="color:#000000;font-style:normal;font-variant:normal;font-weight:normal;font-stretch:normal;font-size:medium;line-height:normal;font-family:sans-serif;text-indent:0;text-align:start;text-decoration:none;text-decoration-line:none;text-decoration-style:solid;text-decoration-color:#000000;letter-spacing:normal;word-spacing:normal;text-transform:none;direction:ltr;block-progression:tb;writing-mode:lr-tb;baseline-shift:baseline;text-anchor:start;white-space:normal;clip-rule:nonzero;display:inline;overflow:visible;visibility:visible;opacity:1;isolation:auto;mix-blend-mode:normal;color-interpolation:sRGB;color-interpolation-filters:linearRGB;solid-color:#000000;solid-opacity:1;fill:#797979;fill-opacity:1;fill-rule:evenodd;stroke:none;stroke-width:2;stroke-linecap:butt;stroke-linejoin:miter;stroke-miterlimit:4;stroke-dasharray:none;stroke-dashoffset:0;stroke-opacity:1;color-rendering:auto;image-rendering:auto;shape-rendering:auto;text-rendering:auto;enable-background:accumulate"
       d="m 3.0194599,1025.1203 c -1.6436607,0 -3.01520868,1.3714 -3.01520868,3.0152 l 0,16.5355 c 0,1.6436 1.37154748,3.0152 3.01520868,3.0152 l 25.9577871,0 c 1.64366,0 3.015208,-1.3716 3.015208,-3.0152 l 0,-16.5355 c 0,-1.6438 -1.371548,-3.0152 -3.015208,-3.0152 z m 15.2134931,1.1911 c 0.860647,10e-5 1.558316,0.6978 1.558355,1.5584 -9.4e-5,0.8606 -0.697747,1.5582 -1.558355,1.5583 -0.861773,0 -1.561247,-0.6965 -1.56134,-1.5583 3.8e-5,-0.8618 0.699528,-1.56 1.56134,-1.5584 z m 3.964552,0 c 0.860647,10e-5 1.558316,0.6978 1.558355,1.5584 -9.4e-5,0.8606 -0.697747,1.5582 -1.558355,1.5583 -0.861774,0 -1.561248,-0.6965 -1.561341,-1.5583 3.8e-5,-0.8618 0.699528,-1.56 1.561341,-1.5584 z m 3.964551,0 c 0.860647,10e-5 1.558316,0.6978 1.558355,1.5584 -9.4e-5,0.8606 -0.697747,1.5582 -1.558355,1.5583 -0.861773,0 -1.561247,-0.6965 -1.56134,-1.5583 3.8e-5,-0.8618 0.699528,-1.56 1.56134,-1.5584 z m -22.2171359,0.051 3.8690204,0 0,2.9137 -3.8690204,0 z m 0.071648,4.1825 23.9635699,0 0,13.5381 -23.9635699,0 z"
       id="rect4136"
       inkscape:connector-curvature="0"
       sodipodi:nodetypes="sssssssssccccccccccccccccccccccccc" />
  </g>
</svg>
