<svg width="64" height="64" viewBox="0 0 16.93 16.93" xmlns="http://www.w3.org/2000/svg"><path d="M8.37 3c-.1 0-.14.04-.14.23v.54c-1.03.2-1.8.84-2.2 1.43l-3.35.96-1.83.12v.1l.6.1C1.17 7.1.83 7.71.14 8.21v1.1a3.6 3.6 0 011.28 1.75l-.89.13.05.06c.01-.07 2.66.11 3.7.57h3l1.18.85 1.18-.85h3a12.3 12.3 0 013.7-.57l.06-.06-.9-.13a3.6 3.6 0 011.28-1.76V8.22a3.78 3.78 0 01-1.28-1.75l.59-.09v-.1l-1.83-.12-3.34-.96a3.58 3.58 0 00-2.21-1.43v-.54c0-.19-.04-.23-.14-.23z" fill="#839496"/><g fill="#002b36"><path d="M4.2 9.82H3.18s.36-.15.56-.6c.17-.37.68-1.77.68-1.77l-.22-.24h.94l-.22.25.8 2.14.3.22h-1l.26-.23-.73-1.98s-.51 1.36-.6 1.67c-.08.28.23.54.23.54z"/><path d="M3.73 8.5s.05-.05.1-.16l.07-.16a3.05 3.05 0 00.73.78s.17-.24.39-.42c.25-.2.19-.13.37-.25.12-.09.16-.15.16-.15a.82.82 0 00.14.4s-.27-.05-.52.17c-.24.22-.55.6-.55.6s-.17-.3-.34-.5a.99.99 0 00-.55-.3zm2.85-1.28h2.05l.05.05-1.62 2.4h.55c.14 0 .44-.07.58-.22.14-.15.22-.39.22-.39h.07c.1.24.19.39.35.62l-.1.16-2.26.02-.02-.03 1.64-2.35h-.66c-.46 0-.57.42-.57.42l-.22-.43a1 1 0 01-.06-.25zM8.98 7.2h.9l-.27.25v1.59c0 .15.02.55.51.55.5 0 .56-.28.56-.56V7.47l-.29-.26h.83l-.33.26v1.55c0 .2-.03.5-.19.62-.17.14-.35.17-.6.17-.24 0-.49.01-.67-.2-.15-.16-.2-.41-.2-.68V7.45zM11.44 7.2h.95l-.3.28v2.18h.45c.55 0 .61-.61.61-.61s.1.28.2.46c.13.24.19.3.19.3h-2.11l.27-.23V7.46z"/></g></svg>