<svg width="575" height="575" xmlns="http://www.w3.org/2000/svg"><g transform="matrix(.9689 0 0 .9811 -163 -66)" stroke="#000"><circle transform="translate(156 178) scale(.6122)" cx="215" cy="409" r="161" fill="none" stroke-width="40"/><circle transform="translate(156 178) scale(.6122)" cx="790" cy="406" r="161" fill="none" stroke-width="40"/><path d="M419 188c-81 1-67-9-111 132-35 112-31 100-32 108 0 6 5 10 11 11 13-1 8 1 52-138 164 173 102 145 190 148 116-1 125 6 127-11-1-5-3-9-83-185l8-21 26-1-1-21h-97c-9 11 3 11 47 21l-8 21-194 1c13-46 6-43 65-43zm-70 88h190l-55 147zm212 9l-53 141 117 1z" stroke-width=".6"/></g></svg>
