<svg width="55" height="55" viewBox="0 0 14.55 14.55" xmlns="http://www.w3.org/2000/svg"><path d="M2.03.53L1.97.6l.3.5-.76 1.36.1 1.78-.23 1.2.43 2.12 1.54 2.32.85.72.6.26 2.71-.23 1.67 1.43.04.5 1.71.59.07.26.17.05.52.52.23-.13s.13-.35.48-.6c.37-.26.7-.27.81-.34.1-.05.31-.35.31-.35l-.06-.31-1.55.26-.08-.52-1.39-.8-1.16-1.74-2.73-.68.8-.82 1.37.8.49-.2s.2.3.39.38c.2.07.4.07.49-.09.07-.12.05-.48.09-.76L9.2 7.4c-.2-.1-.4-.18-.62-.26h-.32l-1.51-.95L4.5 7.8l-.08-.88-.35-.6.94-.01.39-.65L5.75 4l.15-.65c-.31-.4-.6-.68-.82-.93-.06-.07-.12.14-.13.17l.28.53-.44 1.66-.49.79-.39-.3-.52-.1s-.14-.25-.14-.37c0-.13.37.04.37.04L4 4.72l.07-.47.26-.26-.18-.27-.02-.8s-.32-.53-.88-.49c-.56.03-.83.13-.83.13L2.7 1.4l.21-.15-.88-.72z"/></svg>