<svg width="510" height="203" version="1.1" viewBox="0 0 510 203" xmlns="http://www.w3.org/2000/svg">
 <g transform="translate(-309 -249)" data-name="Artboard 1">
  <path transform="translate(309 249)" d="m416-0.0156c-10.2 0.207-20.7 2.34-27 11.1-9.19 13.2-6.82 29.6-7.18 44.7-0.25 1.83 1.02 5.17-1.97 4.26h-14.9v14.5h16.9v79.8h15.8v-79.8h22.8c-1.92-4.84-3.85-9.68-5.77-14.5h-17.1c0.193-11.1-0.574-22.2 0.889-33.2 0.994-9.97 11-13 19.4-12.3 2.94 0.919 2.56-1.48 2.44-3.61-1e-3 -3.67-0.00191-7.35-0.00391-11-1.42-0.035-2.87-0.0453-4.32-0.0156zm-226 0.0156v155h15.8v-155zm74.7 57.5c-23.9-0.58-48.4 14.2-51.9 39.6-1.95 10.2-0.941 20.9 2.87 30.5l0.0293-2e-3c14.7 39.9 80.5 38.8 93.9-1.38 7.92-21.3 1.65-48.2-18.5-60.6-7.86-5.23-17.1-7.81-26.5-8.04zm-129 0.0195c-23.9-0.584-48.3 14.2-51.8 39.5-1.95 10.2-0.941 20.9 2.87 30.5l0.0137 6e-3c14.8 39.8 80.4 39 93.9-1.39 7.94-21.3 1.63-48.2-18.5-60.6-7.87-5.21-17.1-7.79-26.5-8.02zm-84.3 0.0312c-23.2 0.252-46.5 14.7-49.9 39.5-6.1 26.2 11.8 55.8 39.3 59.1 15.3 2.7 32.2-0.548 44.2-10.9-4.15-3.38-7.48-7.72-10.1-12.3-18.3 19.9-56.6 6.9-57.1-20.9-3.6-19.9 12.5-41 33.3-39.9 8.78-0.0584 17.7 3.19 23.8 9.62 2.65-4.62 5.97-8.96 10.1-12.3-9.26-8.24-21.4-12-33.6-11.9zm33.6 11.9c0.0059 0.0052 0.0117 0.0104 0.0176 0.0156l-0.0078-0.0234c-0.0032 0.0026-0.0065 0.0052-0.0098 0.0078zm265-9.42c-13.7 0.228-27 9.45-29.2 23.6-2.31 11.6-1.45 23.3-1.62 35v38.5h15.8c0.0423-20-0.0903-40.1 0.0762-60.1-0.649-10.4 3.73-23.9 16.6-22.4h8.07v-14.6h-6.98c-0.914-0.0659-1.83-0.0894-2.74-0.0742zm161 0.0742c-5.02 1e-3 -10 0.0029-15.1 0.0039-9.75 24.6-19.5 49.2-29.3 73.8-10.1-24.6-20.2-49.2-30.3-73.8h-15.1c12.5 31.3 24.9 62.5 37.4 93.8-6.5 16.4-13 32.8-19.5 49.2h16.1c18.5-47.7 37.1-95.4 55.6-143zm-377 12.3c13.5 7.9e-4 27 7.03 31.2 21.1 5.18 14.9 1.91 33.7-11.7 43.1-19.7 14.8-51.8 0.829-52.8-24.6-0.278-6.48 0.346-12.4 2.06-18.5 3.97-14.2 17.8-21.1 31.2-21.1zm129 0c13.5 4.85e-4 27 7.03 31.2 21.1 5.18 14.9 1.91 33.7-11.7 43.1-19.7 14.8-51.8 0.828-52.8-24.6-0.277-6.48 0.346-12.4 2.06-18.5 3.97-14.2 17.8-21.1 31.2-21.1z"/>
 </g>
</svg>
