<svg viewBox="0 0 1000 1000" xmlns="http://www.w3.org/2000/svg"><path d="M130 733h746l116 122v30H8v-30l122-122m700-614c29 0 32 3 32 30v428c0 43 7 42-36 42H623v44h33v27H333v-27h35v-44H164c-27 0-26 0-26-30V148c0-28 0-29 32-29z" fill="#839496"/><path d="M876 799c-5 1-11 3-14 7-2 3-2 6 0 8 3 3 6 5 10 6 10 3 21 3 31-1 4-1 9-4 9-9s-5-8-9-9c-9-4-18-4-27-2zm-65 0c-5 1-10 3-13 6-2 2-3 6-1 9l11 7c10 2 20 2 29-1 5-2 10-5 10-10s-5-7-8-9c-9-4-19-4-28-2m-69 0c-6 1-11 3-15 8-2 3-1 6 2 9 6 5 13 6 21 6 7 1 15 0 21-4 3-2 7-5 6-9s-5-7-8-8c-9-4-18-4-27-2m-70 0c-5 1-9 2-13 5-2 2-3 5-2 8 1 4 5 6 10 8 10 4 22 4 33-1 3-2 7-4 7-8 1-4-3-7-6-9-9-5-19-5-29-3m-71 0c-5 1-11 3-15 8-2 3 0 6 2 8 3 4 8 5 12 6 9 2 20 2 29-2 3-2 7-4 7-8 1-4-3-8-6-9-9-5-19-5-29-3m-71 0c-5 1-11 3-15 8-2 3 0 6 2 8 4 4 8 6 13 6 10 2 20 2 28-2 4-2 7-5 7-9s-3-7-6-8c-9-5-19-5-29-3m-71 0c-5 1-9 2-13 6-2 1-3 5-2 8 2 4 7 6 11 7 11 4 22 3 32-1 4-2 7-5 7-9s-3-7-6-8c-9-5-19-5-29-3m-70-1c-5 1-10 3-13 6-3 2-5 5-3 9s7 6 11 7c10 4 22 3 32-1 3-2 7-5 7-9s-3-7-6-8c-9-5-19-5-28-4m-72 1c-5 1-10 2-13 6-2 2-3 4-2 7 1 4 6 7 10 8 11 4 23 3 33-1 3-2 7-4 7-8 1-4-3-7-6-9-9-5-19-5-29-3m-71 0c-5 1-11 3-15 8-2 3 0 7 3 9 6 5 14 6 22 6 7 1 14-1 20-4 3-2 5-5 5-8 0-4-3-7-6-8-9-5-19-5-29-3m-70-1c-5 1-10 3-14 7-2 1-4 5-2 8 2 4 7 6 11 7 11 4 22 3 32-1 4-2 7-5 7-9s-3-7-6-8c-9-5-19-5-28-4m-72 1c-6 1-12 3-15 8-2 3 0 6 2 8 3 4 8 5 12 6 10 2 20 2 29-2 4-2 7-5 7-9s-3-7-6-8c-9-5-19-5-29-3m742-40c-6 1-12 2-17 7-2 2-2 7 0 9 5 5 11 7 17 7 9 2 19 1 27-4 3-1 6-4 5-8 0-4-3-6-7-8-7-4-16-4-25-3m-68 0c-6 1-12 2-16 6-2 2-4 6-2 8 3 5 8 7 12 8 10 3 21 3 30-1 4-2 7-4 8-8s-2-7-5-9c-8-5-18-5-27-4m-70 0c-6 1-12 2-16 7-3 2-3 6-1 9 4 4 10 6 15 7 9 2 18 1 26-2 4-2 9-4 9-9 0-4-4-7-8-9-7-4-16-4-25-3m-71 0c-6 1-12 2-16 7-3 2-3 7-1 9 5 5 11 7 18 8 9 1 19 0 27-5 2-2 5-5 5-8-1-4-4-6-8-8-7-4-16-4-25-3m-71 0c-6 1-12 2-16 7-3 2-3 6-1 8 4 5 10 7 16 8 9 2 18 1 27-3 3-2 7-5 7-9-1-4-5-7-9-9-7-3-16-3-24-2m-71 0c-6 1-12 2-16 7-3 2-3 7-1 9 5 5 11 7 17 7 9 2 19 1 27-4 3-1 6-4 6-8-1-4-4-6-8-8-7-4-16-4-25-3m-71 0c-6 1-12 2-16 7-3 2-3 7-1 9 5 5 11 7 17 7 9 2 19 1 28-4 2-2 5-5 5-8-1-4-5-7-8-8-8-4-17-4-25-3m-71 0c-6 1-12 2-16 7-3 2-3 6-1 8 4 5 10 7 16 8 9 2 19 1 27-3 4-2 7-5 7-9-1-4-5-7-8-8-8-4-17-4-25-3m-71 0c-6 1-12 2-16 7-3 2-3 7-1 9 4 4 10 6 16 7 9 2 18 1 26-3 3-1 7-4 8-8 0-4-4-7-7-9-8-4-17-4-26-3m-71 0c-6 1-13 3-17 8-2 2-2 6 0 8 5 5 11 7 17 7 9 2 19 1 27-4 3-1 6-4 6-8-1-4-5-7-8-8-8-4-17-4-25-3m-71 0c-6 1-12 2-16 7-3 2-3 7-1 9 5 5 11 7 17 7 9 2 19 1 27-4 3-1 6-4 6-8-1-4-5-7-8-8-8-4-17-4-25-3m28-609v427h662V150z" fill="#002b36"/></svg>