<?xml version="1.0" encoding="UTF-8" standalone="no"?>
<!-- Generator: Adobe Illustrator 16.0.4, SVG Export Plug-In . SVG Version: 6.00 Build 0)  -->

<svg
   xmlns:dc="http://purl.org/dc/elements/1.1/"
   xmlns:cc="http://creativecommons.org/ns#"
   xmlns:rdf="http://www.w3.org/1999/02/22-rdf-syntax-ns#"
   xmlns:svg="http://www.w3.org/2000/svg"
   xmlns="http://www.w3.org/2000/svg"
   xmlns:sodipodi="http://sodipodi.sourceforge.net/DTD/sodipodi-0.dtd"
   xmlns:inkscape="http://www.inkscape.org/namespaces/inkscape"
   version="1.1"
   id="Layer_1"
   x="0px"
   y="0px"
   width="50"
   height="55"
   viewBox="0 0 50 54.999999"
   enable-background="new 0 0 306 344.35"
   xml:space="preserve"
   sodipodi:docname="cpp-logo.svg"
   inkscape:version="0.92.4 5da689c313, 2019-01-14"><metadata
   id="metadata25"><rdf:RDF><cc:Work
       rdf:about=""><dc:format>image/svg+xml</dc:format><dc:type
         rdf:resource="http://purl.org/dc/dcmitype/StillImage" /><dc:title></dc:title></cc:Work></rdf:RDF></metadata><defs
   id="defs23" /><sodipodi:namedview
   pagecolor="#ffffff"
   bordercolor="#666666"
   borderopacity="1"
   objecttolerance="10"
   gridtolerance="10"
   guidetolerance="10"
   inkscape:pageopacity="0"
   inkscape:pageshadow="2"
   inkscape:window-width="994"
   inkscape:window-height="637"
   id="namedview21"
   showgrid="false"
   inkscape:zoom="5.4827936"
   inkscape:cx="14.279485"
   inkscape:cy="34.200106"
   inkscape:window-x="137"
   inkscape:window-y="304"
   inkscape:window-maximized="0"
   inkscape:current-layer="Layer_1" />
<path
   d="m 48.718813,41.298213 c 0.38212,-0.661907 0.619573,-1.407685 0.619573,-2.07739 V 15.973881 c 0,-0.669705 -0.237134,-1.415324 -0.619414,-2.077231 L 24.988373,27.597432 Z"
   id="path2"
   inkscape:connector-curvature="0"
   style="fill:#00599c;stroke-width:0.15915041" />
<path
   d="M 27.097116,54.496715 47.229643,42.873324 c 0.579943,-0.334852 1.10705,-0.913045 1.48917,-1.575111 L 24.988373,27.597432 1.2579332,41.298372 c 0.3821202,0.661907 0.9093854,1.240259 1.4891704,1.574952 L 22.87963,54.496715 c 1.15973,0.669705 3.057757,0.669705 4.217486,0 z"
   id="path4"
   inkscape:connector-curvature="0"
   style="fill:#004482;stroke-width:0.15915041" />
<path
   d="M 48.718972,13.896491 C 48.336693,13.234425 47.809428,12.656232 47.229643,12.321379 L 27.097116,0.69798843 c -1.159729,-0.66970448 -3.057756,-0.66970448 -4.217486,0 L 2.7471036,12.321379 c -1.1598881,0.669546 -2.10874289,2.313252 -2.10874289,3.652502 v 23.246942 c 0,0.669705 0.23729326,1.415483 0.61957249,2.07739 L 24.988373,27.597432 Z"
   id="path6"
   inkscape:connector-curvature="0"
   style="fill:#659ad2;stroke-width:0.15915041" />
<g
   id="g10"
   transform="matrix(0.15915041,0,0,0.15915041,0.63836071,0.19570987)">
	<path
   d="m 153,274.175 c -56.243,0 -102,-45.757 -102,-102 0,-56.243 45.757,-102 102,-102 36.292,0 70.139,19.53 88.331,50.968 l -44.143,25.544 C 188.083,130.951 171.15,121.175 153,121.175 c -28.122,0 -51,22.878 -51,51 0,28.121 22.878,51 51,51 18.152,0 35.085,-9.776 44.191,-25.515 l 44.143,25.543 c -18.192,31.441 -52.04,50.972 -88.334,50.972 z"
   id="path8"
   inkscape:connector-curvature="0"
   style="fill:#ffffff" />
</g>
<g
   id="g14"
   transform="matrix(0.15915041,0,0,0.15915041,0.63836071,0.19570987)">
	<polygon
   points="243.666,189.175 243.666,177.841 255,177.841 255,166.508 243.666,166.508 243.666,155.175 232.334,155.175 232.334,166.508 221,166.508 221,177.841 232.334,177.841 232.334,189.175 "
   id="polygon12"
   style="fill:#ffffff" />
</g>
<g
   id="g18"
   transform="matrix(0.15915041,0,0,0.15915041,0.63836071,0.19570987)">
	<polygon
   points="286.166,189.175 286.166,177.841 297.5,177.841 297.5,166.508 286.166,166.508 286.166,155.175 274.834,155.175 274.834,166.508 263.5,166.508 263.5,177.841 274.834,177.841 274.834,189.175 "
   id="polygon16"
   style="fill:#ffffff" />
</g>
</svg>