<?xml version="1.0" encoding="UTF-8" standalone="no"?>
<!-- Created with Inkscape (http://www.inkscape.org/) -->

<svg
   xmlns:dc="http://purl.org/dc/elements/1.1/"
   xmlns:cc="http://creativecommons.org/ns#"
   xmlns:rdf="http://www.w3.org/1999/02/22-rdf-syntax-ns#"
   xmlns:svg="http://www.w3.org/2000/svg"
   xmlns="http://www.w3.org/2000/svg"
   xmlns:sodipodi="http://sodipodi.sourceforge.net/DTD/sodipodi-0.dtd"
   xmlns:inkscape="http://www.inkscape.org/namespaces/inkscape"
   width="40"
   height="55"
   viewBox="0 0 10.583333 14.552083"
   version="1.1"
   id="svg879"
   inkscape:version="0.92.4 5da689c313, 2019-01-14"
   sodipodi:docname="css3-logo.svg">
  <defs
     id="defs873" />
  <sodipodi:namedview
     id="base"
     pagecolor="#ffffff"
     bordercolor="#666666"
     borderopacity="1.0"
     inkscape:pageopacity="0.0"
     inkscape:pageshadow="2"
     inkscape:zoom="3.959798"
     inkscape:cx="6.7523971"
     inkscape:cy="21.105637"
     inkscape:document-units="mm"
     inkscape:current-layer="layer1"
     showgrid="false"
     inkscape:window-width="796"
     inkscape:window-height="506"
     inkscape:window-x="249"
     inkscape:window-y="122"
     inkscape:window-maximized="0" />
  <metadata
     id="metadata876">
    <rdf:RDF>
      <cc:Work
         rdf:about="">
        <dc:format>image/svg+xml</dc:format>
        <dc:type
           rdf:resource="http://purl.org/dc/dcmitype/StillImage" />
        <dc:title></dc:title>
      </cc:Work>
    </rdf:RDF>
  </metadata>
  <g
     inkscape:label="Layer 1"
     inkscape:groupmode="layer"
     id="layer1"
     transform="translate(0,-282.44792)">
    <g
       id="Page 1"
       style="display:inline;opacity:1;fill:none;fill-rule:evenodd;stroke:none;stroke-width:1"
       transform="matrix(0.0344597,0,0,0.0344597,0.18130116,282.52655)">
      <g
         id="Layer_1">
        <path
           id="Shape"
           d="M 233.164,15.681 H 208.476 L 234.15,43.54 V 56.801 H 181.268 V 41.275 h 25.669 L 181.268,13.415 V 0.135 h 51.896 z m -62.378,0 H 146.098 L 171.771,43.54 V 56.801 H 118.889 V 41.275 h 25.672 L 118.889,13.415 V 0.135 h 51.897 z m -61.768,0.631 h -26.64 v 24.313 h 26.64 V 56.801 H 63.444 V 0.135 h 45.574 z m 0,0"
           inkscape:connector-curvature="0"
           style="fill:#131313" />
        <path
           id="path4796"
           d="M 27.142,386.29 0.071,82.67 h 297.45 l -27.096,303.571 -121.811,33.77 z m 0,0"
           inkscape:connector-curvature="0"
           style="fill:#1572b6" />
        <path
           id="path4798"
           d="m 148.798,394.199 98.427,-27.288 23.157,-259.415 H 148.798 Z m 0,0"
           inkscape:connector-curvature="0"
           style="fill:#33a9dc" />
        <g
           transform="translate(55,142)"
           id="Group">
          <path
             id="path4801"
             d="m 93.797,75.496 h 49.275 l 3.403,-38.132 H 93.797 V 0.125 h 0.129 93.246 l -0.893,9.991 -9.152,102.616 h -83.33 z m 0,0"
             inkscape:connector-curvature="0"
             style="fill:#ffffff" />
          <path
             id="path4803"
             d="M 94.02,172.204 93.857,172.25 52.385,161.051 49.733,131.353 H 29.582 12.354 l 5.216,58.467 76.278,21.176 0.172,-0.048 z m 0,0"
             inkscape:connector-curvature="0"
             style="fill:#ebebeb" />
          <path
             id="path4805"
             d="m 139.907,111.156 -4.484,49.87 -41.532,11.21 v 38.742 l 76.339,-21.158 0.56,-6.29 6.478,-72.374 z m 0,0"
             inkscape:connector-curvature="0"
             style="fill:#ffffff" />
          <path
             id="path4807"
             d="m 93.926,0.125 v 23.128 14.019 0.092 H 4.098 3.979 L 3.232,28.994 1.535,10.116 0.645,0.125 Z m 0,0"
             inkscape:connector-curvature="0"
             style="fill:#ebebeb" />
          <path
             id="path4809"
             d="m 93.797,75.5 v 23.129 14.017 0.092 H 52.969 52.85 L 52.104,104.369 50.406,85.491 49.516,75.5 Z m 0,0"
             inkscape:connector-curvature="0"
             style="fill:#ebebeb" />
        </g>
      </g>
    </g>
  </g>
</svg>
