<svg width="40" height="55" viewBox="0 0 10.58 14.55" xmlns="http://www.w3.org/2000/svg"><g fill="none" fill-rule="evenodd"><path d="M9.01.74H7.93l1.13 1.22v.58H6.74v-.68h1.12L6.74.64V.05H9zm-2.73 0H5.19l1.13 1.22v.58H4v-.68h1.12L4 .64V.05h2.28zM3.56.76H2.4v1.07h1.16v.71h-2V.05h2z" fill="#131313"/><path d="M.18 2.95l.94 10.46 4.18 1.16 4.2-1.16.94-10.46H.19zM2.1 5h6.43l-.59 6.53-2.63.73-2.63-.73-.18-2.01H3.8l.09 1.02 1.43.39 1.43-.39.15-1.66H3.9L3.78 7.6h3.23l.11-1.32h-4.9L2.1 5z" fill="#1572b6"/></g></svg>