<svg width="58" height="32" viewBox="0 0 15.35 8.47" xmlns="http://www.w3.org/2000/svg"><path d="M10.75 1.5v1.61c0 .54.04.9.85 1.39.82.47 1.54 1.02 1.54 1.02s.22.16.22.45v.9c0 .2-.1.28-.4.28-.3 0-.42-.07-.42-.3 0-.43-.04-1.41-.04-1.41h-1.75V7.3c0 .61.09.94 1.05.94h2.04c.67 0 1.4-.05 1.4-.88V5.63c0-.55-.04-1.12-.86-1.6-.81-.47-1.62-1.07-1.75-1.16-.13-.1-.09-.27-.09-.47v-.62c0-.16.05-.35.36-.35.3 0 .39.18.39.42v.94s1.87.08 1.87 0V1.41S15.14.35 12.96.35c-.92 0-2.2-.15-2.2 1.15zM.24.35v7.9h3.54C4.86 8.24 5 7.02 5 7.02v-5.3c0-1.3-.7-1.38-2.02-1.38H.24zm6.12 0l-1.14 7.9h2.1l.15-1.49h.87l.16 1.48h1.91L9.2.34zM2.19 1.7c.84 0 .87.55.87.55V6.4s-.06.55-.87.55zm5.7.71l.31 2.99h-.6z" fill="#eea903"/></svg>