<?xml version="1.0" encoding="UTF-8" standalone="no"?>
<!-- Created with Inkscape (http://www.inkscape.org/) -->

<svg
   xmlns:dc="http://purl.org/dc/elements/1.1/"
   xmlns:cc="http://creativecommons.org/ns#"
   xmlns:rdf="http://www.w3.org/1999/02/22-rdf-syntax-ns#"
   xmlns:svg="http://www.w3.org/2000/svg"
   xmlns="http://www.w3.org/2000/svg"
   xmlns:sodipodi="http://sodipodi.sourceforge.net/DTD/sodipodi-0.dtd"
   xmlns:inkscape="http://www.inkscape.org/namespaces/inkscape"
   width="64"
   height="32"
   viewBox="0 0 16.933333 8.4666665"
   version="1.1"
   id="svg1208"
   inkscape:version="0.92.4 5da689c313, 2019-01-14"
   sodipodi:docname="das-logo.svg">
  <defs
     id="defs1202" />
  <sodipodi:namedview
     id="base"
     pagecolor="#ffffff"
     bordercolor="#666666"
     borderopacity="1.0"
     inkscape:pageopacity="0.0"
     inkscape:pageshadow="2"
     inkscape:zoom="7.9195959"
     inkscape:cx="43.723807"
     inkscape:cy="-1.3787748"
     inkscape:document-units="mm"
     inkscape:current-layer="layer1"
     showgrid="false"
     inkscape:window-width="653"
     inkscape:window-height="732"
     inkscape:window-x="703"
     inkscape:window-y="334"
     inkscape:window-maximized="0" />
  <metadata
     id="metadata1205">
    <rdf:RDF>
      <cc:Work
         rdf:about="">
        <dc:format>image/svg+xml</dc:format>
        <dc:type
           rdf:resource="http://purl.org/dc/dcmitype/StillImage" />
        <dc:title></dc:title>
      </cc:Work>
    </rdf:RDF>
  </metadata>
  <g
     inkscape:label="Layer 1"
     inkscape:groupmode="layer"
     id="layer1"
     transform="translate(0,-288.53333)">
    <path
       style="display:inline;opacity:1;vector-effect:none;fill:#eea903;fill-opacity:1;stroke:none;stroke-width:0.03659906;stroke-linecap:butt;stroke-linejoin:miter;stroke-miterlimit:4;stroke-dasharray:none;stroke-dashoffset:0;stroke-opacity:1;marker:none"
       d="m 10.580614,289.738 v 1.61277 c 0,0.54117 0.0357,0.90409 0.85096,1.38266 0.815333,0.47857 1.541937,1.0282 1.541937,1.0282 0,0 0.212831,0.15933 0.212831,0.44291 v 0.90418 c 0,0.20638 -0.08879,0.2833 -0.390105,0.2833 -0.301318,0 -0.425258,-0.0792 -0.425258,-0.30127 0,-0.43362 -0.0356,-1.41792 -0.0356,-1.41792 H 10.58062 v 1.86071 c 0,0.61686 0.08758,0.94867 1.051717,0.94867 h 2.040197 c 0.670044,0 1.392604,-0.0538 1.392604,-0.88659 v -1.72792 c 0,-0.54707 -0.03378,-1.12334 -0.850961,-1.59516 -0.817223,-0.47181 -1.622311,-1.07322 -1.754403,-1.16984 -0.126286,-0.0923 -0.08878,-0.26537 -0.08878,-0.4609 v -0.62015 c 0,-0.16711 0.05318,-0.35448 0.354478,-0.35448 0.301318,0 0.390066,0.18281 0.390066,0.4253 v 0.93939 c 0,0 1.8788,0.0709 1.8788,0 v -1.38266 c 0,0 -0.02659,-1.06326 -2.206703,-1.06326 -0.921667,0 -2.206975,-0.15071 -2.206975,1.15206 z M 0.06997863,288.58594 v 7.89627 H 3.6151105 c 1.0634771,0 1.2050744,-1.2141 1.2050744,-1.2141 v -5.29952 c 0,-1.29443 -0.7084015,-1.38265 -2.0204473,-1.38265 -0.9099164,0 -2.72975897,0 -2.72975897,0 z m 6.11526297,0 -1.1346094,7.89627 H 7.153447 l 0.1449042,-1.47993 h 0.8756343 l 0.156918,1.47993 h 1.9132125 l -1.2230546,-7.89627 z m -4.1656345,1.36486 c 0.8432639,0 0.8685756,0.54926 0.8685756,0.54926 v 4.12977 c 0,0 -0.053193,0.54968 -0.8685756,0.54968 z m 5.7075811,0.70895 0.3043706,2.98647 -0.6070928,0.009 z"
       id="path5066"
       inkscape:connector-curvature="0"
       sodipodi:nodetypes="ssccssssccssssscssssscsccsccscssccccccccccccccccccc" />
  </g>
</svg>
