<svg xmlns="http://www.w3.org/2000/svg" width="64" height="64" viewBox="0 0 16.93 16.93"><path d="M2.35 15.05h12.5" fill="none" stroke="#773d04" stroke-width="1.81" stroke-linecap="round"/><path d="M3.23 9.63c.96-.03.67 2 1.64 2 1 0 .96-2 1.75-2 .8 0 .92 2 1.8 2 .87 0 .96-2 1.9-2s.96 1.99 1.84 1.99c.9 0 .79-2 1.66-1.98h.52v5.4H2.8l-.03-5.4z" fill="#f9d8eb"/><path d="M5.64 5.92v-2.5" fill="none" stroke="#646464" stroke-width="1.03" stroke-linecap="round" stroke-linejoin="round"/><path d="M5.64 1.8v-.39" fill="none" stroke="#eeba00" stroke-width="1.03" stroke-linecap="round" stroke-linejoin="round"/><path d="M8.52 5.92v-2.5" fill="none" stroke="#646464" stroke-width="1.03" stroke-linecap="round" stroke-linejoin="round"/><path d="M8.52 1.8v-.39" fill="none" stroke="#eeba00" stroke-width="1.03" stroke-linecap="round" stroke-linejoin="round"/><path d="M11.42 5.92v-2.5" fill="none" stroke="#646464" stroke-width="1.03" stroke-linecap="round" stroke-linejoin="round"/><path d="M11.42 1.8v-.39" fill="none" stroke="#eeba00" stroke-width="1.03" stroke-linecap="round" stroke-linejoin="round"/><path style="marker:none" d="M3.58 6.75a.78.78 0 00-.79.78v.81l.43-.01c.97-.03.68 2 1.65 2 1 0 .96-2 1.75-2 .8 0 .92 2 1.8 2 .87 0 .96-2 1.9-2 .93 0 .96 1.99 1.84 1.99.89 0 .79-2 1.66-1.98h.52v-.8a.78.78 0 00-.79-.77z" fill="#f08ec7"/></svg>