<svg width="64" height="64" viewBox="0 0 16.9 16.9" xmlns="http://www.w3.org/2000/svg"><path d="M1.8 15.7h13.4" fill="none" stroke="#839496" stroke-linecap="round" stroke-width="1.9"/><path d="M2.7 9.9c1 0 .8 2.1 1.8 2.1s1-2.1 1.9-2.1c.8 0 1 2.1 1.9 2.1 1 0 1-2.1 2-2.1s1 2 2 2 .9-2 1.8-2h.5v5.8H2.3V9.9z" fill="#839496"/><g fill="none" stroke-linecap="round" stroke-linejoin="round" stroke-width="1.1"><path d="M5.3 5.7V3.2" stroke="#586e75"/><path d="M5.3 1.4V.9" stroke="#839496"/><path d="M8.4 5.7V3.2" stroke="#586e75"/><path d="M8.4 1.4V.9" stroke="#839496"/><path d="M11.5 5.7V3.2" stroke="#586e75"/><path d="M11.5 1.4V.9" stroke="#839496"/></g><path d="M3.1 6.8a.8.8 0 00-.8.8v.9h.4c1 0 .8 2.1 1.8 2.1s1-2.1 1.9-2.1c.8 0 1 2.1 1.9 2.1 1 0 1-2.1 2-2.1s1 2.1 2 2.1.9-2.1 1.8-2.1h.5v-.9a.8.8 0 00-.8-.8z" fill="#586e75"/></svg>