<svg width="720" height="720" xmlns="http://www.w3.org/2000/svg"><g fill="#002b36"><path d="M273 437l42-25c11 18 25 31 50 31 22 0 35-10 35-25 0-17-14-24-37-34l-13-5c-37-16-62-36-62-78 0-38 30-68 76-68 32 0 56 12 72 41l-39 26c-9-16-19-22-33-22-16 0-25 10-25 22 0 15 9 22 31 31l13 6c44 18 69 38 69 80 0 47-37 72-86 72-47 0-78-23-93-52M69 236h173v48H118v52h109v47H118v55h126v49H69z"/></g><path d="M576 363c-11 0-19 3-25 11-5 7-8 17-8 32s3 25 8 32c6 7 14 10 25 10s19-3 25-10c5-7 8-18 8-32s-3-25-8-32c-6-8-14-11-25-11zm78-117v45c-18-9-38-15-56-15-19 0-34 6-44 16a71 71 0 00-19 46c16-11 34-16 51-16 25 0 45 8 61 22 15 15 23 34 23 57 0 27-9 48-26 63a98 98 0 01-69 24c-32 0-56-11-74-32-17-22-25-52-25-91 0-41 10-72 30-95s48-35 84-35c22 0 44 4 64 11z" color="#000" fill="#002b36"/></svg>
