<?xml version="1.0" encoding="UTF-8" standalone="no"?>
<!-- Generator: Adobe Illustrator 16.0.0, SVG Export Plug-In . SVG Version: 6.00 Build 0)  -->

<svg
   xmlns:dc="http://purl.org/dc/elements/1.1/"
   xmlns:cc="http://creativecommons.org/ns#"
   xmlns:rdf="http://www.w3.org/1999/02/22-rdf-syntax-ns#"
   xmlns:svg="http://www.w3.org/2000/svg"
   xmlns="http://www.w3.org/2000/svg"
   xmlns:sodipodi="http://sodipodi.sourceforge.net/DTD/sodipodi-0.dtd"
   xmlns:inkscape="http://www.inkscape.org/namespaces/inkscape"
   version="1.1"
   id="Layer_1"
   x="0px"
   y="0px"
   width="720px"
   height="720px"
   viewBox="0 0 720 720"
   enable-background="new 0 0 720 720"
   xml:space="preserve"
   inkscape:version="0.91 r13725"
   sodipodi:docname="es6-logo.svg"><metadata
     id="metadata19"><rdf:RDF><cc:Work
         rdf:about=""><dc:format>image/svg+xml</dc:format><dc:type
           rdf:resource="http://purl.org/dc/dcmitype/StillImage" /></cc:Work></rdf:RDF></metadata><defs
     id="defs17" /><sodipodi:namedview
     pagecolor="#ffffff"
     bordercolor="#666666"
     borderopacity="1"
     objecttolerance="10"
     gridtolerance="10"
     guidetolerance="10"
     inkscape:pageopacity="0"
     inkscape:pageshadow="2"
     inkscape:window-width="1031"
     inkscape:window-height="726"
     id="namedview15"
     showgrid="false"
     showguides="true"
     inkscape:guide-bbox="true"
     inkscape:zoom="0.70710678"
     inkscape:cx="358.1046"
     inkscape:cy="325.44695"
     inkscape:window-x="2218"
     inkscape:window-y="116"
     inkscape:window-maximized="0"
     inkscape:current-layer="g7" /><g
     id="g3"><rect
       x="30.174458"
       y="28.997238"
       width="657.2124"
       height="656.99231"
       id="rect5"
       style="fill:#fbde34" /></g><g
     id="g7"
     transform="matrix(0.99175199,0,0,0.99175199,-22.764021,93.693793)"><path
       d="m 303.449,335.518 38.566,-22.329 c 10.152,16.578 23.346,28.758 46.688,28.758 19.624,0 32.14,-9.812 32.14,-23.345 0,-16.239 -12.855,-21.991 -34.508,-31.462 l -11.839,-5.077 c -34.172,-14.546 -56.841,-32.814 -56.841,-71.383 0,-35.523 27.066,-62.59 69.357,-62.59 30.109,0 51.762,10.489 67.322,37.893 l -36.877,23.682 c -8.119,-14.546 -16.913,-20.298 -30.445,-20.298 -13.871,0 -22.668,8.797 -22.668,20.298 0,14.21 8.797,19.962 29.094,28.759 l 11.84,5.074 c 40.26,17.255 62.928,34.846 62.928,74.427 0,42.63 -33.492,65.972 -78.487,65.972 -43.981,-10e-4 -72.401,-20.975 -86.27,-48.379"
       id="path9"
       inkscape:connector-curvature="0"
       style="fill:#343433" /><g
       id="g11"><path
         d="m 115.117,150.257 160.015,0 0,44.238 -114.229,0 0,48.387 100.355,0 0,43.256 -100.355,0 0,50.371 115.77,0 0,45.221 -161.556,0 0,-231.473 z"
         id="path13"
         inkscape:connector-curvature="0"
         style="fill:#343433" /></g></g><text
     xml:space="preserve"
     style="color:#000000;font-style:normal;font-variant:normal;font-weight:bold;font-stretch:normal;font-size:306.22140503px;line-height:125%;font-family:sans-serif;-inkscape-font-specification:'sans-serif Bold';letter-spacing:0px;word-spacing:0px;clip-rule:nonzero;display:inline;overflow:visible;visibility:visible;opacity:1;isolation:auto;mix-blend-mode:normal;color-interpolation:sRGB;color-interpolation-filters:linearRGB;solid-color:#000000;solid-opacity:1;fill:#343433;fill-opacity:1;fill-rule:nonzero;stroke:none;stroke-width:0.99175197;stroke-linecap:butt;stroke-linejoin:miter;stroke-miterlimit:4;stroke-dasharray:none;stroke-dashoffset:0;stroke-opacity:1;color-rendering:auto;image-rendering:auto;shape-rendering:auto;text-rendering:auto;enable-background:accumulate"
     x="444.48572"
     y="469.11163"
     id="text3347"
     sodipodi:linespacing="125%"><tspan
       sodipodi:role="line"
       id="tspan3349"
       x="444.48572"
       y="469.11163">6</tspan></text>
</svg>