<svg fill="#ee8817" viewBox="0 0 2642 1024" xmlns="http://www.w3.org/2000/svg"><path d="M1913 674c-15 0-31-31-62-97-19-41-34-77-44-106 20-26 52-43 81-44 20-1 34 5 44 8 20 6 38-41 37-57 0-19-21-32-46-31-47 2-92 50-138 101-20 20-60 71-68 77l66-367-9-27-190 24 1 39 38-3c30-3 46 14 44 51-6 87-13 161-26 239-14 81-43 159-120 227l-50 46c50-11 96-28 125-44 37-20 102-67 112-125 2-13 15-25 25-36 19 52 41 104 59 144 20 42 39 62 63 61 26-1 75-24 121-92l-8-32c-10 12-46 43-55 44zM433 110c-36 58-65 140-72 198l-64 1-14 43 71-1c-17 127-17 213-40 322-39-30-111-34-183-5C38 705-18 781 5 838s116 74 208 37c50-20 89-52 111-85 35-41 59-97 82-199 22-91 42-170 55-241l72-8 19-35-84 1c16-79 48-233 113-237 33-2 39 75 50 92 0 0 17 11 16-9-3-75 7-135-54-152S475 44 433 110zM195 837c-56 25-114 16-129-19s18-83 75-107c56-24 114-16 129 19s-19 83-75 107z"/><path d="M2595 347c-30 0-60 31-49 60 4 12 15 25 12 47-4 32-87 201-93 206-5-70-10-123-19-194-12-87-31-118-62-118-38 0-88 47-125 108l-4 24c26-32 63-45 69-45 5 0 12 9 19 39 16 77 33 210 33 280-21 27-159 150-749 76-532-70-708-4-996 194 0 0 399-150 764-152 375-2 611 117 822 32a591 591 0 00252-204c49-72 99-130 139-197 25-40 34-72 34-105s-24-51-47-51z"/><path d="M690 664c13 49 48 91 125 90 54 0 111-24 150-57 60-52 98-152 90-232 22-23 44-39 51-39s10 15 14 43c7 55 3 209 18 271 5 17 26 18 38 6 61-61 95-158 140-233 6 31-5 179 36 238 8 10 28 3 36-1 68-33 121-121 162-193 26-46 50-124 50-152 0-34-22-58-49-58-21 0-38 16-46 34-10 25 10 46 10 65 1 57-57 175-78 183l-42-264h-31c-34 28-132 237-140 239 0-43 0-93-4-158-4-74-16-99-45-99-33 0-86 34-126 87-15-54-56-87-123-87-37 0-78 14-114 33-90 48-136 134-128 250-16 19-40 42-64 43-6 0-8-10-1-51 27-152 55-290 89-452 5-27 9-37-1-40-10-4-44 1-70 14-23 12-35 52-40 69-40 140-60 296-82 429-16 95-4 113 40 113s96-50 135-91zm202-278c29-1 56 28 51 95-4 63-11 233-93 234-27 0-53-29-53-97 0-116 39-232 95-232zM2062 756c-51 0-100-28-100-127 0-84 40-173 99-221 32-27 90-56 133-56 58 0 82 36 82 75 0 85-122 130-209 154-5 50 17 107 53 108 33 1 78-22 118-61l16 27c-39 42-142 101-192 101zm67-352c-15 11-47 57-58 145 85-28 114-64 114-110 0-35-18-47-31-47-8 0-17 3-25 12z"/></svg>
