<?xml version="1.0" encoding="UTF-8"?>
<svg width="438.5px" height="438.5px" enable-background="new 0 0 438.549 438.549" version="1.1" viewBox="0 0 438.5 438.5" xml:space="preserve" xmlns="http://www.w3.org/2000/svg">
<circle cx="219.3" cy="220.9" r="218.3" fill="#fffdfd"/><g transform="matrix(.9056 0 0 .9056 20.68 16.75)">
	<path d="m409.1 114.6c-19.61-33.6-46.2-60.19-79.8-79.8s-70.28-29.41-110.1-29.41c-39.78 0-76.47 9.804-110.1 29.41-33.6 19.6-60.19 46.2-79.8 79.8-19.6 33.6-29.41 70.28-29.41 110.1 0 47.78 13.94 90.74 41.83 128.9 27.88 38.16 63.91 64.57 108.1 79.23 5.14 0.954 8.945 0.283 11.42-1.996 2.475-2.282 3.711-5.14 3.711-8.562 0-0.571-0.049-5.708-0.144-15.42-0.098-9.709-0.144-18.18-0.144-25.41l-6.567 1.136c-4.187 0.767-9.469 1.092-15.85 1-6.374-0.089-12.99-0.757-19.84-1.999-6.854-1.231-13.23-4.086-19.13-8.559-5.898-4.473-10.08-10.33-12.56-17.56l-2.855-6.57c-1.903-4.374-4.899-9.233-8.992-14.56-4.093-5.331-8.232-8.945-12.42-10.85l-1.999-1.431c-1.332-0.951-2.568-2.098-3.711-3.429-1.142-1.331-1.997-2.663-2.568-3.997-0.572-1.335-0.098-2.43 1.427-3.289s4.281-1.276 8.28-1.276l5.708 0.853c3.807 0.763 8.516 3.042 14.13 6.851 5.614 3.806 10.23 8.754 13.85 14.84 4.38 7.806 9.657 13.75 15.85 17.85 6.184 4.093 12.42 6.136 18.7 6.136s11.7-0.476 16.27-1.423c4.565-0.952 8.848-2.383 12.85-4.285 1.713-12.76 6.377-22.56 13.99-29.41-10.85-1.14-20.6-2.857-29.26-5.14-8.658-2.286-17.6-5.996-26.84-11.14-9.235-5.137-16.9-11.52-22.98-19.13-6.09-7.614-11.09-17.61-14.99-29.98-3.901-12.37-5.852-26.65-5.852-42.83 0-23.04 7.52-42.64 22.56-58.82-7.044-17.32-6.379-36.73 1.997-58.24 5.52-1.715 13.71-0.428 24.55 3.853 10.85 4.283 18.79 7.952 23.84 10.99 5.046 3.041 9.089 5.618 12.14 7.708 17.7-4.947 35.98-7.421 54.82-7.421s37.12 2.474 54.82 7.421l10.85-6.849c7.419-4.57 16.18-8.758 26.26-12.56 10.09-3.805 17.8-4.853 23.13-3.138 8.562 21.51 9.325 40.92 2.279 58.24 15.04 16.18 22.56 35.79 22.56 58.82 0 16.18-1.958 30.5-5.853 42.97-3.9 12.47-8.941 22.46-15.12 29.98-6.191 7.521-13.9 13.85-23.13 18.99-9.232 5.14-18.18 8.85-26.84 11.14-8.662 2.286-18.42 4.004-29.26 5.146 9.894 8.562 14.84 22.08 14.84 40.54v60.24c0 3.422 1.19 6.279 3.572 8.562 2.379 2.279 6.136 2.95 11.28 1.995 44.16-14.65 80.18-41.06 108.1-79.23 27.88-38.16 41.82-81.13 41.82-128.9-0.01-39.77-9.818-76.45-29.41-110z"/>
</g>















</svg>
