<?xml version="1.0" encoding="UTF-8" standalone="no"?>
<svg
   xmlns:dc="http://purl.org/dc/elements/1.1/"
   xmlns:cc="http://creativecommons.org/ns#"
   xmlns:rdf="http://www.w3.org/1999/02/22-rdf-syntax-ns#"
   xmlns:svg="http://www.w3.org/2000/svg"
   xmlns="http://www.w3.org/2000/svg"
   xmlns:sodipodi="http://sodipodi.sourceforge.net/DTD/sodipodi-0.dtd"
   xmlns:inkscape="http://www.inkscape.org/namespaces/inkscape"
   width="90"
   height="41"
   viewBox="0 0 90 41"
   id="svg2"
   version="1.1"
   inkscape:version="0.91 r13725"
   sodipodi:docname="gulp-logo.svg">
  <metadata
     id="metadata10">
    <rdf:RDF>
      <cc:Work
         rdf:about="">
        <dc:format>image/svg+xml</dc:format>
        <dc:type
           rdf:resource="http://purl.org/dc/dcmitype/StillImage" />
        <dc:title></dc:title>
      </cc:Work>
    </rdf:RDF>
  </metadata>
  <defs
     id="defs8" />
  <sodipodi:namedview
     pagecolor="#ffffff"
     bordercolor="#666666"
     borderopacity="1"
     objecttolerance="10"
     gridtolerance="10"
     guidetolerance="10"
     inkscape:pageopacity="0"
     inkscape:pageshadow="2"
     inkscape:window-width="1920"
     inkscape:window-height="997"
     id="namedview6"
     showgrid="false"
     inkscape:zoom="6.675088"
     inkscape:cx="73.270203"
     inkscape:cy="36.157015"
     inkscape:window-x="1920"
     inkscape:window-y="0"
     inkscape:window-maximized="1"
     inkscape:current-layer="svg2" />
  <path
     d="m 10.628417,32.013677 -0.04106,0 0.02058,0 C 7.5810763,32.011538 5.0047529,31.550039 3.9952186,30.901132 l 1.2372229,1.979544 0.4516684,6.163841 c 0,0 4.9310511,3.483888 9.8059521,0 l 0.357748,-6.230931 1.066093,-1.743802 c -1.166004,0.558699 -3.548812,0.942035 -6.305966,0.943996 l 0.02058,-1.03e-4 z m 6.682288,-8.426707 c -0.21531,0.162561 -0.425759,0.288689 -0.630849,0.377454 -0.205395,0.08907 -0.425136,0.133765 -0.659539,0.133765 -0.219742,0 -0.389527,-0.0481 -0.509674,-0.144086 -0.119932,-0.09589 -0.180005,-0.227588 -0.180005,-0.395517 l 0,-0.03849 c 0,-0.01187 10e-4,-0.02674 0.0041,-0.04376 0.01141,-0.102595 0.05645,-0.221085 0.134492,-0.354541 0.07805,-0.133663 0.171945,-0.272382 0.28177,-0.416056 0.109825,-0.143983 0.226965,-0.289516 0.35134,-0.436699 0.124374,-0.147183 0.239151,-0.286522 0.344941,-0.418843 0.105382,-0.131494 0.192904,-0.252255 0.262269,-0.362074 0.06959,-0.109614 0.104241,-0.198585 0.104241,-0.267118 0,-0.04098 -0.01457,-0.07359 -0.0433,-0.09774 -0.02904,-0.02364 -0.07682,-0.03592 -0.143162,-0.03592 -0.115704,0 -0.235015,0.03004 -0.35784,0.0899 -0.122928,0.05986 -0.244521,0.140474 -0.364453,0.241521 -0.119932,0.101042 -0.237082,0.216749 -0.351339,0.346696 -0.114053,0.130256 -0.221188,0.265467 -0.320896,0.405837 -0.09975,0.140475 -0.190734,0.281775 -0.2731,0.423901 -0.08232,0.142126 -0.152658,0.273104 -0.210449,0.392935 l -0.07377,0.15926 c -0.03199,0.06853 -0.06663,0.145738 -0.104139,0.2312 -0.0376,0.08567 -0.07744,0.174019 -0.119209,0.264434 -0.04188,0.09094 -0.08018,0.176599 -0.114878,0.2569 l -0.09302,0.215821 c -0.02771,0.06317 -0.04717,0.107033 -0.05859,0.131081 -0.01457,0.03086 -0.03831,0.08887 -0.07152,0.174536 -0.03322,0.08567 -0.07153,0.185888 -0.114869,0.300559 l -0.136662,0.362282 c -0.04758,0.126643 -0.09251,0.246577 -0.134481,0.359495 -0.04188,0.113019 -0.07886,0.212414 -0.110345,0.298081 -0.03199,0.08546 -0.05237,0.143777 -0.06103,0.174432 -0.02873,0.08907 -0.06276,0.172883 -0.101684,0.251842 -0.03912,0.07865 -0.08385,0.148009 -0.134594,0.20808 -0.05044,0.05987 -0.10847,0.107859 -0.173596,0.143777 -0.06511,0.03623 -0.138109,0.05398 -0.218927,0.05398 -0.104241,0 -0.190112,-0.02498 -0.258234,-0.07462 -0.06776,-0.04955 -0.101786,-0.144706 -0.101786,-0.285078 0,-0.06853 0.0092,-0.138823 0.02598,-0.21066 0.01742,-0.07194 0.03923,-0.143157 0.06521,-0.213137 0.02598,-0.0705 0.05288,-0.138823 0.08008,-0.205396 0.02761,-0.06678 0.05298,-0.131185 0.07581,-0.192597 0.156265,-0.342465 0.315322,-0.685961 0.47716,-1.030077 0.161839,-0.344116 0.317279,-0.684825 0.46632,-1.022233 0.03118,-0.07039 0.0595,-0.139338 0.08966,-0.209214 l -0.0268,0.02684 c -0.188054,0.181761 -0.375181,0.341846 -0.561585,0.480359 -0.186719,0.13872 -0.371778,0.249159 -0.555186,0.33142 -0.18352,0.08206 -0.362282,0.123134 -0.535685,0.123134 -0.118485,0 -0.217469,-0.01879 -0.296942,-0.05646 -0.07957,-0.03767 -0.143162,-0.08907 -0.190948,-0.153995 -0.04779,-0.06513 -0.08182,-0.142125 -0.101979,-0.2312 -0.0071,-0.03044 -0.011,-0.06235 -0.01549,-0.09392 -0.05074,0.03953 -0.10198,0.07803 -0.153586,0.114464 -0.179078,0.126645 -0.355578,0.22862 -0.529174,0.305617 -0.173403,0.077 -0.329566,0.115496 -0.468286,0.115496 -0.138925,0 -0.251633,-0.04613 -0.338441,-0.138719 -0.086707,-0.09238 -0.1300497,-0.249984 -0.1300497,-0.472514 0,-0.157608 0.02323,-0.340916 0.069386,-0.549718 -0.075193,0.133662 -0.1691712,0.268872 -0.2817775,0.405838 -0.112912,0.137068 -0.2415147,0.26206 -0.3860221,0.375183 -0.144701,0.113019 -0.3066414,0.20457 -0.4858212,0.274756 -0.1793937,0.07029 -0.3745699,0.105381 -0.5855387,0.105381 -0.095469,0 -0.187127,-0.01177 -0.2754739,-0.03602 -0.088133,-0.02384 -0.1655574,-0.06513 -0.2320289,-0.123238 -0.066533,-0.05801 -0.1199321,-0.135933 -0.1604936,-0.23378 -0.040551,-0.09754 -0.060725,-0.220156 -0.060725,-0.367339 0,-0.0034 0.00611,-0.05563 0.017321,-0.156886 0.011411,-0.101042 0.048397,-0.260201 0.110538,-0.477777 0.062253,-0.217266 0.1583336,-0.499144 0.2883831,-0.845117 0.1302533,-0.346077 0.3137735,-0.765436 0.550958,-1.25849 0.060725,-0.130255 0.1308748,-0.223561 0.2102454,-0.280019 0.079574,-0.05656 0.1655574,-0.08484 0.2580409,-0.08484 0.040551,0 0.082427,0.0061 0.125811,0.01796 0.043506,0.01207 0.083854,0.03076 0.1215928,0.05656 0.037495,0.02559 0.067857,0.05821 0.091088,0.09754 0.023027,0.03933 0.034642,0.08464 0.034642,0.136036 0,0.03426 -0.00408,0.06688 -0.013143,0.09754 -0.01457,0.05842 -0.045544,0.134487 -0.093125,0.228618 -0.047785,0.09434 -0.1034161,0.202197 -0.1670959,0.323783 -0.063476,0.121689 -0.130885,0.252565 -0.201585,0.393245 -0.071016,0.140165 -0.1366518,0.286006 -0.1973463,0.436493 -0.060725,0.150795 -0.1128101,0.303965 -0.1561634,0.459819 -0.043404,0.155853 -0.067959,0.307475 -0.073665,0.454555 0,0.06172 0.014366,0.118179 0.043302,0.16958 0.028834,0.0514 0.07662,0.077 0.1431624,0.077 0.1878505,0 0.3671322,-0.06172 0.5378451,-0.184857 0.1705091,-0.12334 0.3280174,-0.276614 0.4727184,-0.459818 0.1445074,-0.183103 0.2753822,-0.380241 0.3925194,-0.590901 0.117151,-0.21066 0.214688,-0.403154 0.292713,-0.577999 0.05502,-0.116322 0.103427,-0.241521 0.145333,-0.374977 0.04188,-0.133662 0.08752,-0.256796 0.136652,-0.369918 0.04911,-0.113123 0.105382,-0.207254 0.169164,-0.282601 0.06348,-0.07524 0.143162,-0.112916 0.238529,-0.112916 0.104354,0 0.186618,0.03943 0.247302,0.11818 0.06072,0.07885 0.09088,0.172987 0.09088,0.282393 0,0.06172 -0.01936,0.146565 -0.05828,0.254423 -0.03892,0.10786 -0.08813,0.2312 -0.147696,0.36992 -0.0593,0.138719 -0.123549,0.286831 -0.192904,0.444337 -0.06939,0.157608 -0.13387,0.317693 -0.192914,0.480357 -0.0593,0.162666 -0.108368,0.321925 -0.147493,0.477779 -0.03913,0.155853 -0.05838,0.300559 -0.05838,0.434015 0,0.123341 0.06348,0.185063 0.190734,0.185063 0.08966,0 0.200963,-0.03086 0.334009,-0.09248 0.133034,-0.06162 0.27258,-0.148216 0.418524,-0.25948 0.03658,-0.02787 0.07315,-0.05687 0.109621,-0.08732 0.04086,-0.168136 0.08844,-0.323576 0.144079,-0.464876 0.101175,-0.267325 0.203857,-0.532586 0.307997,-0.796298 0.104037,-0.263815 0.199404,-0.505336 0.286111,-0.724665 l 1.314117,-3.313585 c 0.05206,-0.133559 0.122205,-0.227794 0.210246,-0.2826 0.08823,-0.0547 0.177223,-0.08216 0.266915,-0.08216 0.08946,0 0.171131,0.02911 0.244928,0.08732 0.07377,0.05832 0.11064,0.152448 0.11064,0.2826 0,0.06162 -0.01233,0.126747 -0.03688,0.195178 -0.02455,0.06864 -0.05563,0.142126 -0.09333,0.220982 -0.07214,0.161014 -0.158221,0.357946 -0.25803,0.590797 -0.09985,0.232954 -0.206843,0.486345 -0.320896,0.760378 -0.114155,0.274033 -0.231305,0.559111 -0.351237,0.855438 -0.119932,0.296328 -0.237083,0.584811 -0.351238,0.865554 -0.114053,0.281051 -0.22129,0.547137 -0.320896,0.798876 -0.09975,0.251636 -0.18568,0.470141 -0.25803,0.654997 -0.03199,0.07886 -0.06287,0.17051 -0.09313,0.274962 -0.03046,0.104454 -0.04554,0.197758 -0.04554,0.28002 0,0.0512 0.0092,0.09237 0.02598,0.123135 0.01732,0.03066 0.05054,0.04634 0.09985,0.04634 0.06083,0 0.136448,-0.02137 0.227587,-0.0643 0.09129,-0.04273 0.189297,-0.09939 0.294883,-0.169684 0.105586,-0.07029 0.215513,-0.150589 0.329556,-0.241521 0.114267,-0.09082 0.227801,-0.184856 0.340509,-0.282393 0.112912,-0.09764 0.220566,-0.195488 0.323157,-0.292922 0.102601,-0.09744 0.194565,-0.187333 0.275586,-0.269595 0.01895,-0.01972 0.04167,-0.03364 0.06663,-0.04428 0.0488,-0.14574 0.09333,-0.28869 0.132627,-0.428236 0.02323,-0.06182 0.05502,-0.148938 0.09557,-0.262061 0.04035,-0.113226 0.08671,-0.224387 0.13872,-0.334 0.05196,-0.10951 0.11064,-0.204571 0.175563,-0.285078 0.06511,-0.0804 0.135317,-0.120761 0.210459,-0.120761 0.115704,0 0.199619,0.02663 0.251632,0.07957 0.05207,0.05326 0.07805,0.131081 0.07805,0.233986 0,0.02044 -0.0031,0.05305 -0.0092,0.09744 -0.0061,0.04448 -0.01294,0.09186 -0.0216,0.1413 -0.0092,0.04944 -0.01814,0.09681 -0.02802,0.1413 -0.01039,0.04459 -0.01946,0.0769 -0.02812,0.09744 0.106717,-0.116529 0.222421,-0.232024 0.346795,-0.346592 0.124375,-0.114671 0.252977,-0.218505 0.385921,-0.310881 0.133034,-0.09248 0.268871,-0.167723 0.407795,-0.226142 0.138822,-0.05811 0.277542,-0.08722 0.416262,-0.08722 0.09537,0 0.190123,0.01372 0.284043,0.04108 0.09394,0.02735 0.178151,0.0677 0.251643,0.120658 0.07377,0.05326 0.13386,0.119934 0.180005,0.200338 0.04605,0.0804 0.06939,0.173812 0.06939,0.28002 0,0.140474 -0.03546,0.290238 -0.106208,0.449497 -0.07081,0.15926 -0.159668,0.319345 -0.266701,0.480049 -0.106931,0.16122 -0.222635,0.317692 -0.346806,0.470243 -0.124364,0.152447 -0.240689,0.29096 -0.349169,0.415953 -0.108582,0.125302 -0.19972,0.231199 -0.273314,0.318622 -0.07356,0.08752 -0.112086,0.146564 -0.114878,0.177425 0,0.04098 0.01314,0.07442 0.03913,0.100217 0.02598,0.02559 0.06939,0.03849 0.130049,0.03849 0.04931,0 0.121583,-0.02746 0.217062,-0.08226 0.09537,-0.05481 0.229237,-0.149764 0.401193,-0.285078 0.171946,-0.135417 0.390454,-0.316867 0.655098,-0.54466 0.181451,-0.15606 0.393755,-0.342052 0.633212,-0.553847 l 1.224018,-10.621658 -0.0082,0 c -1.24136,0.594409 -4.728855,1.222261 -8.837601,1.222261 -4.1080291,0 -7.5957282,-0.627852 -8.8372916,-1.222261 l -0.010189,0 0.9299601,9.749292 C 2.823154,20.815458 2.8779801,20.647735 2.9387766,20.480631 3.063049,20.138167 3.2070266,19.803341 3.3703119,19.476255 3.5336991,19.149273 3.711534,18.840044 3.9038267,18.54898 4.0960074,18.257916 4.3006795,17.989869 4.5175374,17.744942 4.7344972,17.500119 4.95702,17.289459 5.1855339,17.113066 5.413956,16.936777 5.644528,16.798882 5.8772804,16.699487 c 0.2328542,-0.09929 0.4634262,-0.148938 0.6918381,-0.148938 0.2630946,0 0.5176204,0.07194 0.7633736,0.215717 0.2457533,0.143881 0.4755101,0.376835 0.6896782,0.69876 0.04911,0.07194 0.080186,0.144706 0.093125,0.218297 0.013143,0.0737 0.019562,0.143055 0.019562,0.20808 0,0.154099 -0.036883,0.275788 -0.110538,0.364759 -0.073665,0.08907 -0.1612272,0.133558 -0.2623711,0.133558 -0.092616,0 -0.1785583,-0.04881 -0.2581428,-0.146357 -0.079574,-0.09754 -0.16844,-0.237083 -0.2668025,-0.41874 C 7.1444873,17.660204 7.0425385,17.541301 6.931277,17.467606 6.8199137,17.394012 6.6992481,17.357168 6.5690967,17.357168 c -0.2024,0 -0.4185345,0.08391 -0.6483831,0.251739 -0.2299606,0.167825 -0.4576594,0.389633 -0.6830758,0.665318 -0.2256305,0.275684 -0.4417548,0.590797 -0.6484952,0.945234 -0.2067404,0.354436 -0.3896289,0.717544 -0.5486859,1.089114 -0.1590468,0.371881 -0.2854895,0.738188 -0.3794096,1.099437 -0.094042,0.36125 -0.1409922,0.685961 -0.1409922,0.973515 0,0.09609 0.00611,0.194662 0.019359,0.295296 0.013143,0.101042 0.037597,0.192597 0.073767,0.274962 0.03617,0.08226 0.08528,0.149661 0.1474927,0.202816 0.062253,0.05336 0.1409922,0.07957 0.2363592,0.07957 0.107033,0 0.2284221,-0.03591 0.3643505,-0.107859 0.1358266,-0.07163 0.2769208,-0.165968 0.4228648,-0.282291 0.1460561,-0.116631 0.2928254,-0.248333 0.4403181,-0.395722 0.1475946,-0.147286 0.2848679,-0.296122 0.4120238,-0.446917 0.1271661,-0.15059 0.2399762,-0.295296 0.3382368,-0.434015 0.098322,-0.138823 0.1720578,-0.259584 0.22129,-0.362385 l 0.4033634,-1.207192 c 0.04911,-0.130049 0.1134316,-0.22253 0.193006,-0.277439 0.079472,-0.0547 0.1612169,-0.08216 0.2451317,-0.08216 0.040348,0 0.080797,0.0069 0.1213789,0.02054 0.040551,0.01372 0.076619,0.03509 0.1084798,0.0642 0.031891,0.02911 0.057057,0.06678 0.075906,0.11302 0.018747,0.04624 0.028019,0.100217 0.028019,0.161735 0,0.164421 -0.014468,0.318416 -0.043302,0.4624 -0.028834,0.143983 -0.065718,0.284251 -0.1105483,0.421423 -0.044932,0.136758 -0.094756,0.274652 -0.1496629,0.413475 -0.054917,0.13872 -0.1084697,0.283427 -0.1604935,0.434222 -0.011412,0.01714 -0.0324,0.07101 -0.062865,0.16153 -0.030363,0.09094 -0.067042,0.204673 -0.1105482,0.341845 -0.043302,0.137068 -0.090374,0.290238 -0.1409821,0.459819 -0.050536,0.169581 -0.1026009,0.342361 -0.1560614,0.518754 -0.053695,0.176393 -0.1048731,0.349483 -0.1540034,0.518857 -0.04911,0.169478 -0.093329,0.322751 -0.1322095,0.459715 -0.039125,0.136863 -0.071525,0.251637 -0.097609,0.344117 -0.025981,0.09248 -0.041876,0.147286 -0.047683,0.164626 -0.01457,0.0545 -0.037699,0.115496 -0.069386,0.182379 -0.031891,0.06668 -0.069487,0.130257 -0.112912,0.190121 -0.043404,0.05987 -0.091088,0.109613 -0.1431625,0.148834 -0.052065,0.03943 -0.1054844,0.05904 -0.1604936,0.05904 -0.092514,0 -0.1597803,-0.03096 -0.2015849,-0.09248 -0.041978,-0.06172 -0.062865,-0.174638 -0.062865,-0.339058 l 0,-0.07184 c 0,-0.02394 0.00102,-0.04975 0.00408,-0.077 0.00306,-0.0548 0.024555,-0.157608 0.065106,-0.308404 0.040551,-0.150589 0.088846,-0.320789 0.1453225,-0.51091 0.056344,-0.190223 0.1171505,-0.387052 0.1821753,-0.591003 0.065004,-0.203952 0.1235389,-0.386021 0.1756646,-0.547138 -0.1533716,0.171232 -0.3195505,0.341742 -0.4988322,0.511116 -0.1792817,0.169581 -0.3630057,0.321924 -0.5508561,0.457341 -0.1879523,0.135417 -0.3773515,0.245753 -0.5681872,0.331421 -0.190846,0.08546 -0.3744681,0.128399 -0.5508561,0.128399 -0.2024,0 -0.3766281,-0.04469 -0.522674,-0.133663 -0.026389,-0.0161 -0.051249,-0.03427 -0.076008,-0.05233 l 0.5908979,6.194909 0.343912,0.550131 c 1.0095343,0.648907 3.5858577,1.110377 6.612718,1.112545 2.757154,-0.0021 5.139962,-0.385196 6.306067,-0.943996 l 0.439697,-0.71868 0.848521,-7.36319 c -0.0702,0.0643 -0.138302,0.127057 -0.203643,0.187953 -0.243889,0.226968 -0.473126,0.421217 -0.688639,0.583985 z M 10.686941,9.6600872 c -4.8916308,0 -8.8570103,0.4596128 -8.8570103,1.0266698 0,0.566749 3.9653795,1.400305 8.8570103,1.400305 4.89214,0 8.856898,-0.833556 8.856898,-1.400305 1.02e-4,-0.567057 -3.964758,-1.0266698 -8.856898,-1.0266698 z m 1.579586,1.6198418 c -0.566332,0 -1.070127,-0.171232 -1.070127,-0.318725 0,-0.05656 0.07458,-0.116529 0.197764,-0.169065 0.06837,-0.125818 0.432361,-0.222014 0.872363,-0.222014 0.433186,0 0.793197,0.09321 0.86947,0.21613 0.135419,0.05398 0.21913,0.116323 0.21913,0.175052 0,0.14739 -0.522165,0.318622 -1.0886,0.318622 z m 0,-0.180419 c 0.488613,0 0.884957,-0.118489 0.884957,-0.264744 0,-0.01662 -0.0061,-0.03282 -0.01549,-0.04861 -0.204458,-0.08154 -0.528451,-0.143674 -0.86947,-0.143674 -0.349067,0 -0.673987,0.06513 -0.872363,0.149661 -0.0071,0.01394 -0.01253,0.02807 -0.01253,0.04273 -1.02e-4,0.146151 0.396028,0.26464 0.884855,0.26464 z m 6.453876,-9.6397817 -1.183457,-0.8892925 -4.763435,5.0122823 -1.358398,5.2453399 1.716757,0 1.328372,-4.6526847 z"
     id="path4"
     inkscape:connector-curvature="0"
     style="fill:#e94b4b" />
  <g
     id="g3"
     transform="matrix(0.25467284,0,0,0.25467284,23.640664,1.3548815)">
    <path
       style="fill:#da4648;stroke:#ffffff;stroke-miterlimit:10"
       inkscape:connector-curvature="0"
       stroke-miterlimit="10"
       d="m 67.533,79.118 c -0.176,0.26 -0.494,1.079 -0.955,2.456 -0.461,1.379 -1.021,3.107 -1.68,5.188 -0.658,2.079 -1.373,4.405 -2.14,6.979 -0.769,2.573 -1.559,5.199 -2.371,7.877 -0.812,2.68 -1.591,5.304 -2.337,7.878 -0.748,2.573 -1.416,4.899 -2.008,6.98 -0.593,2.078 -1.086,3.821 -1.482,5.226 -0.395,1.403 -0.637,2.234 -0.724,2.496 -0.22,0.831 -0.571,1.754 -1.053,2.769 -0.484,1.013 -1.054,1.976 -1.712,2.886 -0.659,0.909 -1.382,1.663 -2.173,2.262 -0.791,0.597 -1.603,0.896 -2.436,0.896 -1.406,0 -2.426,-0.468 -3.062,-1.403 -0.638,-0.937 -0.955,-2.651 -0.955,-5.147 0,-0.365 0,-0.729 0,-1.093 0,-0.364 0.021,-0.754 0.066,-1.169 0.043,-0.832 0.373,-2.394 0.988,-4.681 0.614,-2.288 1.35,-4.874 2.206,-7.76 0.856,-2.886 1.778,-5.875 2.766,-8.969 0.988,-3.094 1.876,-5.862 2.667,-8.308 -2.328,2.602 -4.851,5.188 -7.572,7.761 -2.723,2.574 -5.51,4.888 -8.363,6.941 -2.854,2.056 -5.729,3.732 -8.626,5.031 -2.897,1.298 -5.686,1.95 -8.363,1.95 -3.073,0 -5.718,-0.677 -7.935,-2.028 C 8.062,112.783 6.23,111.016 4.781,108.832 3.332,106.648 2.256,104.179 1.554,101.423 0.851,98.667 0.5,95.912 0.5,93.156 c 0,-0.362 0,-0.702 0,-1.015 0,-0.311 0.021,-0.623 0.066,-0.935 C 0.829,86.214 1.542,81.093 2.706,75.841 3.869,70.589 5.394,65.363 7.283,60.164 9.17,54.966 11.354,49.882 13.835,44.916 16.314,39.951 19.014,35.258 21.934,30.838 24.853,26.42 27.959,22.351 31.251,18.632 34.543,14.915 37.923,11.717 41.392,9.039 44.859,6.362 48.36,4.269 51.894,2.761 55.427,1.254 58.929,0.5 62.396,0.5 c 3.994,0 7.858,1.092 11.589,3.275 3.73,2.184 7.22,5.721 10.47,10.607 0.745,1.092 1.218,2.197 1.415,3.314 0.197,1.119 0.296,2.171 0.296,3.159 0,2.339 -0.56,4.187 -1.679,5.538 -1.119,1.353 -2.447,2.028 -3.984,2.028 -1.405,0 -2.71,-0.741 -3.918,-2.223 -1.208,-1.482 -2.558,-3.6 -4.05,-6.356 -1.405,-2.496 -2.953,-4.302 -4.642,-5.42 -1.69,-1.118 -3.523,-1.677 -5.499,-1.677 -3.073,0 -6.354,1.275 -9.844,3.822 -3.49,2.548 -6.947,5.916 -10.371,10.101 -3.425,4.186 -6.706,8.968 -9.845,14.35 -3.138,5.382 -5.916,10.893 -8.33,16.535 -2.415,5.642 -4.335,11.206 -5.761,16.689 -1.427,5.486 -2.14,10.412 -2.14,14.781 0,1.455 0.099,2.951 0.296,4.483 0.198,1.534 0.57,2.926 1.12,4.173 0.548,1.248 1.294,2.275 2.239,3.08 0.944,0.809 2.14,1.209 3.589,1.209 1.624,0 3.468,-0.545 5.531,-1.638 2.062,-1.091 4.203,-2.521 6.42,-4.289 2.216,-1.768 4.444,-3.769 6.684,-6.006 2.239,-2.234 4.323,-4.496 6.255,-6.785 1.931,-2.287 3.644,-4.485 5.136,-6.591 1.492,-2.105 2.611,-3.938 3.358,-5.498 l 6.124,-18.329 c 0.746,-1.975 1.722,-3.378 2.93,-4.211 1.207,-0.831 2.447,-1.248 3.721,-1.248 0.614,0 1.228,0.105 1.843,0.312 0.614,0.208 1.163,0.533 1.646,0.975 0.483,0.442 0.866,1.014 1.152,1.716 0.285,0.702 0.428,1.521 0.428,2.456 0,2.496 -0.22,4.836 -0.658,7.02 -0.439,2.186 -0.999,4.316 -1.679,6.396 -0.681,2.079 -1.438,4.173 -2.271,6.278 -0.833,2.106 -1.645,4.304 -2.434,6.592 z"
       id="path5" />
    <path
       style="fill:#da4648;stroke:#ffffff;stroke-miterlimit:10"
       inkscape:connector-curvature="0"
       stroke-miterlimit="10"
       d="m 150.565,94.405 c -1.933,2.6 -4.182,5.134 -6.749,7.604 -2.568,2.47 -5.214,4.667 -7.935,6.591 -2.723,1.923 -5.4,3.47 -8.033,4.64 -2.634,1.17 -5.004,1.755 -7.111,1.755 -2.107,0 -3.819,-0.702 -5.137,-2.105 -1.316,-1.403 -1.975,-3.795 -1.975,-7.176 0,-2.392 0.351,-5.174 1.053,-8.346 -1.142,2.029 -2.567,4.083 -4.279,6.162 -1.713,2.08 -3.666,3.978 -5.861,5.694 -2.195,1.716 -4.653,3.106 -7.375,4.171 -2.722,1.065 -5.686,1.6 -8.889,1.6 -1.448,0 -2.843,-0.183 -4.182,-0.547 -1.34,-0.363 -2.513,-0.986 -3.522,-1.871 -1.011,-0.883 -1.822,-2.065 -2.437,-3.549 -0.615,-1.48 -0.922,-3.34 -0.922,-5.576 0,-0.052 0.088,-0.845 0.264,-2.379 0.174,-1.533 0.734,-3.951 1.679,-7.254 0.943,-3.3 2.404,-7.577 4.379,-12.829 1.976,-5.252 4.763,-11.62 8.362,-19.107 0.922,-1.976 1.986,-3.393 3.193,-4.251 1.208,-0.858 2.513,-1.287 3.918,-1.287 0.615,0 1.251,0.092 1.91,0.272 0.659,0.184 1.272,0.468 1.844,0.858 0.57,0.39 1.031,0.885 1.383,1.481 0.352,0.598 0.527,1.286 0.527,2.067 0,0.52 -0.066,1.015 -0.198,1.48 -0.22,0.887 -0.691,2.042 -1.416,3.471 -0.725,1.431 -1.569,3.07 -2.534,4.915 -0.967,1.846 -1.987,3.835 -3.062,5.967 -1.076,2.132 -2.074,4.341 -2.996,6.629 -0.922,2.289 -1.712,4.615 -2.37,6.98 -0.659,2.366 -1.032,4.667 -1.119,6.901 0,0.937 0.219,1.795 0.658,2.574 0.438,0.78 1.162,1.171 2.173,1.171 2.853,0 5.574,-0.937 8.165,-2.809 2.59,-1.871 4.981,-4.198 7.178,-6.98 2.194,-2.78 4.181,-5.771 5.958,-8.969 1.778,-3.198 3.261,-6.122 4.445,-8.774 0.834,-1.768 1.568,-3.666 2.206,-5.694 0.636,-2.027 1.327,-3.898 2.074,-5.615 0.746,-1.716 1.602,-3.145 2.567,-4.289 0.965,-1.144 2.173,-1.716 3.622,-1.716 1.58,0 2.83,0.599 3.753,1.793 0.922,1.197 1.382,2.626 1.382,4.29 0,0.937 -0.295,2.223 -0.888,3.86 -0.594,1.639 -1.34,3.511 -2.24,5.616 -0.899,2.105 -1.876,4.354 -2.929,6.746 -1.054,2.393 -2.032,4.823 -2.93,7.292 -0.901,2.471 -1.646,4.889 -2.239,7.255 -0.593,2.365 -0.889,4.562 -0.889,6.589 0,1.873 0.965,2.808 2.896,2.808 1.36,0 3.051,-0.468 5.069,-1.402 2.021,-0.937 4.138,-2.25 6.355,-3.939 2.216,-1.689 4.433,-3.679 6.65,-5.966 2.216,-2.288 4.182,-4.758 5.893,-7.41 l 0.661,10.608 z"
       id="path7" />
    <path
       style="fill:#da4648;stroke:#ffffff;stroke-miterlimit:10"
       inkscape:connector-curvature="0"
       stroke-miterlimit="10"
       d="m 152.607,90.503 c -0.483,1.197 -0.955,2.588 -1.416,4.174 -0.462,1.586 -0.691,3.002 -0.691,4.25 0,0.779 0.132,1.403 0.395,1.872 0.264,0.468 0.769,0.702 1.516,0.702 0.921,0 2.073,-0.324 3.456,-0.975 1.382,-0.65 2.874,-1.509 4.478,-2.574 1.603,-1.064 3.271,-2.287 5.004,-3.666 1.733,-1.377 3.457,-2.808 5.169,-4.289 1.713,-1.483 3.347,-2.964 4.906,-4.445 1.558,-1.483 2.952,-2.848 4.182,-4.095 0.351,-0.364 0.767,-0.625 1.251,-0.78 0.481,-0.156 0.899,-0.234 1.251,-0.234 0.877,0 1.603,0.364 2.173,1.093 0.569,0.728 0.855,1.688 0.855,2.886 0,1.091 -0.308,2.313 -0.921,3.665 -0.615,1.353 -1.69,2.679 -3.228,3.977 -2.81,3.069 -5.64,5.98 -8.494,8.736 -2.854,2.756 -5.695,5.186 -8.526,7.291 -2.832,2.107 -5.642,3.783 -8.429,5.032 -2.788,1.247 -5.498,1.871 -8.133,1.871 -1.8,0 -3.304,-0.286 -4.51,-0.857 -1.209,-0.573 -2.173,-1.353 -2.897,-2.339 -0.725,-0.989 -1.241,-2.158 -1.548,-3.511 -0.308,-1.352 -0.46,-2.78 -0.46,-4.289 0,-2.548 0.318,-5.16 0.954,-7.84 0.636,-2.676 1.393,-5.134 2.271,-7.369 1.536,-4.057 3.096,-8.084 4.676,-12.089 1.579,-4.003 3.028,-7.669 4.347,-10.998 l 19.95,-50.305 c 0.79,-2.028 1.854,-3.458 3.194,-4.29 1.339,-0.831 2.688,-1.248 4.05,-1.248 1.359,0 2.601,0.442 3.721,1.326 1.118,0.885 1.679,2.314 1.679,4.29 0,0.936 -0.188,1.924 -0.561,2.963 -0.373,1.042 -0.845,2.158 -1.415,3.354 -1.098,2.444 -2.403,5.434 -3.918,8.968 -1.515,3.537 -3.14,7.384 -4.874,11.543 -1.733,4.161 -3.512,8.489 -5.332,12.986 -1.823,4.497 -3.601,8.878 -5.335,13.142 -1.733,4.265 -3.357,8.306 -4.872,12.128 -1.515,3.822 -2.821,7.137 -3.918,9.944 z"
       id="path9" />
    <path
       style="fill:#da4648;stroke:#ffffff;stroke-miterlimit:10"
       inkscape:connector-curvature="0"
       stroke-miterlimit="10"
       d="m 245.912,76.387 c 0.615,-0.416 1.187,-0.753 1.713,-1.015 0.526,-0.258 1.031,-0.39 1.515,-0.39 0.964,0 1.689,0.43 2.173,1.287 0.482,0.858 0.724,1.911 0.724,3.159 0,1.354 -0.295,2.729 -0.889,4.134 -0.592,1.403 -1.481,2.573 -2.667,3.509 -4.698,4.16 -8.89,7.955 -12.575,11.388 -3.688,3.431 -7.168,6.383 -10.438,8.853 -3.27,2.47 -6.463,4.381 -9.58,5.732 -3.117,1.351 -6.453,2.027 -10.01,2.027 -3.336,0 -5.915,-0.729 -7.736,-2.184 -1.822,-1.455 -2.733,-3.457 -2.733,-6.006 0,-0.207 0,-0.401 0,-0.585 0,-0.181 0.021,-0.402 0.066,-0.663 0.174,-1.559 0.856,-3.354 2.041,-5.381 1.186,-2.028 2.612,-4.134 4.28,-6.317 1.668,-2.183 3.445,-4.394 5.334,-6.63 1.887,-2.234 3.631,-4.354 5.235,-6.357 1.602,-2 2.93,-3.833 3.982,-5.498 1.055,-1.663 1.581,-3.014 1.581,-4.055 0,-0.624 -0.221,-1.117 -0.658,-1.482 -0.438,-0.363 -1.164,-0.545 -2.173,-0.545 -1.757,0 -3.566,0.454 -5.432,1.365 -1.867,0.908 -3.711,2.131 -5.532,3.664 -1.822,1.535 -3.601,3.29 -5.334,5.265 -1.734,1.977 -3.357,4.03 -4.873,6.162 -1.515,2.133 -2.896,4.276 -4.148,6.435 -1.251,2.157 -2.316,4.146 -3.193,5.966 -0.263,0.572 -0.637,1.379 -1.12,2.418 -0.483,1.041 -1.01,2.211 -1.579,3.511 -0.572,1.299 -1.175,2.64 -1.812,4.015 -0.637,1.379 -1.218,2.68 -1.744,3.9 -0.527,1.222 -1,2.312 -1.416,3.276 -0.418,0.961 -0.715,1.624 -0.889,1.988 -0.221,0.468 -0.583,1.351 -1.087,2.651 -0.505,1.3 -1.086,2.82 -1.746,4.563 -0.657,1.741 -1.35,3.574 -2.073,5.498 -0.723,1.924 -1.404,3.744 -2.041,5.46 -0.637,1.715 -1.197,3.223 -1.679,4.523 -0.483,1.299 -0.791,2.184 -0.923,2.651 -0.438,1.352 -0.955,2.625 -1.547,3.822 -0.593,1.195 -1.273,2.248 -2.041,3.159 -0.768,0.908 -1.647,1.637 -2.634,2.184 -0.989,0.546 -2.097,0.818 -3.325,0.818 -1.581,0 -2.886,-0.378 -3.919,-1.131 -1.03,-0.754 -1.547,-2.197 -1.547,-4.329 0,-1.04 0.131,-2.105 0.395,-3.196 0.265,-1.093 0.594,-2.173 0.988,-3.238 0.395,-1.066 0.802,-2.105 1.218,-3.118 0.418,-1.015 0.803,-1.989 1.152,-2.926 2.371,-5.2 4.785,-10.412 7.243,-15.638 2.459,-5.226 4.818,-10.397 7.078,-15.521 2.261,-5.121 4.357,-10.152 6.29,-15.092 1.931,-4.939 3.533,-9.671 4.806,-14.194 0.351,-0.937 0.834,-2.262 1.449,-3.979 0.614,-1.715 1.316,-3.404 2.107,-5.069 0.79,-1.663 1.679,-3.106 2.666,-4.327 0.988,-1.222 2.052,-1.834 3.193,-1.834 1.757,0 3.029,0.402 3.819,1.209 0.791,0.807 1.186,1.988 1.186,3.549 0,0.312 -0.044,0.807 -0.131,1.481 -0.089,0.676 -0.198,1.393 -0.329,2.146 -0.132,0.754 -0.275,1.469 -0.429,2.146 -0.154,0.676 -0.297,1.169 -0.429,1.48 1.624,-1.768 3.38,-3.522 5.269,-5.264 1.887,-1.741 3.841,-3.316 5.861,-4.719 2.018,-1.403 4.082,-2.547 6.189,-3.433 2.107,-0.883 4.214,-1.325 6.321,-1.325 1.447,0 2.886,0.208 4.312,0.624 1.426,0.416 2.7,1.027 3.819,1.832 1.12,0.808 2.03,1.821 2.732,3.042 0.701,1.223 1.053,2.64 1.053,4.251 0,2.133 -0.537,4.407 -1.612,6.825 -1.076,2.417 -2.426,4.848 -4.049,7.291 -1.626,2.445 -3.382,4.823 -5.269,7.137 -1.889,2.314 -3.654,4.42 -5.301,6.317 -1.646,1.898 -3.028,3.51 -4.148,4.835 -1.119,1.327 -1.702,2.224 -1.745,2.691 0,0.625 0.198,1.131 0.593,1.521 0.395,0.39 1.054,0.585 1.976,0.585 0.746,0 1.844,-0.417 3.293,-1.249 1.447,-0.831 3.478,-2.274 6.09,-4.327 2.61,-2.054 5.927,-4.81 9.943,-8.269 4.019,-3.451 8.968,-7.807 14.85,-13.059 z"
       id="path11" />
  </g>
</svg>
