<svg xmlns="http://www.w3.org/2000/svg" viewBox="0 0 90 41" height="41" width="90"><path d="M17.54.57l-4.77 5-1.06 4.1h-1c-4.9 0-8.87.45-8.87 1.02 0 .55 3.97 1.4 8.86 1.4 4.88 0 8.84-.85 8.84-1.4 0-.47-2.57-.84-6.1-.98l1.02-3.54 4.26-4.72zm-6.1 10.2l-.02.06c-.1.14.4.27.85.27.48 0 .88-.12.88-.27v-.03c.12.04.2.1.2.16 0 .15-.52.32-1.08.32-.57 0-1.07-.17-1.07-.32 0-.06.07-.1.2-.17 0 0 .02 0 .03-.02zm-9.6.4l1.02 10.76.14-.68c.38-1.43 1.08-2.8 2.14-3.84.46-.43 1.1-.88 1.84-.8.75.07 1.16.54 1.4 1.03.13.3-.05.9-.47.73-.35-.27-.4-.88-.9-.98-.54-.1-.96.35-1.3.7-.83.95-1.4 2.1-1.74 3.32-.12.52-.25 1.1-.02 1.6.2.4.7.16.97-.05.64-.47 1.2-1.07 1.58-1.75.16-.45.27-.9.47-1.33.2-.46.8-.18.7.3-.1.54-.28 1.04-.46 1.55-.37 1.02-.63 2.07-.95 3.1-.05.33-.64.68-.7.17-.05-.52.2-1 .32-1.5.05-.22.2-.64.22-.74-.54.56-1.12 1.14-1.88 1.36-.47.14-.98-.12-1.2-.55l.63 6.6.34.56c1 .65 3.58 1.1 6.6 1.1 2.76 0 5.15-.37 6.3-.93l.45-.72.83-7.14c-.46.43-.94.86-1.56 1-.34.07-.8.08-1-.27-.15-.4.17-.77.4-1.08.32-.47.76-.86 1.02-1.37.1-.42-.52-.2-.7-.05-.78.56-1.24 1.45-1.6 2.32-.4.82-.7 1.7-1.02 2.55-.1.34-.65.6-.86.22-.1-.4.15-.77.28-1.13.33-.7.67-1.42.98-2.14l-.18.18c-.4.36-.87.74-1.44.8-.28.03-.58-.12-.64-.4v-.15c-.26.2-.52.35-.8.47-.25.1-.6.14-.76-.12-.14-.3-.07-.65 0-.96-.35.6-.93 1.1-1.63 1.15-.3.03-.64-.05-.77-.35-.17-.4 0-.82.1-1.2.24-.7.52-1.4.86-2.06.14-.27.57-.33.74-.06.1.24-.1.48-.2.7-.3.56-.6 1.14-.67 1.8-.05.3.33.3.53.2.5-.26.83-.76 1.1-1.24.2-.34.34-.7.46-1.07.1-.22.17-.53.44-.58.27-.04.43.28.36.5-.2.67-.58 1.27-.73 1.95-.04.17-.1.38-.02.54.2.13.43 0 .6-.1.16-.1.3-.2.42-.32.1-.33.22-.66.34-.97l1.7-4.3c.1-.23.35-.37.57-.3.08 0 .15.05.2.1.18.3-.07.6-.17.9-.6 1.4-1.18 2.83-1.75 4.27-.07.2-.2.45-.1.67.2.14.45-.1.65-.2.45-.33.86-.7 1.26-1.1.07-.2.15-.4.2-.58.12-.3.2-.63.46-.83.4-.3.46.33.38.67l.3-.27c.4-.35.94-.73 1.5-.56.4.07.6.5.46.87-.26.77-.88 1.34-1.38 1.96-.3.37.35.18.67-.1l1.1-.93 1.25-10.84c-1.4.72-4.75 1.23-8.86 1.23-4.12 0-8.17-.58-8.87-1.3zM4 30.9l1.23 1.98.45 6.16s4.94 3.5 9.8 0l.37-6.23 1.06-1.73c-1.15.56-3.52.94-6.27.94h-.02C7.56 32 5 31.56 4 30.9z" fill="#e94b4b"/><g fill="#da4648" stroke="#fff" stroke-miterlimit="10"><path d="M40.84 21.5c-1.4 3.95-2.42 8-3.67 12-.18 1.3-2.45 2.67-2.7.7-.2-2 .77-3.9 1.24-5.8.22-.84.77-2.5.85-2.86-2.04 2.18-4.3 4.4-7.23 5.27-1.94.57-4.06-.55-4.84-2.38-1.28-2.78-.55-5.92.1-8.75 1.5-5.53 4.18-10.85 8.3-14.9 2.06-1.92 4.82-3.76 7.78-3.17 2.14.45 3.87 2.13 4.8 4.05.5 1.2-.2 3.46-1.84 2.8-1.4-1.04-1.6-3.4-3.54-3.8-2.08-.32-3.72 1.37-5.04 2.74-3.2 3.68-5.45 8.17-6.75 12.86-.48 2-.95 4.24-.08 6.2.82 1.56 2.76.63 3.78-.18 2.43-1.84 4.58-4.14 6.1-6.8.6-1.72 1.03-3.52 1.8-5.17.8-1.77 3.1-.66 2.7 1.2-.42 2.08-1.07 4.04-1.76 6zM62 25.4c-1.64 2.1-3.7 3.93-6.17 4.95-.94.38-2.3.53-2.92-.47-.57-1.16-.28-2.52-.05-3.73-1.3 2.3-3.54 4.3-6.28 4.48-1.13.12-2.5-.2-2.97-1.37-.67-1.53-.02-3.2.4-4.7.9-2.73 2-5.4 3.32-7.95.54-1.02 2.2-1.25 2.84-.23.43.95-.4 1.86-.74 2.7-1.14 2.2-2.4 4.46-2.6 6.97-.2 1.26 1.27 1.2 2.03.8 1.97-1 3.22-2.95 4.27-4.8.74-1.33 1.34-2.7 1.78-4.14.36-.83.7-2.03 1.72-2.2 1.04-.16 1.66 1.07 1.38 1.96-.8 2.56-2.23 4.9-2.83 7.52-.1.68-.4 1.48 0 2.1.74.46 1.63-.08 2.32-.43 1.72-1.03 3.2-2.47 4.32-4.15.05.9.1 1.8.17 2.7z" stroke-width=".25467"/><path d="M62.5 24.4c-.27.83-.72 1.75-.43 2.63.84.5 1.82-.44 2.56-.83 1.77-1.23 3.35-2.72 4.9-4.22 1.3-.65 1.57 1.32.9 2.07-1.07 1.22-2.23 2.37-3.4 3.5-1.6 1.38-3.4 2.88-5.6 3.08-1.07.15-2.27-.45-2.5-1.57-.56-2.5.63-4.93 1.5-7.2 2.2-5.6 4.4-11.2 6.63-16.77.38-1.15 2.1-1.7 2.9-.7.68 1.14-.26 2.33-.66 3.4-2.37 5.5-4.6 11.04-6.8 16.6z" stroke-width=".25467"/><path d="M86.27 20.8c1.42-1.23 2.02 1.17 1.2 2.1-.86 1.08-2.05 1.87-3.02 2.86-2.1 1.88-4.22 4.1-7.06 4.77-1.32.25-3.12.3-3.82-1.1-.63-1.53.62-2.97 1.45-4.15 1.3-1.8 3-3.3 4-5.3.4-1.64-2-.8-2.7-.2-3.03 2.2-4.83 5.62-6.26 9-1.52 3.2-2.62 6.58-3.92 9.88-.4 1.33-2.5 2.3-3.33.87-.37-1.54.57-2.98 1.1-4.36 2.32-5.08 4.84-10.1 6.44-15.46.44-1.12.77-2.43 1.77-3.18 1.5-1.13 1.77 1.24 1.47 2.56l1.16-1.04c1.57-1.34 3.65-2.83 5.85-2.18 1.5.3 2.35 2 1.78 3.4-1.04 2.98-3.42 5.2-5.35 7.6-1.13 1.4 1.33.7 2.57-.34 2.24-1.88 4.48-3.77 6.67-5.7z" stroke-width=".25467"/></g></svg>