<svg width="40" height="55" viewBox="0 0 10.6 14.6" xmlns="http://www.w3.org/2000/svg"><switch transform="translate(-2 .1) scale(.02834)"><g><path d="M74.6 100.6l33 370.2 148.2 41.1 148.6-41.2 33-370.2zm67.5 75.7h227.5l-4 45.4H191.6l4.2 46.5h165.4L349 407.6l-93 25.8-93.2-25.8-6.3-71.3H202l3.2 36.2 50.7 13.6 50.5-13.6 5.3-59H154.3z" fill="#e34f26"/><path d="M75.6 0h28.2v27.9h25.8V0h28.2v84.4h-28.2V56h-25.8v28.3H75.6V0zM194.8 28H170V0h77.9v28H223v56.4h-28.2V28zM260.2 0h29.4l18.1 29.6 18-29.6h29.5v84.4H327V42.6l-19.6 30-19.7-30v41.8h-27.6zM369.2 0h28.2v56.5h39.7v27.9h-67.9z"/></g></switch></svg>