<svg width="55" height="55" xmlns="http://www.w3.org/2000/svg"><path d="M5.96 4.69A7.8 7.8 0 009.2 16.07c1.5.81 3.25.81 4.87.35a32.52 32.52 0 005.58-7.67A7.8 7.8 0 0017.56 4C14.09.97 8.63.54 5.97 4.7zm21.6 4.41c-.59 0-1.17.12-1.4.58l-2.32 3.49c-.12.46-.93 1.16-.81 1.5 0 .24.8.7 1.16.82l2.9 1.28c.7.46 1.16.23 1.63-.35l2.32-3.48c.7-1.05.35-1.4-.47-2.1a15.7 15.7 0 00-3.02-1.74zm-6.4.35a47.29 47.29 0 01-5.57 7.78l2.33 1.28 1.74-2.44c.7-.93 1.86-1.74 3.02-1.16-.23-1.4 1.16-1.86 1.5-2.9zm10.58 3.14l-2.1 3.48c-.22.35-.69.93-.57 1.4 0 .23.81.46 1.16.58.46.23 2.32.8 2.32 1.39 0 .81-.7 2.2-.23 3.02.35.12 1.04-.93 1.62-1.74a36.4 36.4 0 003.37-4.88c.35-.7.12-1.51-.58-1.97l-2.9-1.75a1.43 1.43 0 00-1.97.47zM20.7 15.6c-.47.34-.81.93-1.28 1.5l-1.4 1.86a28.34 28.34 0 00-3.48 6.86c0 1.16 3.83 5.22 5.7 8.59 1.85 3.14 4.17 5.46 3.94 5.92l-1.5 8.95c-.59 4.06 0 4.06 0 4.06H38c.81-2.09.58-4.41.58-6.62a24.9 24.9 0 01.23-5.46c.93-1.4 1.98-2.9 2.8-3.71l.69-3.14-3.49-2.2c-1.04 0-2.2-1.4-3.02-2.21-.92-1.16-1.97-1.05-2.43-1.16l-5-1.16c-2.32-.82-4.41-1.86-6.5-2.67 1.5-.93 1.74-2.21 1.74-3.6.81.23 2.79 2.55 2.79 2.55 1.4.23 3.95-.7 4.64-1.16.93-.35 1.16-2.67.93-3.14-1.4-.92-2.32-1.27-3.6-1.85l-5-2.21c-1.39-.58-1.97-.46-2.66 0zm16.14 1.74l-5.46 7.78a1.6 1.6 0 00.23 2.09l2.56 1.16c.58.46 1.5.35 1.97-.23l5.34-6.62a1.6 1.6 0 00-.23-2.1l-2.32-2.31c-.81-.47-1.51-.58-2.1.23zm5.46 4.3L36.5 28.6c-.47.35-.47.93-.23 1.16l1.62 1.75c.35.34.93.34 1.16 0l6.5-6.27c.36-.35.36-.82 0-1.17L43.7 22c-.58-.7-1.05-.8-1.4-.34zm-11.15 1.74c-.82 0-2.33.7-2.9.81-.47.23-1.75.58-2.1 0-.35-.58-.35-.7-.7-.7-.8.12-.57.7-.46.93.35.35 2.67 1.86 3.83 2.33 1.05-.7 1.98-2.1 2.9-3.14 0-.23-.23-.23-.57-.23zm12.77 4.06l-4.65 4.42 7.32 4.83c2.32-.46 3.25-2.67 3.13-4.41a85.17 85.17 0 00-5.8-4.84z"/></svg>