<svg xmlns="http://www.w3.org/2000/svg" width="55" height="55"><defs><linearGradient x1="323" y1="465.2" gradientTransform="scale(.2497 -.2497) rotate(30 1369 673.6)" x2="319" gradientUnits="userSpaceOnUse" spreadMethod="reflect" y2="360.7" id="a"><stop offset="0" stop-color="#6d674f"/><stop offset=".6" stop-color="#BBB"/><stop offset="1" stop-color="#6d674f"/></linearGradient><radialGradient r="60" gradientTransform="scale(.30767 -.30767) rotate(30 1242.3 532.6)" cx="300.7" cy="435.8" gradientUnits="userSpaceOnUse" id="b"><stop offset="0" stop-color="#4d4d4d"/><stop offset="1" stop-opacity="0" stop-color="#4d4d4d"/></radialGradient><radialGradient r="60" gradientTransform="scale(.30767 -.30767) rotate(30 1242.3 532.6)" cx="286.1" cy="357.9" gradientUnits="userSpaceOnUse" id="c"><stop offset="0" stop-opacity=".7" stop-color="#f9f9f9"/><stop offset="1" stop-opacity="0" stop-color="#f9f9f9"/></radialGradient></defs><path d="M8 8.6c-2 4.2-.9 8 2.8 9.8 1.3.7 2.8.7 4.2.3a28 28 0 0 0 4.8-6.6C19.7 10.6 19 9 18 8c-3-2.6-8.2-3-10 .6zm18.6 3.8c-.5 0-1 .1-1.2.5l-2 3c-.1.4-.8 1-.7 1.3 0 .2.7.6 1 .7l2.5 1.1c.6.4 1 .2 1.4-.3l2-3c.6-.9.3-1.2-.4-1.8-.8-.6-1.7-1.1-2.6-1.5zm-5.5.3c-1.4 2.5-3 4.6-4.8 6.7l2 1.1 1.5-2.1c.6-.8 1.6-1.5 2.6-1-.2-1.2 1-1.6 1.3-2.5l-2.6-2.2zm9.1 2.7l-1.8 3c-.2.3-.6.8-.5 1.2 0 .2.7.4 1 .5.4.2 2 .7 2 1.2 0 .7-.6 1.9-.2 2.6.3.1.9-.8 1.4-1.5 1.1-1.3 2-2.7 2.9-4.2.3-.6.1-1.3-.5-1.7L32 15c-.7-.4-1.4-.1-1.7.4zM20.7 18c-.4.3-.7.8-1.1 1.3l-1.2 1.6a24.4 24.4 0 0 0-3 5.9c0 1 3.3 4.5 4.9 7.4 1.6 2.7 3.6 4.7 3.4 5.1L22.4 47c-.5 3.5 0 3.5 0 3.5h13.2c.7-1.8.5-3.8.5-5.7-.2-1 .1-4.6.2-4.7.8-1.2 1.7-2.5 2.4-3.2l.6-2.7-3-1.9c-.9 0-1.9-1.2-2.6-1.9-.8-1-1.7-.9-2.1-1l-4.3-1c-2-.7-3.8-1.6-5.6-2.3 1.3-.8 1.5-1.9 1.5-3.1.7.2 2.4 2.2 2.4 2.2 1.2.2 3.4-.6 4-1 .8-.3 1-2.3.8-2.7-1.2-.8-2-1.1-3.1-1.6L23 18c-1.2-.5-1.7-.4-2.3 0zm13.9 1.5l-4.7 6.7c-.4.6-.3 1.3.2 1.8l2.2 1c.5.4 1.3.3 1.7-.2l4.6-5.7c.4-.6.3-1.3-.2-1.8l-2-2c-.7-.4-1.3-.5-1.8.2zm4.7 3.7l-5 6c-.4.3-.4.8-.2 1l1.4 1.5c.3.3.8.3 1 0l5.6-5.4c.3-.3.3-.7 0-1l-1.6-1.8c-.5-.6-.9-.7-1.2-.3zm-9.6 1.5c-.7 0-2 .6-2.5.7-.4.2-1.5.5-1.8 0-.3-.5-.3-.6-.6-.6-.7.1-.5.6-.4.8.3.3 2.3 1.6 3.3 2 .9-.6 1.7-1.8 2.5-2.7 0-.2-.2-.2-.5-.2zm11 3.5l-4 3.8 4.9 3c2-.4 2.8-2.3 2.7-3.8-1-1-2.3-2-3.6-3zm4 4.1c-.2 1-1 2-1.8 2.7l.9.6c.4.2.9.1 1.2-.2l.8-1.3c.3-.4.2-1-.2-1.2z"/></svg>