<?xml version="1.0" encoding="UTF-8" standalone="no"?>
<!-- Created with Inkscape (http://www.inkscape.org/) -->

<svg
   xmlns:dc="http://purl.org/dc/elements/1.1/"
   xmlns:cc="http://creativecommons.org/ns#"
   xmlns:rdf="http://www.w3.org/1999/02/22-rdf-syntax-ns#"
   xmlns:svg="http://www.w3.org/2000/svg"
   xmlns="http://www.w3.org/2000/svg"
   xmlns:xlink="http://www.w3.org/1999/xlink"
   xmlns:sodipodi="http://sodipodi.sourceforge.net/DTD/sodipodi-0.dtd"
   xmlns:inkscape="http://www.inkscape.org/namespaces/inkscape"
   width="55"
   height="55"
   id="svg3098"
   version="1.1"
   inkscape:version="0.92.4 5da689c313, 2019-01-14"
   sodipodi:docname="microphone-in-a-fist.svg">
  <defs
     id="defs3100">
    <linearGradient
       x1="154.67"
       y1="373.07999"
       gradientTransform="matrix(1,0,0,-1,-18,678.03)"
       x2="155.72"
       gradientUnits="userSpaceOnUse"
       y2="415.04999"
       id="linearGradient4091">
      <stop
         offset="0"
         stop-opacity=".082353"
         stop-color="#FFF"
         id="stop9974" />
      <stop
         offset=".48605"
         stop-opacity=".88627"
         stop-color="#FFF"
         id="stop9976" />
      <stop
         offset="1"
         stop-opacity=".082353"
         stop-color="#FFF"
         id="stop9978" />
    </linearGradient>
    <linearGradient
       x1="807.75"
       y1="947.40002"
       gradientTransform="matrix(-1.018,0,0,1.018,919.74,-899.06)"
       x2="837.84003"
       gradientUnits="userSpaceOnUse"
       y2="964.72998"
       id="linearGradient4089">
      <stop
         offset="0"
         stop-color="#5a5a5a"
         id="stop10081" />
      <stop
         offset="1"
         stop-color="#1e1e1e"
         id="stop10083" />
    </linearGradient>
    <linearGradient
       x1="322.98999"
       y1="465.22"
       gradientTransform="matrix(0.21625,-0.12485,-0.12485,-0.21625,129.9,148.39)"
       x2="318.98999"
       gradientUnits="userSpaceOnUse"
       spreadMethod="reflect"
       y2="360.72"
       id="linearGradient4087">
      <stop
         offset="0"
         stop-color="#6d674f"
         id="stop4900" />
      <stop
         offset=".57397"
         stop-color="#BBB"
         id="stop4902-0" />
      <stop
         offset="1"
         stop-color="#6d674f"
         id="stop4904-7" />
    </linearGradient>
    <linearGradient
       x1="314.82999"
       y1="379.72"
       gradientTransform="matrix(0.21625,-0.12485,-0.12485,-0.21625,120.98,154.41)"
       x2="314.82999"
       gradientUnits="userSpaceOnUse"
       spreadMethod="reflect"
       y2="455.22"
       id="linearGradient4085">
      <stop
         offset="0"
         stop-color="#6d674f"
         id="stop4056" />
      <stop
         offset=".69708"
         stop-color="#BBB"
         id="stop4062" />
      <stop
         offset="1"
         stop-color="#6d674f"
         id="stop4058" />
    </linearGradient>
    <radialGradient
       r="60"
       gradientTransform="matrix(0.26645,-0.15383,-0.15383,-0.26645,133.14,169.15)"
       cx="300.67999"
       cy="435.79999"
       gradientUnits="userSpaceOnUse"
       id="radialGradient4083">
      <stop
         offset="0"
         stop-color="#4d4d4d"
         id="stop4824-7" />
      <stop
         offset="1"
         stop-opacity="0"
         stop-color="#4d4d4d"
         id="stop4826-8" />
    </radialGradient>
    <radialGradient
       r="60"
       gradientTransform="matrix(0.26645,-0.15383,-0.15383,-0.26645,133.14,169.15)"
       cx="286.07001"
       cy="357.89001"
       gradientUnits="userSpaceOnUse"
       id="radialGradient4081">
      <stop
         offset="0"
         stop-opacity=".67254"
         stop-color="#f9f9f9"
         id="stop4812" />
      <stop
         offset="1"
         stop-opacity="0"
         stop-color="#f9f9f9"
         id="stop4814" />
    </radialGradient>
    <linearGradient
       x1="1257.6"
       y1="384.48999"
       gradientTransform="matrix(1.018,0,0,1.018,-1252.1,-294.1)"
       x2="1257.6"
       gradientUnits="userSpaceOnUse"
       y2="374.97"
       id="linearGradient4079">
      <stop
         offset="0"
         stop-color="#a0a0a0"
         id="stop10016" />
      <stop
         offset=".15578"
         stop-color="#c4c4c4"
         id="stop10027" />
      <stop
         offset=".31156"
         stop-color="#b8b8b8"
         id="stop10022" />
      <stop
         offset=".94505"
         stop-color="#ebebeb"
         id="stop10025" />
      <stop
         offset="1"
         stop-color="#b6b6b6"
         id="stop10018" />
    </linearGradient>
    <linearGradient
       x1="819.89001"
       y1="998.23999"
       gradientTransform="matrix(-1.018,0,0,1.018,919.49,-899.06)"
       x2="829.44"
       gradientUnits="userSpaceOnUse"
       y2="998.23999"
       id="linearGradient4077">
      <stop
         offset="0"
         stop-color="#cbcbcb"
         id="stop10073" />
      <stop
         offset="1"
         stop-color="#868686"
         id="stop10075" />
    </linearGradient>
    <filter
       id="filter10101"
       style="color-interpolation-filters:sRGB">
      <feGaussianBlur
         stdDeviation="4.9801895"
         id="feGaussianBlur10103" />
    </filter>
    <filter
       id="filter5184"
       style="color-interpolation-filters:sRGB">
      <feGaussianBlur
         stdDeviation="2.3536243"
         id="feGaussianBlur5186" />
    </filter>
    <filter
       id="filter10006"
       style="color-interpolation-filters:sRGB">
      <feGaussianBlur
         stdDeviation="1.2652113"
         id="feGaussianBlur10008" />
    </filter>
    <linearGradient
       inkscape:collect="always"
       xlink:href="#linearGradient4087"
       id="linearGradient3268"
       gradientUnits="userSpaceOnUse"
       gradientTransform="matrix(0.21625,-0.12485,-0.12485,-0.21625,348.05656,605.39225)"
       spreadMethod="reflect"
       x1="322.98999"
       y1="465.22"
       x2="318.98999"
       y2="360.72" />
    <radialGradient
       inkscape:collect="always"
       xlink:href="#radialGradient4083"
       id="radialGradient3276"
       gradientUnits="userSpaceOnUse"
       gradientTransform="matrix(0.26645,-0.15383,-0.15383,-0.26645,351.29656,626.15225)"
       cx="300.67999"
       cy="435.79999"
       r="60" />
    <radialGradient
       inkscape:collect="always"
       xlink:href="#radialGradient4081"
       id="radialGradient3279"
       gradientUnits="userSpaceOnUse"
       gradientTransform="matrix(0.26645,-0.15383,-0.15383,-0.26645,351.29656,626.15225)"
       cx="286.07001"
       cy="357.89001"
       r="60" />
  </defs>
  <sodipodi:namedview
     id="base"
     pagecolor="#ffffff"
     bordercolor="#666666"
     borderopacity="1.0"
     inkscape:pageopacity="0.0"
     inkscape:pageshadow="2"
     inkscape:zoom="5.317348"
     inkscape:cx="36.759566"
     inkscape:cy="41.737952"
     inkscape:document-units="px"
     inkscape:current-layer="layer1"
     showgrid="false"
     inkscape:window-width="1433"
     inkscape:window-height="996"
     inkscape:window-x="432"
     inkscape:window-y="41"
     inkscape:window-maximized="1"
     fit-margin-top="0"
     fit-margin-left="0"
     fit-margin-right="0"
     fit-margin-bottom="0" />
  <metadata
     id="metadata3103">
    <rdf:RDF>
      <cc:Work
         rdf:about="">
        <dc:format>image/svg+xml</dc:format>
        <dc:type
           rdf:resource="http://purl.org/dc/dcmitype/StillImage" />
        <dc:title></dc:title>
      </cc:Work>
    </rdf:RDF>
  </metadata>
  <g
     inkscape:label="Layer 1"
     inkscape:groupmode="layer"
     id="layer1"
     transform="translate(-112.14773,-527.83795)">
    <path
       style="display:none;fill:#00ff00;stroke:none"
       inkscape:connector-curvature="0"
       display="none"
       d="m -51.9274,1211.4308 c 0,0 -19.0836,-0.022 -0.6989,-132.6935 C -34.2417,946.066 -24.045,899.1052 -5.3234,791.0001 1.7346,774.8563 -73.7096,698.777 -134.2387,593.2597 -195.9902,485.6117 -277.9101,357.4473 -322.9681,312.8139 c 0,0 174.6051,-335.4541 237.819,-349.6864 0,0 301.3812,108.86 337.0663,144.5451 0,0 -1.6885,91.6752 -28.6427,104.2204 -26.9543,12.5452 -108.8787,44.596 -154.5442,34.6042 0,0 -66.5129,-72.4035 -90.3392,-83.5027 0,0 -6.2708,4.3005 1.4514,23.8679 7.7223,19.5674 -10.4012,69.4088 -39.2782,89.5321 0,0 -21.8448,3.1385 -20.069,6.7997 1.7759,3.6612 5.1862,8.7151 30.2112,12.0414 25.0249,3.3263 41.4226,16.8926 51.1404,21.7706 9.7179,4.8781 39.9987,16.8593 64.2749,23.7075 0,0 237.1202,313.2578 237.1202,342.053 0,0 -71.9669,66.2099 -101.9054,69.0026 0,0 -4.9395,0.036 0,4.9752 4.9395,4.9394 64.5757,-0.9453 70.8878,5.3668 6.3121,6.3121 2.0121,22.6842 6.6121,38.0059 4.6,15.3218 22.4229,131.2911 18.4923,150.0347 0,0 -2.1134,15.7976 3.9779,28.4371 2.6931,15.3368 7.0638,82.1619 5.3597,88.0372 -1.7042,5.8755 3.834,11.4138 3.834,11.4138 0,0 6.1136,-2.9048 6.1136,-14.1914 0,-11.2867 -14.7137,-261.0466 -3.911,-270.7197 0,0 10.1158,-12.895 18.9054,-12.895 8.7897,0 24.7629,-16.0286 32.1096,-20.0052 0,0 4.1583,-5.0769 -6.9741,-10.9508 -11.1323,-5.8739 -31.7252,-18.7007 -41.3689,-59.7083 -11.6437,-20.0076 -24.2794,-66.0872 -42.3224,-107.9173 -18.043,-41.8301 -13.7299,-36.4236 -13.7299,-36.4236 0,0 -95.3713,-114.5455 -124.6481,-153.1061 0,0 -16.1036,-21.2645 0,-20.3709 16.1036,0.8935 144.0354,21.6741 160.3262,34.7954 0,0 53.0165,4.6835 81.2068,39.6826 32.7279,29.0347 57.3043,56.3031 68.4141,60.4844 0,0 8.8715,5.9367 12.4072,14.309 3.5357,8.3723 10.1061,8.5808 13.7668,3.4523 3.6608,-5.1286 12.3208,-17.4926 16.6698,-17.4926 4.3491,0 116.9965,-105.4218 123.0477,-105.4218 6.0514,0 12.3269,-9.6339 14.3142,6.1003 1.9872,15.7341 -14.4666,140.5987 -25.387,151.5191 -1.9001,9.1588 -23.234,109.7161 -34.1799,133.0906 -10.9459,23.3745 -15.9235,16.6872 -38.3097,46.5308 0,0 -18.4618,35.0239 -29.6478,46.21 -11.186,11.1861 -20.6222,22.6746 -22.309,29.0284 -1.6869,6.3539 -13.3855,144.1783 -8.6575,181.5168 0,39.3384 0.7406,137.007 -2.4326,150.9333 -3.1732,13.9263 -6.3809,32.405 -6.3809,48.0717 0,0 1.8606,13.4637 -7.7947,14.3201 -9.6553,0.8564 -501.6557,2.5487 -501.6557,2.5487 z"
       id="path3" />
    <path
       style="display:none;fill:#ff0000"
       d="m -51.9274,1211.4308 c 0,0 -19.0836,-0.022 -0.6989,-132.6935 C -34.2417,946.066 -24.045,899.1052 -5.3234,791.0001 1.7346,774.8563 -73.7096,698.777 -134.2387,593.2597 -195.9902,485.6117 -277.9101,357.4473 -322.9681,312.8139 c 0,0 174.6051,-335.4541 237.819,-349.6864 0,0 301.3812,108.86 337.0663,144.5451 0,0 -1.6885,91.6752 -28.6427,104.2204 -26.9543,12.5452 -108.8787,44.596 -154.5442,34.6042 0,0 -66.5129,-72.4035 -90.3392,-83.5027 0,0 -6.2708,4.3005 1.4514,23.8679 7.7223,19.5674 -10.4012,69.4088 -39.2782,89.5321 0,0 -21.8448,3.1385 -20.069,6.7997 1.7759,3.6612 5.1862,8.7151 30.2112,12.0414 25.0249,3.3263 41.4226,16.8926 51.1404,21.7706 9.7179,4.8781 39.9987,16.8593 64.2749,23.7075 0,0 237.1202,313.2578 237.1202,342.053 0,0 -71.9669,66.2099 -101.9054,69.0026 0,0 -4.9395,0.036 0,4.9752 4.9395,4.9394 64.5757,-0.9453 70.8878,5.3668 6.3121,6.3121 2.0121,22.6842 6.6121,38.0059 4.6,15.3218 22.4229,131.2911 18.4923,150.0347 0,0 -2.1134,15.7976 3.9779,28.4371 2.6931,15.3368 7.0638,82.1619 5.3597,88.0372 -1.7042,5.8755 3.834,11.4138 3.834,11.4138 0,0 6.1136,-2.9048 6.1136,-14.1914 0,-11.2867 -14.7137,-261.0466 -3.911,-270.7197 0,0 10.1158,-12.895 18.9054,-12.895 8.7897,0 24.7629,-16.0286 32.1096,-20.0052 0,0 4.1583,-5.0769 -6.9741,-10.9508 -11.1323,-5.8739 -31.7252,-18.7007 -41.3689,-59.7083 -11.6437,-20.0076 -24.2794,-66.0872 -42.3224,-107.9173 -18.043,-41.8301 -13.7299,-36.4236 -13.7299,-36.4236 0,0 -95.3713,-114.5455 -124.6481,-153.1061 0,0 -16.1036,-21.2645 0,-20.3709 16.1036,0.8935 144.0354,21.6741 160.3262,34.7954 0,0 53.0165,4.6835 81.2068,39.6826 32.7279,29.0347 57.3043,56.3031 68.4141,60.4844 0,0 8.8715,5.9367 12.4072,14.309 3.5357,8.3723 10.1061,8.5808 13.7668,3.4523 3.6608,-5.1286 12.3208,-17.4926 16.6698,-17.4926 4.3491,0 116.9965,-105.4218 123.0477,-105.4218 6.0514,0 12.3269,-9.6339 14.3142,6.1003 1.9872,15.7341 -14.4666,140.5987 -25.387,151.5191 -1.9001,9.1588 -23.234,109.7161 -34.1799,133.0906 -10.9459,23.3745 -15.9235,16.6872 -38.3097,46.5308 0,0 -18.4618,35.0239 -29.6478,46.21 -11.186,11.1861 -20.6222,22.6746 -22.309,29.0284 -1.6869,6.3539 -13.3855,144.1783 -8.6575,181.5168 0,39.3384 0.7406,137.007 -2.4326,150.9333 -3.1732,13.9263 -6.3809,32.405 -6.3809,48.0717 0,0 1.8606,13.4637 -7.7947,14.3201 -9.6553,0.8564 -501.6557,2.5487 -501.6557,2.5487 z"
       id="path3451"
       inkscape:connector-curvature="0" />
    <g
       transform="matrix(0.19072729,0,0,0.19072729,-147.76075,408.21185)"
       id="g3462">
      <path
         style="display:none;fill:#ff0000"
         inkscape:connector-curvature="0"
         display="none"
         d="m 1044.0077,1522.5356 c 0,0 -19.0836,-0.022 -0.6989,-132.6935 18.3846,-132.6713 28.5813,-179.6321 47.3029,-287.7372 7.058,-16.1438 -68.3862,-92.2231 -128.9153,-197.7404 C 899.9449,796.7165 818.025,668.5521 772.967,623.9187 c 0,0 174.6051,-335.4541 237.819,-349.6864 0,0 301.3812,108.86 337.0663,144.5451 0,0 -1.6885,91.6752 -28.6427,104.2204 -26.9543,12.5452 -108.8787,44.596 -154.5442,34.6042 0,0 -66.5129,-72.4035 -90.3392,-83.5027 0,0 -6.2708,4.3005 1.4514,23.8679 7.7223,19.5674 -10.4012,69.4088 -39.2782,89.5321 0,0 -21.8448,3.1385 -20.069,6.7997 1.7759,3.6612 5.1862,8.7151 30.2112,12.0414 25.0249,3.3263 41.4226,16.8926 51.1404,21.7706 9.7179,4.8781 39.9987,16.8593 64.2749,23.7075 0,0 237.1202,313.2578 237.1202,342.053 0,0 -71.9669,66.2099 -101.9054,69.0026 0,0 -4.9395,0.036 0,4.9752 4.9395,4.9394 64.5757,-0.9453 70.8878,5.3668 6.3121,6.3121 2.0121,22.6842 6.6121,38.0059 4.6,15.3218 22.4229,131.2911 18.4923,150.0347 0,0 -2.1134,15.7976 3.9779,28.4371 2.6931,15.3368 7.0638,82.1619 5.3597,88.0372 -1.7042,5.8755 3.834,11.4138 3.834,11.4138 0,0 6.1136,-2.9048 6.1136,-14.1914 0,-11.2867 -14.7137,-261.0466 -3.911,-270.7197 0,0 10.1158,-12.895 18.9054,-12.895 8.7897,0 24.7629,-16.0286 32.1096,-20.0052 0,0 4.1583,-5.0769 -6.9741,-10.9508 -11.1323,-5.8739 -31.7252,-18.7007 -41.3689,-59.7083 -11.6437,-20.0076 -24.2794,-66.0872 -42.3224,-107.9173 -18.043,-41.8301 -13.7299,-36.4236 -13.7299,-36.4236 0,0 -95.3713,-114.5455 -124.6481,-153.1061 0,0 -16.1036,-21.2645 0,-20.3709 16.1036,0.8935 144.0354,21.6741 160.3262,34.7954 0,0 53.0165,4.6835 81.2068,39.6826 32.7279,29.0347 57.3043,56.3031 68.4141,60.4844 0,0 8.8715,5.9367 12.4072,14.309 3.5357,8.3723 10.1061,8.5808 13.7668,3.4523 3.6608,-5.1286 12.3208,-17.4926 16.6698,-17.4926 4.3491,0 116.9965,-105.4218 123.0477,-105.4218 6.0514,0 12.3269,-9.6339 14.3142,6.1003 1.9872,15.7341 -14.4666,140.5987 -25.387,151.5191 -1.9001,9.1588 -23.234,109.7161 -34.1799,133.0906 -10.9459,23.3745 -15.9235,16.6872 -38.3097,46.5308 0,0 -18.4618,35.0239 -29.6478,46.21 -11.186,11.1861 -20.6222,22.6746 -22.309,29.0284 -1.6869,6.3539 -13.3855,144.1783 -8.6575,181.5168 0,39.3384 0.7406,137.007 -2.4326,150.9333 -3.1732,13.9263 -6.3809,32.405 -6.3809,48.0717 0,0 1.8606,13.4637 -7.7947,14.3201 -9.6553,0.8564 -501.6557,2.5487 -501.6557,2.5487 z"
         id="path3464" />
      <g
         id="g3466"
         style="fill:#00ff00;stroke:none" />
    </g>
    <path
       style="fill:#000000;stroke:none;stroke-width:0.19072729"
       d="m 126.05316,534.03097 c -1.98149,0.0385 -3.91719,0.9795 -5.16156,2.71191 -2.09546,2.91774 -1.42753,6.98793 1.49006,9.08338 0.11553,0.0829 0.23274,0.14621 0.35165,0.22053 2.66609,-2.09702 7.01389,-8.15366 7.60525,-10.49596 -0.12162,-0.10151 -0.23881,-0.20414 -0.36953,-0.29801 -1.18534,-0.85128 -2.56011,-1.24816 -3.91587,-1.22185 z m 4.8397,2.03244 c -0.72703,3.22363 -4.65058,7.82755 -7.25359,10.4602 1.36915,0.58136 2.8706,0.66498 4.2556,0.28609 0.003,-0.003 0.009,-0.003 0.0119,-0.006 0.87857,-0.89239 1.85236,-2.0639 2.62846,-3.147 0.78138,-1.09057 1.58468,-2.35989 2.1278,-3.49865 -0.0876,-1.49996 -0.69362,-2.96119 -1.77019,-4.09468 z m 7.66486,4.14236 c -0.39647,0.01 -0.78424,0.20912 -1.01324,0.56622 l -1.949,3.03972 c -0.19652,0.30646 -0.84762,0.86495 -0.75695,1.19204 0.0784,0.28272 0.73048,0.61093 0.99536,0.78079 l 2.50926,1.0788 c 0.57134,0.36639 1.08195,0.20182 1.44833,-0.36953 l 1.94304,-3.03376 c 0.16336,-0.25476 0.41891,-0.61428 0.38145,-0.89403 -0.0465,-0.34765 -0.4344,-0.60758 -0.75099,-0.81059 l -2.11588,-1.35893 c -0.21426,-0.1374 -0.45349,-0.19667 -0.69138,-0.19073 z m -5.33441,0.35761 c -0.002,0.003 -0.004,0.009 -0.006,0.0119 l 0.0119,0.0238 c -0.21429,0.41202 -0.4489,0.83365 -0.69734,1.25761 -0.003,0.006 -0.008,0.0116 -0.0119,0.0179 -0.43359,0.73284 -0.91426,1.46761 -1.44834,2.21125 -0.52603,0.73243 -1.07343,1.42015 -1.62118,2.05628 -0.003,0.002 -0.003,0.004 -0.006,0.006 -0.32317,0.37282 -0.64028,0.734 -0.96556,1.07285 0.58205,0.3545 1.24088,0.7558 1.88343,1.15032 0.51367,-0.74019 1.052,-1.45971 1.61523,-2.15164 0.59156,-0.77761 1.57411,-1.52382 2.56885,-0.94172 -0.40813,-0.93579 0.8834,-1.50853 1.13245,-2.30661 0.0678,-0.0745 0.13477,-0.15437 0.19669,-0.23841 -0.94904,-0.7625 -1.84251,-1.49488 -2.65231,-2.16952 z m 10.19795,2.05628 c -0.41714,0.003 -0.8202,0.21386 -1.049,0.59602 l -1.82383,3.04568 c -0.18514,0.30923 -0.62154,0.81076 -0.5245,1.13244 0.0857,0.28412 0.67458,0.39675 0.94768,0.56026 0.4316,0.2228 2.04687,0.65572 2.0682,1.23377 0.0241,0.65331 -0.61494,1.8532 -0.16093,2.55098 0.22834,0.13671 0.93133,-0.7861 1.38873,-1.46026 0.1967,-0.28992 0.42105,-0.46842 0.4947,-0.56026 0.174,-0.21693 0.36539,-0.37002 0.51854,-0.62582 l 1.82383,-3.03972 c 0.34865,-0.58235 0.15917,-1.34406 -0.42317,-1.6927 l -2.61654,-1.56754 c -0.20019,-0.11985 -0.42519,-0.17455 -0.64371,-0.17285 z m -9.67941,2.83707 c -0.0289,0.002 -0.0599,0.002 -0.0894,0.006 -0.28089,0.0863 -0.52937,0.21946 -0.75695,0.38145 -0.0147,0.0124 -0.0328,0.0229 -0.0477,0.0358 -0.34302,0.29822 -0.73096,0.72994 -1.1384,1.25165 -0.38186,0.54752 -0.7255,1.12984 -1.13245,1.59734 -1.58585,2.39094 -3.09932,5.30672 -3.09932,5.90063 0,1.05259 3.33156,4.54035 4.95295,7.36684 1.5893,2.77054 3.57072,4.76747 3.38541,5.19136 -0.49158,2.83849 -0.75699,4.06809 -1.23973,7.55161 -0.48271,3.48352 0.0179,3.48673 0.0179,3.48673 0,0 12.91857,-0.0431 13.1721,-0.0656 0.25351,-0.0225 0.20265,-0.38146 0.20265,-0.38146 0,-0.41136 0.0836,-0.89195 0.16688,-1.25761 0.0833,-0.36566 0.0656,-2.93065 0.0656,-3.96355 -0.12415,-0.98038 0.1822,-4.60135 0.22648,-4.76818 0.0443,-0.16683 0.29637,-0.4692 0.59007,-0.76291 0.29372,-0.2937 0.77483,-1.20992 0.77483,-1.20992 0.58778,-0.7836 0.71987,-0.60811 1.00728,-1.22185 0.19755,-0.4219 0.48265,-1.78346 0.68542,-2.6821 -1.00042,-0.6212 -1.98837,-1.27294 -2.99799,-1.87151 l -0.16689,0.149 c -0.0961,0.13466 -0.27073,0.12447 -0.36357,-0.0954 -0.0928,-0.21983 -0.32782,-0.3755 -0.32782,-0.3755 -0.29169,-0.10979 -0.9347,-0.82306 -1.79402,-1.58542 -0.7402,-0.91896 -1.64775,-0.85017 -2.13377,-1.04304 -0.48601,-0.19286 -3.78509,-0.88845 -4.20792,-0.91191 -0.42282,-0.0235 0,0.53046 0,0.53046 0.76696,1.01016 3.26076,4.00349 3.27217,4.01719 -0.0153,-0.0122 -0.051,-10e-4 0.36357,0.9596 0.47375,1.09832 0.80289,2.31173 1.1086,2.83707 0.25321,1.07672 0.79246,1.41331 1.08477,1.56754 0.29229,0.15423 0.18476,0.28609 0.18476,0.28609 -0.1929,0.10442 -0.60961,0.5245 -0.84039,0.5245 -0.23078,0 -0.50066,0.33973 -0.50066,0.33973 -0.28365,0.25399 0.10729,6.8142 0.10729,7.11055 0,0.29635 -0.16093,0.36954 -0.16093,0.36954 0,0 -0.14607,-0.14374 -0.10132,-0.29802 0.0447,-0.15427 -0.0724,-1.90987 -0.14305,-2.31256 -0.15993,-0.33188 -0.10132,-0.74503 -0.10132,-0.74503 0.1032,-0.49214 -0.36797,-3.53741 -0.48874,-3.93971 -0.12079,-0.4023 -0.007,-0.83559 -0.17285,-1.00132 -0.16572,-0.16574 -1.7299,-0.007 -1.85959,-0.13709 -0.12969,-0.12969 0,-0.13112 0,-0.13112 0.7861,-0.0733 2.56873,-1.39688 2.57482,-1.79403 0.006,-0.39715 -5.60489,-8.6933 -6.12712,-8.99994 -0.52221,-0.30665 -1.43157,-0.49179 -1.68674,-0.61987 -0.25516,-0.12808 -0.68398,-0.48484 -1.34105,-0.57218 -0.65708,-0.0873 -0.74608,-0.21976 -0.79271,-0.31589 -0.0466,-0.0961 0.5245,-0.17881 0.5245,-0.17881 0.75822,-0.52837 1.23388,-1.84051 1.03112,-2.35429 -0.20276,-0.51378 -0.0358,-0.62582 -0.0358,-0.62582 0.6256,0.29143 2.37217,2.19336 2.37217,2.19336 1.19902,0.26236 3.34522,-0.58252 4.05295,-0.91191 0.70773,-0.3294 0.87757,-2.323 0.75695,-2.73575 -0.0502,-0.17172 -1.38813,-0.82691 -3.00395,-1.5437 -0.0594,-0.0129 -0.12146,-0.0342 -0.17285,-0.0715 -1.43246,-0.6314 -3.03876,-1.29258 -4.21984,-1.7225 0.0402,0.0818 0.0863,0.16121 0.12516,0.2384 -0.28644,-0.12249 -0.55625,-0.33277 -0.84039,-0.48873 -0.009,-0.003 -0.0152,-0.003 -0.0238,-0.006 -0.30396,-0.0988 -0.54153,-0.165 -0.69735,-0.19073 z m 13.93502,1.43045 c -0.35604,0.008 -0.70503,0.16533 -0.94172,0.4649 l -4.68474,6.70526 c -0.42078,0.53257 -0.32994,1.31365 0.20265,1.73442 l 2.20528,1.05496 c 0.53257,0.42077 1.31365,0.32993 1.73443,-0.20264 l 4.52977,-5.73374 c 0.42077,-0.53258 0.32994,-1.31366 -0.20265,-1.73443 l -2.05031,-2.02648 c -0.233,-0.18408 -0.51578,-0.2683 -0.79271,-0.26225 z m -8.05227,0.33974 c -0.18402,0.0276 0.0541,0.17178 0,0 z m 12.06946,3.67746 c -0.10536,0.003 -0.20816,0.038 -0.28609,0.11324 l -5.04235,6.04367 c -0.31171,0.30089 -0.34895,0.77969 -0.0775,1.06092 l 1.37681,1.4245 c 0.27149,0.28124 0.74922,0.26512 1.06093,-0.0358 l 5.51917,-5.32845 c 0.3117,-0.30089 0.34298,-0.77968 0.0715,-1.06092 l -1.71059,-1.75231 c -0.2036,-0.21092 -0.5958,-0.47429 -0.91191,-0.46489 z m -9.36948,1.54966 -2.93243,0.81059 c -0.48575,0.13128 -1.52247,0.45059 -1.81787,-0.0417 -0.29538,-0.49232 -0.30298,-0.6277 -0.67351,-0.60795 -0.60973,0.12028 -0.45206,0.64504 -0.30993,0.81059 0.28737,0.33472 2.24014,1.64751 3.27217,2.0086 0.12656,0.0443 0.23549,-0.033 0.42913,-0.32185 0.19365,-0.28883 1.89338,-2.19339 2.04436,-2.41986 0.11816,-0.23302 -0.0119,-0.2384 -0.0119,-0.2384 z m 10.53768,3.61189 c -0.79821,0.7476 -1.62252,1.48081 -2.37217,2.26489 -0.50415,0.3615 -1.00062,1.12254 -1.59138,1.52582 1.75407,1.08181 3.41744,2.10592 4.85163,2.97415 0.39277,0.28207 1.33064,-0.3488 2.08608,-1.40065 0.75543,-1.05181 1.0484,-2.12583 0.65562,-2.40793 -1.0816,-0.90442 -2.31083,-1.90309 -3.62978,-2.95628 z m 4.0768,4.11852 c -0.27569,1.04597 -1.0029,2.01237 -1.90131,2.64634 l 0.87019,0.5841 c 0.39139,0.26539 0.92221,0.16782 1.19205,-0.22052 l 0.88807,-1.27549 c 0.26991,-0.38829 0.17683,-0.90879 -0.21457,-1.17417 z"
       id="path3627"
       inkscape:connector-curvature="0" />
  </g>
</svg>
