<?xml version="1.0" encoding="utf-8"?>
<!-- Generator: Adobe Illustrator 18.0.0, SVG Export Plug-In . SVG Version: 6.00 Build 0)  -->
<!DOCTYPE svg PUBLIC "-//W3C//DTD SVG 1.1//EN" "http://www.w3.org/Graphics/SVG/1.1/DTD/svg11.dtd">
<svg version="1.1" id="Ebene_1" xmlns="http://www.w3.org/2000/svg" xmlns:xlink="http://www.w3.org/1999/xlink" x="0px" y="0px"
	 viewBox="0 0 578.6 274.3" enable-background="new 0 0 578.6 274.3" xml:space="preserve">
<g>
	<path fill="#95C233" d="M144,174.2h-36.7v-53.5l-13.9-17.4l-40.3,70.8H10l56.9-94.1L12.7,10.2h45.8l37,54.4
		c4,5.7,7.8,11.6,11.5,17.9h0.6V10h36.7L144,174.2L144,174.2z"/>
	<path fill="#95C233" d="M211.6,10.4v163.8h-37V10.4H211.6z"/>
	<path fill="#95C233" d="M275,174.2L236,10.4h39.7l12.4,67.4c3.6,19.7,7.1,40.9,9.7,57.5h0.6c2.7-17.8,6.7-37.4,10.7-57.8l13.9-66.8
		h39.3l13.2,68.9c3.6,19.1,6.3,36.7,8.8,55h0.6c2.5-18.1,6.1-37.4,9.4-57.1l13.4-66.8h37.6l-42.2,163.8H363l-13.9-70.4
		c-3.1-16.4-5.7-31.9-7.8-50.6h-0.6c-3.1,18.5-5.5,34-9.4,50.6l-15.5,70.4L275,174.2L275,174.2z"/>
	<path fill="#95C233" d="M506.6,10.4v163.8h-37V10.4H506.6z"/>
</g>
<g>
	<path fill="#9D9C9C" d="M54.5,224.6c0,16.8-10.1,25.6-22.5,25.6c-12.8,0-22-9.9-22-24.6c0-15.5,9.5-25.6,22.5-25.6
		C45.9,200,54.5,210.3,54.5,224.6z M16.9,225.4c0,10.3,5.7,19.7,15.5,19.7c9.9,0,15.5-9.2,15.5-20c0-9.5-5-19.7-15.5-19.7
		C22,205.1,16.9,214.7,16.9,225.4z"/>
	<path fill="#9D9C9C" d="M66.1,225.9c0-4.4-0.2-8-0.2-11.3h5.7l0.2,5.9H72c2.5-4.2,6.7-6.7,12.4-6.7c8.4,0,14.7,7.1,14.7,17.8
		c0,12.6-7.6,18.7-15.8,18.7c-4.6,0-8.6-2.1-10.9-5.5h-0.2v18.9h-6.3L66.1,225.9L66.1,225.9z M72.2,235.3c0,1,0.2,1.7,0.2,2.5
		c1.1,4.4,5,7.4,9.4,7.4c6.7,0,10.5-5.5,10.5-13.6c0-7.1-3.6-13-10.3-13c-4.4,0-8.4,3.1-9.5,7.8c-0.2,0.8-0.4,1.7-0.4,2.5
		L72.2,235.3L72.2,235.3z"/>
	<path fill="#9D9C9C" d="M114,233c0.2,8.6,5.7,12.2,12,12.2c4.6,0,7.3-0.8,9.5-1.7l1.1,4.6c-2.3,1-6.1,2.1-11.6,2.1
		c-10.9,0-17.2-7.1-17.2-17.6c0-10.5,6.3-18.7,16.4-18.7c11.3,0,14.5,9.9,14.5,16.4c0,1.3-0.2,2.3-0.2,3.1h-24.4V233H114z
		 M132.8,228.6c0.2-4-1.5-10.3-8.8-10.3c-6.3,0-9.2,5.9-9.7,10.3H132.8z"/>
	<path fill="#9D9C9C" d="M150.3,224c0-3.6-0.2-6.7-0.2-9.4h5.7l0.4,5.7h0.2c1.7-3.4,5.7-6.7,11.5-6.7c4.8,0,12.2,2.9,12.2,14.9v20.8
		h-6.3v-20c0-5.7-2.1-10.3-8-10.3c-4.2,0-7.4,3.1-8.6,6.5c-0.2,0.8-0.4,1.9-0.4,3.1v21h-6.3V224H150.3z"/>
	<path fill="#9D9C9C" d="M201.1,204.7c0.2,2.1-1.5,4-4,4c-2.3,0-3.8-1.7-3.8-4s1.5-4,4-4C199.6,200.7,201.1,202.4,201.1,204.7z
		 M193.9,249.4v-34.7h6.3v34.7H193.9z"/>
	<path fill="#9D9C9C" d="M214.5,224c0-3.6-0.2-6.7-0.2-9.4h5.7l0.4,5.7h0.2c1.7-3.4,5.7-6.7,11.5-6.7c4.8,0,12.2,2.9,12.2,14.9v20.8
		h-6.5v-20c0-5.7-2.1-10.3-8-10.3c-4.2,0-7.4,3.1-8.6,6.5c-0.2,0.8-0.4,1.9-0.4,3.1v21h-6.3V224z"/>
	<path fill="#9D9C9C" d="M288.2,214.5c-0.2,2.5-0.2,5.3-0.2,9.5v20.2c0,8-1.5,13-5,15.8c-3.4,3.2-8.2,4.2-12.6,4.2
		c-4.2,0-8.8-1-11.6-2.9l1.5-4.8c2.3,1.5,5.9,2.7,10.3,2.7c6.5,0,11.3-3.4,11.3-12.2v-4h-0.2c-1.9,3.2-5.7,5.7-11.1,5.7
		c-8.6,0-14.9-7.3-14.9-17c0-11.8,7.6-18.5,15.7-18.5c6.1,0,9.4,3.1,10.9,6.1h0.2l0.2-5.3L288.2,214.5L288.2,214.5z M281.5,228.4
		c0-1.1-0.2-2.1-0.4-2.9c-1.1-3.6-4.4-6.7-9-6.7c-6.1,0-10.3,5.2-10.3,13.2c0,6.9,3.4,12.6,10.3,12.6c4,0,7.4-2.5,8.8-6.5
		c0.4-1.1,0.6-2.3,0.6-3.4L281.5,228.4L281.5,228.4z"/>
	<path fill="#9D9C9C" d="M321,201.5c3.8-0.6,8.4-1,13.4-1c9,0,15.5,2.1,19.7,6.1c4.4,4,6.9,9.5,6.9,17.4c0,8-2.5,14.5-7.1,18.9
		c-4.6,4.6-12,7.1-21.4,7.1c-4.4,0-8.2-0.2-11.3-0.6L321,201.5L321,201.5z M327.3,244.4c1.5,0.2,4,0.4,6.3,0.4
		c13.4,0,20.6-7.4,20.6-20.6c0.2-11.5-6.3-18.7-19.7-18.7c-3.2,0-5.7,0.2-7.3,0.8V244.4z"/>
	<path fill="#9D9C9C" d="M404.2,231.7c0,13-9,18.5-17.4,18.5c-9.4,0-16.8-6.9-16.8-17.9c0-11.6,7.6-18.5,17.4-18.5
		C397.6,213.7,404.2,221,404.2,231.7z M376.6,232c0,7.6,4.4,13.4,10.5,13.4s10.5-5.7,10.5-13.6c0-5.9-3.1-13.4-10.3-13.4
		C379.8,218.5,376.6,225.4,376.6,232z"/>
	<path fill="#9D9C9C" d="M447.4,231.7c0,13-9,18.5-17.4,18.5c-9.4,0-16.8-6.9-16.8-17.9c0-11.6,7.6-18.5,17.4-18.5
		C440.7,213.7,447.4,221,447.4,231.7z M419.7,232c0,7.6,4.4,13.4,10.5,13.4c6.1,0,10.5-5.7,10.5-13.6c0-5.9-3.1-13.4-10.3-13.4
		C423.1,218.5,419.7,225.4,419.7,232z"/>
	<path fill="#9D9C9C" d="M459,225.4c0-4-0.2-7.6-0.2-10.9h5.5l0.2,6.9h0.2c1.5-4.8,5.3-7.6,9.5-7.6c0.8,0,1.1,0.2,1.7,0.2v5.9
		c-0.8-0.2-1.3-0.2-2.1-0.2c-4.4,0-7.6,3.4-8.6,8c-0.2,0.8-0.2,1.9-0.2,3.1v18.7h-6.3v-24.1H459z"/>
	<path fill="#9D9C9C" d="M485.4,242.9c1.9,1.1,5.2,2.5,8.4,2.5c4.6,0,6.7-2.3,6.7-5.2c0-3.1-1.7-4.8-6.5-6.3
		c-6.3-2.3-9.2-5.7-9.2-9.9c0-5.7,4.6-10.3,12-10.3c3.4,0,6.7,1,8.6,2.1l-1.5,4.6c-1.3-0.8-4-2.1-7.1-2.1c-3.8,0-5.7,2.1-5.7,4.8
		c0,2.9,2.1,4.2,6.7,5.9c6.1,2.3,9.2,5.3,9.2,10.5c0,6.1-4.8,10.3-13.2,10.3c-3.8,0-7.3-1-9.9-2.5L485.4,242.9z"/>
</g>
<path fill="#9D9C9C" d="M547.2,14.6c9.4,0,16,7.6,16,16.8s-6.7,16.4-15.8,16.4c-9.4,0-16.4-7.4-16.4-16.6
	C531,22,537.9,14.6,547.2,14.6 M547.2,10.4c-12,0-21.4,9.4-21.4,21c0,11.8,9.5,21,21.4,21c12.2,0,21.4-9.4,21.4-21
	C568.4,19.5,559.3,10.4,547.2,10.4 M544,24.3c0.6-0.2,1.3-0.2,2.7-0.2c3.1,0,4.4,1.1,4.4,3.2s-2.1,3.1-4.8,3.1H544L544,24.3
	L544,24.3z M543.8,33.9h2.3c2.7,0,4,1.1,4.4,3.4c0.8,2.5,1.1,4.4,1.5,5.2h5.3c-0.6-0.8-1-2.1-1.5-5.3c-0.8-2.9-1.7-4.4-3.8-5.2v-0.2
	c2.5-0.8,4.4-2.5,4.4-4.8c0-2.1-1-3.6-2.1-4.6c-1.5-1-3.4-1.5-7.3-1.5c-3.4,0-6.1,0.2-8,0.8v21h4.8L543.8,33.9L543.8,33.9z"/>
</svg>
