<svg width="64" height="32" viewBox="0 0 16.93 8.47" xmlns="http://www.w3.org/2000/svg"><path d="M4.66 5.47H3.45V3.7l-.46-.57-1.34 2.34H.23L2.1 2.36.31.05h1.52l1.62 2.39V.04h1.22zM6.9.05v5.42H5.68V.05zM9 5.47L7.7.05h1.32l.74 4.14.83-4.13h1.3l.74 4.1.76-4.1h1.25l-1.4 5.42H11.9l-.73-4-.83 4zM16.66.05v5.42h-1.22V.05z" fill="#95c233"/><path d="M1.7 7.14c0 .56-.33.85-.74.85-.43 0-.73-.33-.73-.81 0-.52.31-.85.74-.85.45 0 .73.34.73.81zm-1.24.03c0 .34.19.65.5.65.34 0 .52-.3.52-.66 0-.32-.16-.65-.51-.65-.34 0-.51.3-.51.66zm1.62-.36h.19v.2a.48.48 0 01.42-.23c.28 0 .49.24.49.6 0 .41-.25.61-.53.61a.43.43 0 01-.36-.18v.63h-.21zm.21.77c.03.14.17.24.31.24.23 0 .35-.18.35-.45 0-.23-.12-.43-.34-.43-.14 0-.28.1-.31.26-.02.12-.03.29-.01.38zm1.38-.15c0 .29.19.4.4.4.15 0 .24-.03.31-.06l.04.15a.96.96 0 01-.39.07c-.36 0-.56-.24-.56-.58 0-.35.2-.62.54-.62.37 0 .48.33.48.54v.1zm.62-.16c0-.13-.05-.34-.29-.34-.2 0-.3.2-.32.34zm.58-.46h.2V7a.42.42 0 01.38-.22c.16 0 .4.1.4.5v.68h-.2V7.3c0-.2-.07-.34-.27-.34-.13 0-.28.1-.29.21v.8h-.21zm1.68-.33c0 .07-.05.14-.13.14s-.13-.06-.13-.14c0-.07.05-.13.14-.13.08 0 .12.06.12.13zm-.24 1.48V6.81h.21v1.15zM7 6.82h.18l.01.18c.06-.11.2-.22.39-.22.16 0 .4.1.4.5v.69h-.22V7.3c.01-.2-.06-.34-.26-.34-.14 0-.29.1-.29.21v.8H7zm2.42-.03l.01 1c0 .27-.05.43-.17.52a.65.65 0 01-.41.14.78.78 0 01-.39-.1l.05-.15c.08.05.2.09.34.09.22 0 .38-.12.38-.4v-.14c-.07.1-.2.19-.38.19-.28 0-.49-.24-.49-.56 0-.4.25-.62.52-.62.2 0 .31.1.36.2v-.17zm-.21.48a.3.3 0 00-.31-.32c-.2 0-.34.17-.34.44 0 .23.11.41.34.41.2 0 .31-.1.31-.32zm1.31-.89c.13-.02.28-.04.45-.04.3 0 .5.07.65.2.14.14.23.32.23.58 0 .27-.09.48-.24.63s-.4.23-.7.23a3 3 0 01-.38-.02zm.21 1.42l.2.01c.45 0 .69-.24.69-.68 0-.38-.2-.62-.65-.62-.1 0-.19 0-.24.03zm2.55-.42c0 .43-.3.6-.58.6-.31 0-.56-.22-.56-.58 0-.39.25-.62.58-.62.34 0 .56.24.56.6zm-.57.45c.2 0 .35-.19.35-.45 0-.2-.1-.44-.34-.44-.25 0-.36.21-.36.46s.15.43.35.43zm1.42.15c-.31 0-.56-.22-.56-.58 0-.39.25-.62.58-.62s.56.22.55.64c0 .4-.3.56-.57.56zm.01-.15c.2 0 .34-.19.34-.45 0-.2-.1-.44-.34-.44s-.35.21-.35.46.14.43.35.43zm.94-1.03h.2l-.01.24c.11-.2.23-.26.38-.26v.21c-.22 0-.36.18-.36.26v.73h-.21zm.88.95a.6.6 0 00.28.08c.15 0 .22-.08.22-.17 0-.1-.05-.16-.21-.21-.21-.08-.3-.19-.3-.33 0-.19.15-.34.39-.34.11 0 .22.03.28.07l-.04.15a.47.47 0 00-.24-.07c-.13 0-.19.07-.19.16 0 .1.07.14.22.2.2.07.3.17.3.35 0 .2-.15.34-.43.34a.67.67 0 01-.33-.09z" fill="#9d9c9c"/></svg>