<svg width="37" height="37" viewBox="-2.54 -2.54 18.27 18.32" xmlns="http://www.w3.org/2000/svg"><path d="M6.6-1.73c-.17 0-.33.02-.48.07L.08 1.26c-.3.14-.5.4-.6.73L-2 8.52c-.06.34.02.68.22.95l4.18 5.18c.24.24.58.4.92.42h6.67c.35.04.7-.12.9-.42l4.2-5.18c.2-.27.27-.61.23-.95l-1.51-6.5a1.3 1.3 0 00-.63-.72L7.12-1.6a1.55 1.55 0 00-.52-.13zM6.65.43c.38 0 .38.31.36.53 0 .13-.04.29-.07.43-.02.13-.03.41-.03.62.02.06.04.12.07.13l.05.17c.94.1 1.83.45 2.57 1.03.17.16.35.32.5.48l.18-.09c.07 0 .14.03.2-.03.19-.12.36-.27.5-.44.09-.08.18-.21.3-.29.19-.14.4-.18.57.02.18.2.08.46-.14.63-.1.09-.22.12-.34.18-.19.12-.37.24-.55.4a.26.26 0 00-.06.15l-.12.16c.32.5.55 1.05.7 1.63.11.58.15 1.17.07 1.75l.18.07c0 .03.06.08.12.1.23.07.45.1.68.13.16.01.35.02.5.07.19.06.42.18.35.45-.07.26-.26.29-.54.2-.15-.03-.28-.1-.43-.15-.2-.08-.42-.14-.57-.16-.15-.02-.2 0-.24.03h-.19a4.9 4.9 0 01-2.14 2.7l.03.2c-.02.05-.03.12 0 .19.07.2.18.4.25.5.1.15.2.26.28.4.11.22.15.47-.1.6s-.45.03-.6-.27c-.06-.13-.11-.3-.14-.46a2.96 2.96 0 00-.23-.51.36.36 0 00-.13-.12l-.13-.16c-.2.06-.42.14-.64.18-.93.23-1.9.16-2.8-.18l-.1.18a.36.36 0 00-.15.12c-.1.19-.2.39-.26.6-.05.16-.08.3-.18.43-.1.15-.27.32-.52.2-.24-.12-.26-.35-.15-.54.08-.13.19-.25.27-.38.12-.17.23-.38.32-.6.02-.05.02-.13 0-.17l.06-.18a4.79 4.79 0 01-2.16-2.68l-.2-.01c-.04-.03-.1-.05-.26-.03-.22.06-.48.12-.7.2-.18.06-.28.1-.43.12-.18.03-.34-.03-.4-.28-.05-.25.1-.43.32-.46.12-.02.22-.02.36-.05.25-.04.51-.07.8-.14.05-.04.11-.08.13-.12l.17-.08a4.7 4.7 0 01.7-3.26l.06-.1-.1-.13c0-.02-.04-.1-.08-.14-.18-.15-.41-.35-.67-.46-.08-.05-.21-.1-.3-.18-.15-.14-.22-.38-.08-.55.15-.17.32-.21.56-.04.08.07.17.13.24.23.18.18.34.37.57.54.04.03.14.07.21.02l.13.08a4.76 4.76 0 012.44-1.39c.24-.04.46-.08.67-.1l.05-.2a.6.6 0 00.07-.16c0-.23 0-.45-.02-.59-.02-.12-.07-.29-.08-.46-.01-.23.07-.51.45-.51zM6.1 3.36l-.4.09h.01c-.7.15-1.33.5-1.85 1l1.65 1.18c.22.1.48-.01.5-.28l.1-1.99zm.96.03l.12 2c.03.26.26.37.5.22L9.3 4.45a3.74 3.74 0 00-2.24-1.06zM3.3 5.18a4.14 4.14 0 00-.58 2.42l1.93-.56a.33.33 0 00.12-.56L3.3 5.18zm6.61.01L8.41 6.54c-.16.16-.14.44.16.53l1.88.54c.04-.42.02-.83-.08-1.26v.01c-.1-.42-.26-.81-.47-1.17zM6.3 6.6l-.37.47.14.58.53.26.54-.26.13-.58-.38-.47h-.6zM4.9 8.19l-1.96.34c.24.73.82 1.38 1.54 1.97l.74-1.85c.09-.26-.07-.48-.32-.46zm3.37 0c-.22-.03-.45.17-.36.4l.76 1.88c.48-.3.9-.72 1.2-1.19h.01c.15-.22.27-.48.37-.76l-1.98-.33zm-1.67.8a.28.28 0 00-.29.15l-.97 1.76c.68.22 1.4.25 2.1.1.14-.04.26-.06.38-.08L6.88 9.2a.35.35 0 00-.27-.22z" fill="#326de6"/></svg>