<svg xmlns="http://www.w3.org/2000/svg" viewBox="-2.54 -2.54 103.71 18.32" height="37" width="210"><path d="M14.51 2.03c-.1-.31-.33-.57-.63-.73L7.83-1.6c-.16-.08-.34-.1-.5-.1-.16 0-.34 0-.5.04L.79 1.26c-.3.14-.51.4-.6.73L-1.3 8.52c-.06.34.02.68.22.95l4.18 5.18c.24.24.58.4.92.42h6.67c.35.04.69-.12.9-.42l4.2-5.18c.2-.27.27-.61.23-.95z" fill="#326de6"/><path d="M13.58 8.26c-.02 0-.04 0-.04-.02s-.04-.02-.08-.02c-.08-.02-.16-.02-.23-.02l-.12-.01h-.02a4.01 4.01 0 0 1-.68-.12.24.24 0 0 1-.14-.14c.02 0 0 0 0 0l-.16-.04c.08-.58.04-1.17-.08-1.75a5.38 5.38 0 0 0-.69-1.63l.12-.12v-.02c0-.05.02-.13.06-.17.18-.16.36-.28.55-.4l.12-.06.22-.12.06-.04c.02-.02 0-.02 0-.04.18-.14.22-.38.08-.55a.38.38 0 0 0-.28-.14c-.1 0-.2.04-.28.1l-.02.02c-.01.02-.03.04-.05.04-.06.06-.12.11-.16.17-.02.04-.06.06-.08.08a2.6 2.6 0 0 1-.5.44c-.04.02-.08.04-.12.04-.02 0-.06 0-.08-.02h-.02l-.16.1c-.15-.16-.33-.32-.5-.48a5.08 5.08 0 0 0-2.57-1.03l-.02-.16v.02c-.06-.04-.08-.1-.1-.16 0-.21 0-.43.04-.67v-.02l.02-.12.04-.24V.84a.4.4 0 0 0-.34-.41c-.12-.02-.24.04-.34.13a.4.4 0 0 0-.12.28v.1c0 .08.02.16.04.24.02.04.02.08.02.12v.02c.04.22.04.44.04.67-.02.06-.04.12-.1.16v.04l-.02.16c-.21.02-.43.06-.67.1-.93.2-1.79.7-2.44 1.39l-.12-.08h-.02l-.08.02a.28.28 0 0 1-.12-.04c-.18-.14-.36-.3-.5-.46-.01-.04-.05-.06-.07-.08l-.16-.17-.06-.04-.02-.02a.47.47 0 0 0-.28-.1c-.12 0-.22.04-.28.14a.43.43 0 0 0 .08.55c.02 0 .02.02.02.02s.04.04.06.04l.22.12.12.06c.2.12.4.24.55.4.04.04.08.12.06.17v-.01l.12.11-.06.1a4.71 4.71 0 0 0-.7 3.26l-.15.04c0 .02-.02.02-.02.02-.02.06-.08.1-.14.14-.22.06-.44.1-.67.12-.04 0-.08 0-.12.02l-.24.02-.08.01-.04.02a.39.39 0 0 0-.32.46c.04.18.22.3.4.28.04 0 .06 0 .1-.02.02 0 .02 0 .02-.02s.06 0 .08 0l.22-.08c.04-.02.08-.04.12-.04h.02c.21-.08.41-.14.65-.18h.02c.06 0 .12.02.16.06.02 0 .02.02.02.02l.18-.02a4.79 4.79 0 0 0 2.16 2.68l-.1.14c0 .02.02.02.02.02.04.06.04.14.02.2-.08.2-.2.4-.32.57v.02l-.08.1c-.04.04-.08.12-.13.2l-.04.06s0 .02-.02.02a.4.4 0 0 0 .15.54c.04.02.1.04.14.04.16 0 .3-.1.38-.24 0 0 0-.02.02-.02 0-.02.02-.04.04-.06l.08-.22.04-.12c.06-.22.16-.42.26-.61a.3.3 0 0 1 .16-.12c.02 0 .02 0 .02-.02l.07-.16a4.67 4.67 0 0 0 2.8.18c.22-.04.44-.12.64-.18l.08.14c.02 0 .02 0 .02.02a.3.3 0 0 1 .16.12c.1.2.2.4.25.61v.02l.04.12c.02.08.04.16.08.22l.04.06s0 .02.02.02c.08.14.22.24.38.24.06 0 .1-.02.16-.04a.33.33 0 0 0 .18-.22c.02-.1.02-.2-.02-.3 0-.02-.02-.02-.02-.02 0-.02-.02-.04-.04-.06a.71.71 0 0 0-.14-.2l-.08-.1v-.04a2.34 2.34 0 0 1-.32-.57.23.23 0 0 1 .02-.2c0-.02.02-.02.02-.02l-.06-.16a4.9 4.9 0 0 0 2.14-2.7l.16.02c.02 0 .02-.02.02-.02.04-.04.1-.06.16-.06h.02c.22.04.44.1.64.18h.02c.04.02.08.04.12.04.08.04.13.08.21.1l.08.02.04.02c.04.02.06.02.1.02.18 0 .34-.12.4-.28a.47.47 0 0 0-.36-.42zm-5.73-.61l-.54.26-.53-.26-.14-.58L7 6.6h.6l.38.47zm3.23-1.3c.1.43.12.84.08 1.26l-1.88-.54c-.18-.04-.28-.21-.24-.4.02-.05.04-.1.08-.13l1.49-1.35c.21.36.37.75.47 1.17zm-1.07-1.9L8.38 5.61c-.14.07-.33.05-.43-.08a.18.18 0 0 1-.06-.14l-.12-2c.87.1 1.65.47 2.24 1.06zm-3.6-1l.4-.09-.1 1.99c0 .18-.15.31-.33.31-.06 0-.1-.01-.16-.03L4.57 4.45c.52-.5 1.15-.85 1.85-1zM4 5.18l1.47 1.3c.13.13.15.33.04.46-.04.06-.08.08-.16.1l-1.93.56c-.06-.83.14-1.69.58-2.42zm-.34 3.35l1.96-.34c.16 0 .32.1.34.26.02.06.02.14-.02.2L5.2 10.5a3.9 3.9 0 0 1-1.53-1.95zM8.16 11a4.02 4.02 0 0 1-2.1-.1l.97-1.76a.3.3 0 0 1 .4-.08 1 1 0 0 1 .16.14l.95 1.72c-.12.02-.24.04-.38.08zm2.43-1.72c-.3.47-.72.89-1.2 1.19L8.63 8.6a.32.32 0 0 1 .18-.38.58.58 0 0 1 .18-.03l1.98.33c-.1.28-.22.54-.37.76z" fill="#fff"/><path d="M94.82 10.7c.28.03.58-.01.84-.11a.44.44 0 0 0 .24-.44c-.02-.2-.14-.38-.32-.44-.3-.18-.64-.33-.97-.43a7.87 7.87 0 0 1-.92-.4 2.7 2.7 0 0 1-.7-.48c-.19-.2-.33-.41-.43-.67a2.5 2.5 0 0 1-.16-.93c-.02-.66.28-1.3.8-1.7a3.42 3.42 0 0 1 2.16-.6c.44 0 .9.03 1.33.13.34.06.67.14 1.01.26l-.38 1.69c-.27-.1-.53-.16-.81-.24-.32-.08-.65-.1-.97-.1-.68 0-1.01.18-1.01.56a1 1 0 0 0 .04.23c.04.08.1.14.17.2.08.06.2.12.34.2.14.08.34.16.58.24.4.14.8.32 1.15.52.28.13.51.31.71.55.18.18.3.4.38.66.08.27.12.55.12.83a1.9 1.9 0 0 1-.85 1.7c-.56.38-1.35.58-2.39.58a6.03 6.03 0 0 1-1.68-.18c-.32-.08-.62-.18-.92-.28l.36-1.74c.36.14.74.26 1.11.34.4.02.78.06 1.17.06M83.9 8.52c-.02-.6.1-1.19.3-1.74.18-.48.45-.9.81-1.27a3.55 3.55 0 0 1 2.5-1.01c1.07 0 1.93.33 2.54.99.62.65.93 1.62.93 2.9 0 .11 0 .25-.02.41l-.02.4H86.1c.04.41.26.81.62 1.05.43.28.95.42 1.47.4.37 0 .77-.04 1.15-.1.31-.06.63-.16.93-.3l.3 1.75c-.14.07-.3.11-.46.17-.22.06-.44.12-.65.14l-.76.12c-.26.02-.53.04-.81.04a4.57 4.57 0 0 1-1.79-.3 3.5 3.5 0 0 1-1.25-.81c-.34-.36-.57-.8-.73-1.25a6.37 6.37 0 0 1-.22-1.59m5.02-.81c0-.18-.04-.36-.1-.54-.04-.18-.14-.31-.24-.45a1.36 1.36 0 0 0-.41-.34c-.2-.1-.4-.14-.62-.14-.22 0-.42.04-.61.14-.16.08-.32.18-.44.32s-.22.3-.28.47c-.06.18-.1.36-.12.54h2.82M78.08 2.79l2.14-.34v2.22h2.58v1.79h-2.58v2.66c-.02.37.06.75.24 1.07.16.26.47.4.97.4a3.93 3.93 0 0 0 1.37-.24l.3 1.66c-.28.12-.58.2-.88.28-.37.08-.77.12-1.17.12-.5.02-.99-.06-1.45-.24a2.34 2.34 0 0 1-.9-.65c-.25-.3-.4-.66-.5-1.03-.1-.44-.14-.9-.12-1.33V2.79M69.4 8.52c-.02-.6.1-1.19.3-1.74.18-.48.46-.9.81-1.27a3.55 3.55 0 0 1 2.5-1.01c1.08 0 1.93.33 2.55.99.61.65.93 1.62.93 2.9 0 .11 0 .25-.02.41-.02.16-.02.28-.02.4h-4.86c.04.41.25.81.61 1.05.44.28.95.42 1.47.4.38 0 .77-.04 1.15-.1.32-.06.64-.16.95-.3l.3 1.75c-.14.07-.3.11-.46.17-.21.06-.43.12-.65.14l-.75.12c-.26.02-.54.04-.82.04a4.57 4.57 0 0 1-1.78-.3 3.5 3.5 0 0 1-1.25-.81c-.34-.36-.58-.8-.74-1.25a4.94 4.94 0 0 1-.22-1.59m5.02-.81c0-.18-.04-.36-.1-.54-.03-.18-.13-.31-.23-.45a1.36 1.36 0 0 0-.42-.34c-.2-.1-.4-.14-.62-.14a1.33 1.33 0 0 0-1.03.46c-.12.14-.22.3-.27.47-.06.18-.1.36-.12.54h2.8M61.26 4.93a11.07 11.07 0 0 1 3.21-.44c.54-.02 1.07.08 1.59.26.4.14.75.38 1.01.7.26.31.44.7.54 1.09.12.45.16.93.16 1.4v4.27h-2.13V8.22c0-.69-.1-1.17-.27-1.46-.18-.28-.52-.44-1.02-.44-.16 0-.31 0-.5.02-.17 0-.31.02-.45.04v5.83h-2.14V4.93m-1.51 1.65c-.2-.04-.42-.1-.68-.14a3.95 3.95 0 0 0-.83-.08c-.16 0-.32.02-.5.04-.13.02-.27.04-.41.08v5.77H55.2V5.07c.43-.16.89-.28 1.34-.38.58-.14 1.18-.2 1.75-.18l.42.02c.16 0 .32.02.5.06.15.02.31.04.49.08.14.02.28.06.42.12l-.36 1.79m-13.02.2c.18-.48.46-.9.82-1.27a3.55 3.55 0 0 1 2.5-1.01c1.07 0 1.92.33 2.54.99.61.65.93 1.62.93 2.87 0 .12 0 .26-.02.42-.02.16-.02.28-.02.4h-4.86c.04.41.25.81.61 1.05.44.28.95.42 1.47.4a5.04 5.04 0 0 0 2.08-.38l.3 1.75c-.14.07-.3.11-.45.17-.22.06-.44.12-.66.14l-.75.12c-.26.02-.54.04-.82.04a4.57 4.57 0 0 1-1.78-.3 3.5 3.5 0 0 1-1.25-.81c-.34-.36-.58-.8-.74-1.25a7.24 7.24 0 0 1-.2-1.59c-.02-.6.1-1.19.3-1.74zm4.74.93c0-.18-.05-.36-.1-.54-.1-.38-.36-.6-.65-.8-.19-.11-.4-.13-.61-.13-.22 0-.42.05-.62.14-.37.17-.56.47-.71.8-.08.16-.1.35-.12.53h2.81m-8.5.7c0-1.4-.52-2.07-1.54-2.07-.44-.02-.8.12-1.17.3v3.89a6 6 0 0 0 .94.08c.51.04 1-.18 1.32-.6.3-.48.46-1.03.44-1.6m1.9 1.72a3.57 3.57 0 0 1-1.98 2.06c-.53.2-1.09.28-1.67.28a11.6 11.6 0 0 1-3.07-.44V1.42l2.14-.34v3.77a4.4 4.4 0 0 1 1.59-.32c.5 0 .97.08 1.43.3.85.44 1.44 1.2 1.67 2.05a7 7 0 0 1 .17 1.6c0 .56-.08 1.11-.27 1.65zm-8.76 1.85c-.46.11-.94.2-1.41.27-1.17.14-2.38.26-3.42-.12-.4-.14-.74-.38-1-.71a4.3 4.3 0 0 1-.7-2.56V4.67h2.14v3.95c0 .7.1 1.2.28 1.49.18.3.51.46 1.01.46.33 0 .65-.04.95-.08V4.67h2.15v7.3M23.6 7.42l1.3-1.45c.39-.43.73-.85 1.1-1.27h2.53l-1.48 1.69c-.5.54-1.02 1.1-1.6 1.65a16.14 16.14 0 0 1 3.18 4.24h-2.46c-.38-.6-.77-1.18-1.15-1.72a8.96 8.96 0 0 0-1.43-1.57v3.31h-2.14V1.42l2.14-.34v6.33"/></svg>