<?xml version="1.0" encoding="utf-8"?>
<!-- Generator: Adobe Illustrator 17.1.0, SVG Export Plug-In . SVG Version: 6.00 Build 0)  -->
<!DOCTYPE svg PUBLIC "-//W3C//DTD SVG 1.1//EN" "http://www.w3.org/Graphics/SVG/1.1/DTD/svg11.dtd">
<svg version="1.1" id="Layer_1" xmlns="http://www.w3.org/2000/svg" xmlns:xlink="http://www.w3.org/1999/xlink" x="0px" y="0px"
	 viewBox="0 0 36 36" enable-background="new 0 0 36 36" xml:space="preserve">
<g>
	<g>
		<path fill="#0065A1" d="M33.34,0H2.66C1.19,0,0,1.16,0,2.6V33.4C0,34.84,1.19,36,2.66,36h30.68C34.8,36,36,34.84,36,33.4V2.6
			C36,1.16,34.8,0,33.34,0z"/>
		<path fill="#FFFFFF" d="M5.33,13.5h5.34v17.18H5.33V13.5z M8.01,4.96c1.71,0,3.09,1.39,3.09,3.1c0,1.71-1.39,3.1-3.09,3.1
			c-1.71,0-3.1-1.39-3.1-3.1C4.91,6.34,6.29,4.96,8.01,4.96"/>
		<path fill="#FFFFFF" d="M14.03,13.5h5.12v2.35h0.07c0.71-1.35,2.45-2.77,5.05-2.77c5.41,0,6.41,3.56,6.41,8.18v9.42h-5.34v-8.35
			c0-1.99-0.03-4.56-2.77-4.56c-2.78,0-3.2,2.17-3.2,4.41v8.5h-5.33V13.5z"/>
	</g>
</g>
</svg>
