<svg viewBox="0 0 495 495" xmlns="http://www.w3.org/2000/svg"><path d="M88.7 463.5c25.5 3 54.2 19.6 78.2 22.5 24.1 3 31.6-16.4 31.6-16.4s27.2-6.1 55.7-6.8c28.6-.8 55.7 6 55.7 6s5.2 12 15 17.2c9.8 5.4 30.9 6 44.4-8.2 13.5-14.3 49.7-32.4 70-43.7 20.3-11.3 16.6-28.5 3.8-33.8-12.8-5.2-23.3-13.5-22.5-29.4.7-15.7-11.3-26.2-11.3-26.2s10.5-34.6.7-63.3c-9.8-28.6-42.1-74.5-67-109-24.8-34.6-3.7-74.6-26.3-125.7C294-4.5 235.4-1.5 203.9 20.4c-31.6 21.8-22 75.8-20.4 101.6 1.5 25.5.7 43.8-2.2 50.3-3 6.7-23.3 30.9-36.9 51.2-13.5 20.4-23.3 62.5-33.2 79.8-9.7 17.3-3 33-3 33s-6.7 2.4-12 13.7c-5.3 11.2-15.8 16.5-34.7 20.1-18.7 3.9-18.7 16-14.2 29.5s0 21.1-5.2 38.4c-5.3 17.2 21 22.5 46.6 25.5zM354 384.8c13.4 5.8 32.7-2.3 38.5-8.2 5.9-5.8 10-14.5 10-14.5s5.9 2.9 5.3 12.2c-.6 9.4 4 22.8 12.8 27.4 8.8 4.7 22.2 11.1 15.3 17.6-7.1 6.5-46.3 22.2-58 34.5-11.6 12.2-26.9 22.2-36.1 19.3-9.4-3-17.6-15.7-13.6-34.5 4.2-18.7 7.7-39.2 7.1-50.9-.6-11.7-3-27.5 0-29.8 3-2.3 7.6-1.2 7.6-1.2s-2.3 22.2 11 28zM267 68.6c12.9 0 23.3 12.8 23.3 28.5 0 11.2-5.3 21-13 25.6l-6.1-2.7c4.6-2.3 7.9-8.1 7.9-15 0-8.8-5.5-16-12.3-16-6.7 0-12.2 7.2-12.2 16 0 3.3.8 6.6 2 9l-10.5-4a34.8 34.8 0 01-2.4-12.9c0-15.7 10.3-28.5 23.3-28.5zm-32 49.2c6.3 1.1 23.8 8.7 30.3 11 6.4 2.2 13.6 6.4 12.9 10.5-.8 4.3-4.2 4.3-13 9.6-8.6 5.3-27.6 17-33.7 17.8-6 .8-9.4-2.6-16-6.8-6.4-4.2-18.5-14.1-15.4-19.4 0 0 9.4-7.2 13.6-11 4.1-3.8 14.8-12.9 21.3-11.7zm-27.9-44.7c10.2 0 18.5 12.1 18.5 27 0 2.8-.3 5.3-.8 7.8-2.5.8-5 2.2-7.5 4.3L214 115c1.6-3 2.2-7.4 1.5-12-1.4-8-6.9-14-12.2-13.1-5.4.9-8.6 8.2-7.3 16.4 1.4 8.3 6.8 14.3 12.2 13.3l1-.3c-2.7 2.6-5.1 4.8-7.6 6.6-7.4-3.4-12.9-13.7-12.9-25.8 0-15 8.2-27 18.4-27zm-56.7 195.5c10.5-16.5 17.2-52.7 27.7-64.7 10.6-12 18.8-37.5 15-48.8 0 0 22.7 27 38.4 22.6 15.8-4.6 51.2-30.9 56.5-26.4 5.2 4.6 50.3 103.8 54.9 135.4 4.5 31.6-3 55.7-3 55.7s-17.3-4.5-19.5 6c-2.2 10.6-2.2 49-2.2 49s-23.4 32.2-59.5 37.6c-36.1 5.2-54.2 1.4-54.2 1.4l-20.3-23.2s15.7-2.3 13.5-18.2c-2.2-15.7-48.1-37.5-56.4-57.1-8.3-19.6-1.5-52.7 9-69.3zM61.2 387.1c1.8-7.7 25.2-7.7 34.2-13.2 9-5.4 10.8-21.1 18-25.2 7.2-4.3 20.4 10.8 25.9 19.2 5.3 8.3 25.8 44.5 34.2 53.5 8.5 9 16.2 21 13.8 31.8-2.3 10.8-15 18.7-15 18.7-11.4 3.5-43.2-10.2-57.7-16.2-14.4-6.1-51.2-8-55.9-13.3C54 437 61 425 63 413.6c1.7-11.5-3.7-18.7-1.9-26.5z" fill="#839496"/></svg>