<svg xmlns="http://www.w3.org/2000/svg" viewBox="0 0 47.63 8.47" height="32" width="180"><g fill="#274093"><g style="marker:none"><g style="-inkscape-font-specification:'Univers-Light-Normal Medium';marker:none" font-weight="500" font-size="38.33" font-family="Univers-Light-Normal" stroke-width="2.04"><path style="-inkscape-font-specification:'Univers-Light-Normal Medium';marker:none" d="M.8 4.63h.32l.79 1.84.78-1.84h.33v2.12H2.8V4.83l-.79 1.92H1.8l-.78-1.92v1.92H.8V4.63M4.56 6.24h.21c-.04.2-.12.34-.24.42a.7.7 0 0 1-.4.11c-.24 0-.41-.07-.52-.2a.9.9 0 0 1-.18-.58.8.8 0 0 1 .2-.56c.14-.15.3-.22.47-.22.23 0 .4.07.5.22.14.21.16.33.17.6H3.64v.1l.03.1c.03.1.07.19.14.27.07.08.16.12.3.11.13 0 .21-.03.27-.07.06-.04.1-.09.13-.14a.47.47 0 0 0 .05-.15m-.44-.86c-.33 0-.46.3-.48.49h.92c-.03-.33-.23-.48-.44-.49zM6.32 4.63v1.61a9.41 9.41 0 0 0 .02.51h-.2a.28.28 0 0 1-.02-.05 1.24 1.24 0 0 1-.01-.16.44.44 0 0 1-.18.18.6.6 0 0 1-.33.08.47.47 0 0 1-.4-.21c-.1-.14-.16-.3-.17-.56-.01-.27.03-.42.1-.53.08-.1.15-.2.38-.25.24-.04.36 0 .43.04.08.05.13.1.17.17v-.83h.2m-.97 1.82c.07.11.18.17.33.17.16 0 .28-.07.35-.2.08-.13.11-.28.11-.45a.6.6 0 0 0-.15-.42.45.45 0 0 0-.33-.16c-.14.01-.24.06-.3.16-.06.09-.1.19-.11.4-.01.22.03.38.1.5zM6.76 5.27h.18v1.48h-.18V5.27m-.03-.64h.23v.23h-.23v-.23M7.36 5.64c0-.14.05-.24.16-.3a.77.77 0 0 1 .41-.11.6.6 0 0 1 .36.1c.1.08.15.21.15.4a48989.27 48989.27 0 0 0 .02 1.02h-.18l-.03-.18a.36.36 0 0 1-.1.12.7.7 0 0 1-.35.1c-.18 0-.3-.04-.4-.14a.48.48 0 0 1-.12-.31c.02-.21.1-.34.26-.4.15-.06.4-.09.71-.09a.96.96 0 0 0-.04-.31c-.04-.1-.13-.15-.28-.15-.11 0-.2.02-.27.07-.06.04-.1.1-.1.19h-.2m.9.36c-.19 0-.39 0-.55.05-.14.04-.22.12-.22.28 0 .1.04.17.1.22.07.05.14.08.23.07a.42.42 0 0 0 .27-.09.4.4 0 0 0 .12-.16.7.7 0 0 0 .04-.37M8.65 5.27h.2L9.3 6.5l.44-1.23h.23l.42 1.23.41-1.23H11l-.53 1.48h-.18l-.44-1.27-.46 1.27H9.2l-.55-1.48M11.23 5.64c0-.14.06-.24.16-.3a.77.77 0 0 1 .42-.11.6.6 0 0 1 .36.1c.1.08.15.21.15.4a48989.27 48989.27 0 0 0 .02 1.02h-.19a.71.71 0 0 1-.02-.18.36.36 0 0 1-.11.12.7.7 0 0 1-.35.1c-.17 0-.3-.04-.39-.14a.48.48 0 0 1-.12-.31c.01-.21.1-.34.25-.4.16-.06.4-.09.72-.09a.96.96 0 0 0-.05-.31c-.03-.1-.12-.15-.27-.15-.12 0-.2.02-.27.07-.07.04-.1.1-.1.19h-.2m.9.36h-.07c-.18 0-.34.02-.48.05-.15.03-.22.12-.22.28 0 .1.03.17.1.22.06.05.14.08.22.08h.06a.46.46 0 0 0 .22-.09.4.4 0 0 0 .12-.17.7.7 0 0 0 .04-.37M12.7 5.27h.2v.06a.3.3 0 0 1 .02.08v.05c.04-.12.1-.19.18-.2a1.08 1.08 0 0 1 .32-.03v.16a183.48 183.48 0 0 1-.08 0 .43.43 0 0 0-.3.11.4.4 0 0 0-.12.3v.95h-.19V5.53v-.06a.71.71 0 0 0-.02-.2M14.74 6.24h.2c-.04.2-.12.34-.23.42a.7.7 0 0 1-.41.11c-.24 0-.41-.07-.51-.2a.9.9 0 0 1-.18-.52v-.06a.8.8 0 0 1 .2-.56c.14-.15.3-.22.47-.22.23 0 .4.07.5.22a.92.92 0 0 1 .17.6H13.8v.1c.02.03.02.07.03.1.03.1.08.19.14.27a.35.35 0 0 0 .3.12 7.5 7.5 0 0 0 .02 0c.1-.01.2-.04.25-.08.06-.04.1-.09.13-.14a.47.47 0 0 0 .06-.15m0-.38a3.74 3.74 0 0 1 0-.03.4.4 0 0 0-.1-.3.46.46 0 0 0-.34-.15h-.1a.33.33 0 0 0-.12.04.44.44 0 0 0-.15.14.78.78 0 0 0-.12.3h.93"/></g></g><path d="M35.17 3.83l-.25-.39h-1.56l-.23.39h-.76l1.32-2h.97l1.31 2zm-1.02-1.65l-.5.79h1zm5.03 1.65l-.01-1.52-.87 1.52h-.64l-.85-1.52v1.52h-.64v-2h1.06l.77 1.4.76-1.4h1.04v2zm1.06 0v-2h.67v2zm2.1 0c-.59 0-1.08-.4-1.08-1 0-.62.5-1 1.08-1h1.64v.47h-1.45c-.32 0-.6.18-.6.52s.28.52.6.52h1.45v.49h-1.64zm4.07 0h-2v-.47h1.78c.1 0 .21-.02.21-.14 0-.13-.1-.15-.2-.15h-1.21a.62.62 0 0 1-.62-.63c0-.35.27-.62.62-.62H47v.46h-1.8c-.09 0-.17.04-.17.14s.09.14.17.14h1.2c.37 0 .67.25.67.63s-.3.64-.66.64zm-28.26 0l-.25-.39h-1.56l-.23.39h-.76l1.32-2h.97l1.3 2zm-1.02-1.65l-.5.79h1zm2.02 1.65v-2h.66v1.51h1.63v.49zm5.89 0h-1.9v-2h1.9c.59 0 1.08.38 1.08 1 0 .6-.5 1-1.08 1zm-.19-1.53H23.8v1.04h1.05c.32 0 .6-.17.6-.52 0-.34-.28-.52-.6-.52zm3.12.83v.7h-.66v-.7l-1.3-1.3h.86l.81.79.8-.8h.8zm3.45.7l-1.32-1.4v1.4h-.63v-2h.92l1.2 1.3.01-1.3h.61v2zm-29.81 0c-.6 0-1.08-.4-1.08-1 0-.62.49-1 1.08-1h1.81v.47H1.79c-.31 0-.59.18-.59.52s.28.52.6.52h.96v-.32h-.72v-.44h1.38v1.25H1.61zm2.25 0v-2h2.31v.47H4.53v.28h1.64v.44H4.53v.32h1.64v.49h-2.3zm4.7 0L7.23 2.26v1.57h-.64v-2H7.6l1.13 1.3v-1.3h.61v2zm1.23 0v-2h2.3v.47h-1.64v.28h1.65v.44h-1.65v.32h1.65v.49H9.8zm4.9-.7l.52.7h-.76L14 3.2h-.83v.63h-.67v-2h1.89c.44 0 .85.2.85.69 0 .35-.23.54-.55.62zm-.43-.86h-1.1v.48h1.1c.15 0 .3-.07.3-.24 0-.17-.15-.24-.3-.24z" style="marker:none" color="#000" overflow="visible"/></g></svg>