<svg width="180" height="21" viewBox="0 0 47.63 5.56" xmlns="http://www.w3.org/2000/svg"><g fill="#274093"><path d="M.57 3.14h.32l.79 1.84.78-1.84h.33v2.12h-.22V3.34l-.8 1.92h-.2L.79 3.34v1.92H.57V3.14m3.97 1.61c-.1.38-.31.53-.64.53-.24 0-.41-.07-.52-.2a.9.9 0 01-.18-.58c-.01-.2.06-.4.2-.56.14-.15.3-.22.47-.22.23 0 .4.07.5.22.14.21.16.33.17.6H3.4v.1c0 .28.22.48.47.48.27 0 .38-.14.45-.37zm-.65-.85c-.33 0-.46.3-.48.49h.92c-.03-.33-.23-.48-.44-.49zm2.2-.76v1.61c0 .17 0 .34.02.51h-.22l-.01-.21a.45.45 0 01-.18.18.66.66 0 01-.33.08.49.49 0 01-.4-.21.97.97 0 01-.17-.56c-.01-.27.03-.44.1-.53.07-.1.18-.22.38-.25.27-.04.43.04.6.21v-.83M5.1 4.96c.06.11.18.17.33.17.16 0 .27-.07.35-.2a.9.9 0 00.1-.45c0-.15-.04-.3-.14-.42a.46.46 0 00-.33-.16c-.14.01-.24.06-.3.16s-.1.19-.11.4c-.01.22.02.38.1.5zm1.6-1.18v1.48h-.18V3.78zm.02-.64v.23H6.5v-.23zm.56.71c.12-.07.26-.1.4-.11a.6.6 0 01.37.1c.1.08.15.21.15.4l.02 1.02h-.18l-.03-.18a.36.36 0 01-.1.12.7.7 0 01-.35.1c-.18 0-.3-.04-.4-.14a.46.46 0 01-.12-.31c0-.22.1-.34.26-.4.15-.06.4-.09.7-.09.01-.1 0-.21-.03-.31-.04-.1-.13-.15-.28-.15-.24 0-.37.12-.37.26h-.2c0-.14.05-.25.16-.31zm.19.72c-.14.04-.23.12-.22.28.01.23.15.29.33.29.2 0 .29-.08.39-.25.05-.1.06-.24.04-.37-.18 0-.38 0-.54.05zm.94-.79h.2l.45 1.23.44-1.23h.23l.42 1.23.4-1.23h.2l-.52 1.48h-.18l-.44-1.27-.46 1.27h-.2l-.54-1.48m2.58.37c0-.14.06-.24.16-.3a.77.77 0 01.42-.11.6.6 0 01.36.1c.1.08.15.21.15.4l.02 1.02h-.2l-.01-.18c-.11.18-.3.22-.46.22-.17 0-.3-.04-.4-.14a.45.45 0 01-.11-.31c0-.21.1-.34.25-.4.16-.06.4-.09.72-.09 0-.1-.02-.21-.05-.31-.03-.1-.12-.15-.27-.15-.12 0-.2.02-.27.07-.07.04-.1.1-.1.19H11m.13.69c0 .22.13.3.32.3.2 0 .31-.1.4-.26a.7.7 0 00.04-.37c-.19 0-.38.02-.54.05-.15.03-.23.12-.22.28zm1.53-1.07l.02.19c.04-.12.1-.18.18-.2.1-.03.2-.04.32-.03v.16c-.18 0-.32.05-.38.11a.4.4 0 00-.12.3v.95h-.2V3.98l-.01-.2zm2.04.97c-.04.2-.12.34-.23.42a.7.7 0 01-.41.11c-.24 0-.41-.07-.51-.2a.9.9 0 01-.19-.56c0-.25.07-.43.2-.58.15-.15.3-.22.48-.22.23 0 .4.07.5.22.12.18.18.39.17.6h-1.15c.01.37.11.6.47.6.2-.01.29-.08.4-.23.03-.04.04-.1.06-.16zm-.31-.7c-.08-.1-.2-.15-.34-.15a.42.42 0 00-.37.18.7.7 0 00-.12.3h.93a.56.56 0 00-.1-.33z" stroke-width="2.04"/><path d="M34.94 2.34l-.25-.39h-1.56l-.23.39h-.76l1.32-2h.97l1.3 2zM33.92.69l-.5.79h1zm5.03 1.65L38.94.82l-.87 1.52h-.64L36.58.82v1.52h-.64v-2H37l.77 1.4.76-1.4h1.04v2zm1.06 0v-2h.67v2zm2.1 0c-.6 0-1.08-.4-1.08-1 0-.62.5-1 1.08-1h1.64v.47H42.3c-.32 0-.6.18-.6.52s.28.52.6.52h1.45v.49zm4.07 0h-2v-.47h1.78c.1 0 .2-.02.2-.14 0-.13-.1-.15-.2-.15h-1.2a.62.62 0 01-.62-.63c0-.35.27-.62.62-.62h2v.46h-1.8c-.08 0-.16.04-.16.14s.09.14.17.14h1.2c.37 0 .67.25.67.63s-.3.64-.66.64zm-28.26 0l-.25-.39H16.1l-.23.39h-.76l1.32-2h.97l1.3 2zM16.9.69l-.5.79h1zm2.02 1.65v-2h.66v1.51h1.63v.49zm5.89 0h-1.9v-2h1.9c.59 0 1.08.38 1.08 1 0 .6-.5 1-1.08 1zM24.6.81h-1.04v1.04h1.05c.32 0 .6-.17.6-.52 0-.34-.28-.52-.6-.52zm3.13.83v.7h-.66v-.7l-1.3-1.3h.86l.8.79.8-.8h.8zm3.45.7L29.87.94v1.4h-.63v-2h.92l1.2 1.3V.34h.62v2zm-29.81 0c-.6 0-1.08-.4-1.08-1 0-.62.49-1 1.08-1h1.8v.47H1.57c-.31 0-.6.18-.6.52s.29.52.6.52h.97v-.32H1.8v-.44h1.38v1.25zm2.25 0v-2h2.3v.47H4.3v.28h1.64v.44H4.3v.32h1.64v.49h-2.3zm4.7 0L7 .77v1.57h-.64v-2h1l1.14 1.3V.34h.6v2zm1.23 0v-2h2.3v.47h-1.64v.28h1.65v.44h-1.65v.32h1.65v.49h-2.3zm4.9-.7l.52.7h-.76l-.45-.63h-.83v.63h-.67v-2h1.89c.44 0 .85.2.85.69 0 .35-.23.54-.55.62zm-.43-.86h-1.1v.48h1.1c.15 0 .3-.07.3-.24s-.15-.24-.3-.24z"/></g></svg>
