<svg xmlns="http://www.w3.org/2000/svg" xmlns:xlink="http://www.w3.org/1999/xlink" viewBox="0 0 283.46 28.35"><defs><linearGradient xlink:href="#a" id="c" x1="45.12" y1="993.36" x2="45.12" y2="1034.35" gradientUnits="userSpaceOnUse" gradientTransform="matrix(0.75718399,0,0,0.75718399,-2.1328187,177.15169)"/><linearGradient id="a"><stop offset="0" stop-color="#fd4149"/><stop offset="1" stop-color="#ec1620"/></linearGradient><linearGradient xlink:href="#b" id="d" x1="41.24" y1="993" x2="41.24" y2="1018.23" gradientUnits="userSpaceOnUse" gradientTransform="matrix(0.75718399,0,0,0.75718399,-2.1328187,177.15169)"/><linearGradient id="b"><stop offset="0" stop-color="#ededed"/><stop offset="1" stop-color="#454545"/></linearGradient></defs><path d="M.36 28V.63h8.08L13 13.35V.63h8.42V28H12.5L8.27 15.37V28zM39.77 28H31.6V.63h8.17v9.85h4.63V.63h8.18V28H44.4V16.2h-4.63z"/><path d="M35.17 929.3c-9.06 0-16.4 6.97-16.4 15.57 0 8.6 7.34 15.53 16.4 15.53 4.37 0 8.32-1.62 11.26-4.26l-5.4-6.58c-1.24 1.27-3 2.07-4.93 2.07-3.8 0-6.88-3.03-6.88-6.76 0-3.74 3.08-6.76 6.88-6.76 1.76 0 3.38.65 4.6 1.72l5.05-6.8c-2.86-2.3-6.54-3.7-10.58-3.7z" color="#000" overflow="visible" fill="url(#c)" stroke="url(#d)" stroke-width=".76" transform="translate(-126.62392,-929.14002) matrix(0.88109685,0,0,0.88109685,124.47976,110.94608)"/><g style="line-height:125%" font-size="37.95" font-family="Sans" letter-spacing="0" word-spacing="0"><path d="M72.83 4.67h3.55l8.64 16.3V4.67h2.56v19.48h-3.55l-8.65-16.3v16.3h-2.55V4.67zM107.4 6.17v2.78c-1.83-1.8-4.47-2.73-7.03-2.42-2.08.15-4.08 1.38-4.97 3.3-1.03 2.17-1.1 4.7-.7 7.04.34 2.18 1.7 4.32 3.88 5.05 2.88 1 6.24.3 8.5-1.72.46-.62.32.1.33.47v1.98c-2.94 2.04-6.9 2.43-10.25 1.16-2.73-1.04-4.65-3.66-5.18-6.5-.5-2.83-.38-5.9 1-8.5 1.23-2.35 3.65-3.98 6.27-4.34 2.82-.44 5.8.07 8.17 1.7zM111.5 4.67h2.65v8h9.58v-8h2.64v19.48h-2.64v-9.28h-9.58v9.28h-2.64V4.67z"/></g><g style="line-height:125%" font-size="36.49" font-family="Sans" letter-spacing="-2.48" word-spacing="0"><path d="M150.64 6.4v2.47c-2.3-1.1-5-1.84-7.5-1.02-1.18.36-2.1 1.5-2 2.74-.07 1 .5 2 1.48 2.3 2.25.9 4.84.75 6.92 2.1 1.45.87 2.25 2.55 2.23 4.2.1 1.76-.64 3.6-2.2 4.53-1.93 1.2-4.33 1.27-6.53 1.06-1.5-.2-2.97-.6-4.38-1.1v-2.62c2.43 1.4 5.4 2.24 8.16 1.45 1.25-.35 2.3-1.45 2.3-2.8.12-1.18-.52-2.4-1.64-2.88-1.84-.88-3.98-.78-5.84-1.6-1.38-.52-2.6-1.6-2.9-3.1-.46-1.9.04-4.16 1.7-5.36 2-1.52 4.7-1.5 7.06-1.17 1.07.16 2.12.43 3.14.77zM159.32 12.08q-1.86 0-2.93 1.46-1.1 1.44-1.1 3.97 0 2.53 1.07 3.98 1.08 1.45 2.95 1.45 1.85 0 2.93-1.46 1.08-1.45 1.08-3.96 0-2.5-1.08-3.95-1.08-1.47-2.93-1.47zm0-1.95q3 0 4.73 1.95 1.72 1.96 1.72 5.43 0 3.46-1.72 5.43-1.72 1.96-4.73 1.96-3.02 0-4.74-1.97-1.7-1.97-1.7-5.42 0-3.46 1.7-5.42 1.72-1.95 4.74-1.95zM174.96 5v1.9c-1.05.04-2.12-.06-3.16.1-.72.1-1.17.8-1.2 1.5-.1.64-.05 1.3-.06 1.97h3.8v1.8h-3.8V24.5h-2.32V12.26h-2.2v-1.8h2.2c0-1.45-.06-3.08.96-4.25 1.05-1.15 2.73-1.23 4.2-1.2h1.58z"/><path d="M176.96 6.47v4h4.76v1.8h-4.76v7.62q0 1.7.47 2.2.47.5 1.92.5h2.37v1.92h-2.37q-2.68 0-3.7-1-1-1-1-3.63v-7.64h-1.7v-1.8h1.7v-4h2.3z"/><path d="M181.68 10.47h2.3l2.9 10.96 2.87-10.96h2.72l2.9 10.96 2.86-10.96h2.3l-3.67 14.05h-2.72L191.1 13l-3.02 11.52h-2.73l-3.67-14.05zM208.7 17.46c-1.3.02-2.7.02-3.88.64-1.12.64-1.3 2.17-.88 3.28.47 1.2 1.85 1.65 3.05 1.57 1.46 0 2.83-.96 3.44-2.3.5-.98.57-2.1.55-3.2h-2.3zm4.6-.96v8.02H211V22.4c-.74 1.24-2.03 2.16-3.47 2.37-1.73.3-3.73.1-5-1.24-1.2-1.3-1.35-3.32-.8-4.95.52-1.52 2.05-2.42 3.56-2.7 1.7-.35 3.43-.2 5.14-.23.18-.06.6.14.55-.15.05-1.12-.48-2.28-1.48-2.84-1.4-.77-3.08-.65-4.58-.35-.86.16-1.77.6-2.48.9v-2.1c2.32-.88 4.95-1.35 7.37-.6 1.53.45 2.7 1.75 3.12 3.27.26.9.35 1.8.35 2.73zM224.47 12.62c-1.3-.67-3-.58-4.22.23-1.2.88-1.67 2.45-1.68 3.9-.03 2.58 0 5.18 0 7.77h-2.34V10.47h2.33v2.18c.75-1.44 2.3-2.37 3.9-2.48.67-.07 1.34-.04 2 .08v2.37z"/><path d="M236.64 16.92v1.13h-10.62q.15 2.38 1.43 3.64 1.3 1.23 3.6 1.23 1.32 0 2.56-.33 1.27-.32 2.5-.98v2.2q-1.24.5-2.55.8-1.3.27-2.65.27-3.36 0-5.33-1.97-1.96-1.96-1.96-5.3 0-3.45 1.87-5.47 1.87-2.03 5.03-2.03 2.84 0 4.48 1.83 1.66 1.82 1.66 4.96zm-2.3-.68q-.04-1.9-1.08-3.03-1.03-1.12-2.73-1.12-1.94 0-3.1 1.1-1.16 1.1-1.33 3.07h8.23z"/></g><text y="935.13" x="62.22" style="line-height:125%;-inkscape-font-specification:'Sans Bold'" font-weight="bold" font-size="8.47" font-family="Sans" letter-spacing="0" word-spacing="0" transform="translate(-126.62392,-929.14002) matrix(0.88109685,0,0,0.88109685,124.47976,110.94608)"><tspan y="935.13" x="62.22">®</tspan></text></svg>