<svg width="47" height="25" viewBox="0 0 12.44 6.615" xmlns="http://www.w3.org/2000/svg"><defs><linearGradient id="a" x1="45.12" x2="45.12" y1="993.4" y2="1034" gradientTransform="translate(-.75 138.5) scale(.1531)" gradientUnits="userSpaceOnUse"><stop stop-color="#fd4149" offset="0"/><stop stop-color="#ec1620" offset="1"/></linearGradient><linearGradient id="b" x1="41.24" x2="41.24" y1="993" y2="1018" gradientTransform="translate(-.75 138.5) scale(.1531)" gradientUnits="userSpaceOnUse"><stop stop-color="#ededed" offset="0"/><stop stop-color="#454545" offset="1"/></linearGradient></defs><path d="M.257 6.5V.219H2.11l1.047 2.919V.219H5.09V6.5H3.043l-.97-2.899V6.5zm9.045 0H7.427V.219h1.875V2.48h1.063V.219h1.877V6.5h-1.877V3.792H9.302z"/><path d="M3.478 293.7c0 1.739 1.484 3.14 3.316 3.14.884 0 1.682-.328 2.277-.861l-1.092-1.331c-.25.256-.607.418-.997.418a1.38 1.38 0 01-1.39-1.367c0-.756.622-1.367 1.39-1.367.356 0 .684.132.93.348l1.021-1.375c-.578-.465-1.145-.751-2.333-.751-1.563 0-3.122 1.406-3.122 3.145z" color="#000" fill="url(#a)" stroke="url(#b)" stroke-width=".154" transform="translate(0 -290.4)"/></svg>
