<?xml version="1.0" encoding="UTF-8"?>
<svg width="25" height="30" version="1.1" viewBox="0 0 25 30" xmlns="http://www.w3.org/2000/svg"><g transform="translate(0 -1022)"><rect x="3.138" y="1039" width="19.3" height="13.29" fill="#fffdfd"/><path d="m0.7562 1023v28.52h23.53v-23.7l-5.198-4.819zm8.462 17.13h7.203v5.453h4.406l-5.315 5.913-5.376 0.013-5.325-5.925h4.406z" color="#000000" color-rendering="auto" fill="#b50e0e" image-rendering="auto" shape-rendering="auto" solid-color="#000000" stroke="#fdfdfd" stroke-width="1.38" style="isolation:auto;mix-blend-mode:normal"/><g transform="matrix(1.562 0 0 1.562 -37.15 -558)" fill="#fff" stroke-width="1px"><path d="m24.24 1016h2.328q1.038 0 1.592 0.4627 0.5575 0.4591 0.5575 1.312 0 0.8563-0.5575 1.319-0.5538 0.4591-1.592 0.4591h-0.9255v1.887h-1.403zm1.403 1.017v1.519h0.7761q0.4081 0 0.6303-0.1968 0.2223-0.2004 0.2223-0.5648 0-0.3643-0.2223-0.5611-0.2223-0.1967-0.6303-0.1967z"/><path d="m31.1 1017v3.319h0.5028q0.8599 0 1.312-0.4263 0.4555-0.4263 0.4555-1.239 0-0.8089-0.4518-1.232-0.4518-0.4226-1.315-0.4226zm-1.403-1.06h1.479q1.239 0 1.844 0.1785 0.6085 0.1749 1.042 0.5976 0.3826 0.368 0.5684 0.8489 0.1858 0.481 0.1858 1.09 0 0.6158-0.1858 1.1-0.1858 0.4809-0.5684 0.8489-0.4372 0.4227-1.049 0.6012-0.6121 0.1749-1.836 0.1749h-1.479z"/><path d="m35.9 1016h3.312v1.06h-1.909v1.013h1.886v1.06h-1.886v2.306h-1.403z"/></g></g></svg>
