<?xml version="1.0" encoding="UTF-8" standalone="no"?>
<!-- Created with Inkscape (http://www.inkscape.org/) -->

<svg
   xmlns:dc="http://purl.org/dc/elements/1.1/"
   xmlns:cc="http://creativecommons.org/ns#"
   xmlns:rdf="http://www.w3.org/1999/02/22-rdf-syntax-ns#"
   xmlns:svg="http://www.w3.org/2000/svg"
   xmlns="http://www.w3.org/2000/svg"
   xmlns:sodipodi="http://sodipodi.sourceforge.net/DTD/sodipodi-0.dtd"
   xmlns:inkscape="http://www.inkscape.org/namespaces/inkscape"
   width="25"
   height="30"
   viewBox="0 0 25 30"
   id="svg2"
   version="1.1"
   inkscape:version="0.92.4 5da689c313, 2019-01-14"
   sodipodi:docname="pdf-icon.svg">
  <defs
     id="defs4" />
  <sodipodi:namedview
     id="base"
     pagecolor="#ffffff"
     bordercolor="#666666"
     borderopacity="1.0"
     inkscape:pageopacity="0.0"
     inkscape:pageshadow="2"
     inkscape:zoom="15.999999"
     inkscape:cx="12.544928"
     inkscape:cy="11.777918"
     inkscape:document-units="px"
     inkscape:current-layer="layer1"
     showgrid="false"
     units="px"
     inkscape:window-width="1702"
     inkscape:window-height="797"
     inkscape:window-x="2112"
     inkscape:window-y="451"
     inkscape:window-maximized="1" />
  <metadata
     id="metadata7">
    <rdf:RDF>
      <cc:Work
         rdf:about="">
        <dc:format>image/svg+xml</dc:format>
        <dc:type
           rdf:resource="http://purl.org/dc/dcmitype/StillImage" />
        <dc:title></dc:title>
      </cc:Work>
    </rdf:RDF>
  </metadata>
  <g
     inkscape:label="Layer 1"
     inkscape:groupmode="layer"
     id="layer1"
     transform="translate(0,-1022.3622)">
    <path
       style="color:#000000;clip-rule:nonzero;display:inline;overflow:visible;visibility:visible;opacity:1;isolation:auto;mix-blend-mode:normal;color-interpolation:sRGB;color-interpolation-filters:linearRGB;solid-color:#000000;solid-opacity:1;fill:#b50e0e;fill-opacity:1;fill-rule:nonzero;stroke:none;stroke-width:0.99175197;stroke-linecap:butt;stroke-linejoin:miter;stroke-miterlimit:4;stroke-dasharray:none;stroke-dashoffset:0;stroke-opacity:1;color-rendering:auto;image-rendering:auto;shape-rendering:auto;text-rendering:auto;enable-background:accumulate"
       d="m 0.33975494,1022.6447 v 29.5293 H 24.701478 v -24.5394 l -5.382013,-4.9899 z m 8.76115846,17.7345 h 7.4583396 v 5.6457 H 21.1215 l -5.503346,6.1225 -5.566124,0.013 -5.5133625,-6.1351 h 4.5622459 z"
       id="rect4138"
       inkscape:connector-curvature="0"
       sodipodi:nodetypes="ccccccccccccccc" />
    <g
       style="font-style:normal;font-weight:normal;font-size:7.46215725px;line-height:125%;font-family:sans-serif;letter-spacing:0px;word-spacing:0px;fill:#ffffff;fill-opacity:1;stroke:none;stroke-width:1px;stroke-linecap:butt;stroke-linejoin:miter;stroke-opacity:1"
       id="text4144"
       transform="matrix(1.5834963,0,0,1.5834963,-38.079528,-579.76181)">
      <path
         d="m 24.236242,1015.6147 h 2.32828 q 1.038435,0 1.592267,0.4627 0.557476,0.4591 0.557476,1.3117 0,0.8563 -0.557476,1.319 -0.553832,0.4591 -1.592267,0.4591 H 25.63904 v 1.8874 h -1.402798 z m 1.402798,1.0166 v 1.5194 h 0.776093 q 0.408087,0 0.630349,-0.1968 0.222261,-0.2004 0.222261,-0.5648 0,-0.3643 -0.222261,-0.5611 -0.222262,-0.1967 -0.630349,-0.1967 z"
         style="font-style:normal;font-variant:normal;font-weight:bold;font-stretch:normal;font-family:sans-serif;-inkscape-font-specification:'sans-serif Bold';fill:#ffffff;fill-opacity:1"
         id="path4156"
         inkscape:connector-curvature="0" />
      <path
         d="m 31.104487,1016.675 v 3.3193 h 0.502821 q 0.859897,0 1.311708,-0.4263 0.455454,-0.4263 0.455454,-1.2388 0,-0.8089 -0.451811,-1.2316 -0.45181,-0.4226 -1.315351,-0.4226 z m -1.402798,-1.0603 h 1.479315 q 1.238834,0 1.843677,0.1785 0.608487,0.1749 1.042079,0.5976 0.382581,0.368 0.568406,0.8489 0.185825,0.481 0.185825,1.0895 0,0.6158 -0.185825,1.1004 -0.185825,0.4809 -0.568406,0.8489 -0.437236,0.4227 -1.049366,0.6012 -0.61213,0.1749 -1.83639,0.1749 h -1.479315 z"
         style="font-style:normal;font-variant:normal;font-weight:bold;font-stretch:normal;font-family:sans-serif;-inkscape-font-specification:'sans-serif Bold';fill:#ffffff;fill-opacity:1"
         id="path4158"
         inkscape:connector-curvature="0" />
      <path
         d="m 35.895862,1015.6147 h 3.312098 v 1.0603 h -1.9093 v 1.0129 h 1.885607 v 1.0603 H 37.29866 v 2.3064 h -1.402798 z"
         style="font-style:normal;font-variant:normal;font-weight:bold;font-stretch:normal;font-family:sans-serif;-inkscape-font-specification:'sans-serif Bold';fill:#ffffff;fill-opacity:1"
         id="path4160"
         inkscape:connector-curvature="0"
         sodipodi:nodetypes="ccccccccccc" />
    </g>
  </g>
</svg>
