<?xml version="1.0" encoding="UTF-8" standalone="no"?>
<!-- Created with Inkscape (http://www.inkscape.org/) -->

<svg
   xmlns:dc="http://purl.org/dc/elements/1.1/"
   xmlns:cc="http://creativecommons.org/ns#"
   xmlns:rdf="http://www.w3.org/1999/02/22-rdf-syntax-ns#"
   xmlns:svg="http://www.w3.org/2000/svg"
   xmlns="http://www.w3.org/2000/svg"
   xmlns:sodipodi="http://sodipodi.sourceforge.net/DTD/sodipodi-0.dtd"
   xmlns:inkscape="http://www.inkscape.org/namespaces/inkscape"
   width="40"
   height="40"
   viewBox="0 0 40 40"
   id="svg2"
   version="1.1"
   inkscape:version="0.91 r13725"
   sodipodi:docname="pdf-icon.svg">
  <defs
     id="defs4" />
  <sodipodi:namedview
     id="base"
     pagecolor="#ffffff"
     bordercolor="#666666"
     borderopacity="1.0"
     inkscape:pageopacity="0.0"
     inkscape:pageshadow="2"
     inkscape:zoom="11.313708"
     inkscape:cx="14.710568"
     inkscape:cy="27.839258"
     inkscape:document-units="px"
     inkscape:current-layer="layer1"
     showgrid="false"
     units="px"
     inkscape:window-width="1920"
     inkscape:window-height="997"
     inkscape:window-x="1920"
     inkscape:window-y="0"
     inkscape:window-maximized="1" />
  <metadata
     id="metadata7">
    <rdf:RDF>
      <cc:Work
         rdf:about="">
        <dc:format>image/svg+xml</dc:format>
        <dc:type
           rdf:resource="http://purl.org/dc/dcmitype/StillImage" />
        <dc:title></dc:title>
      </cc:Work>
    </rdf:RDF>
  </metadata>
  <g
     inkscape:label="Layer 1"
     inkscape:groupmode="layer"
     id="layer1"
     transform="translate(0,-1012.3622)">
    <rect
       style="color:#000000;clip-rule:nonzero;display:inline;overflow:visible;visibility:visible;opacity:1;isolation:auto;mix-blend-mode:normal;color-interpolation:sRGB;color-interpolation-filters:linearRGB;solid-color:#000000;solid-opacity:1;fill:#b50e0e;fill-opacity:1;fill-rule:nonzero;stroke:none;stroke-width:0.99199998;stroke-linecap:butt;stroke-linejoin:miter;stroke-miterlimit:4;stroke-dasharray:none;stroke-dashoffset:0;stroke-opacity:1;color-rendering:auto;image-rendering:auto;shape-rendering:auto;text-rendering:auto;enable-background:accumulate"
       id="rect4136"
       width="36.593864"
       height="36.887634"
       x="1.878823"
       y="1013.8547"
       ry="4.125" />
    <path
       style="color:#000000;clip-rule:nonzero;display:inline;overflow:visible;visibility:visible;opacity:1;isolation:auto;mix-blend-mode:normal;color-interpolation:sRGB;color-interpolation-filters:linearRGB;solid-color:#000000;solid-opacity:1;fill:#ffffff;fill-opacity:1;fill-rule:nonzero;stroke:none;stroke-width:0.99175197;stroke-linecap:butt;stroke-linejoin:miter;stroke-miterlimit:4;stroke-dasharray:none;stroke-dashoffset:0;stroke-opacity:1;color-rendering:auto;image-rendering:auto;shape-rendering:auto;text-rendering:auto;enable-background:accumulate"
       d="m 8.8263807,1018.3322 0,27.7793 22.9179693,0 0,-23.0851 -5.063058,-4.6942 z m 1.1760903,6.265 20.632233,0 0,8.399 -20.632233,0 z m 11.782091,11.171 5.6852,0 0,5.0658 3.477622,0 -4.194984,4.667 -4.242838,0.01 -4.202621,-4.6765 3.477621,0 z"
       id="rect4138"
       inkscape:connector-curvature="0"
       sodipodi:nodetypes="cccccccccccccccccccc" />
    <g
       style="font-style:normal;font-weight:normal;font-size:7.46215725px;line-height:125%;font-family:sans-serif;letter-spacing:0px;word-spacing:0px;fill:#ffffff;fill-opacity:1;stroke:none;stroke-width:1px;stroke-linecap:butt;stroke-linejoin:miter;stroke-opacity:1"
       id="text4144"
       transform="matrix(1.2231833,0,0,1.2231833,-18.79996,-216.75713)">
      <path
         d="m 24.236242,1015.6147 2.32828,0 q 1.038435,0 1.592267,0.4627 0.557476,0.4591 0.557476,1.3117 0,0.8563 -0.557476,1.319 -0.553832,0.4591 -1.592267,0.4591 l -0.925482,0 0,1.8874 -1.402798,0 0,-5.4399 z m 1.402798,1.0166 0,1.5194 0.776093,0 q 0.408087,0 0.630349,-0.1968 0.222261,-0.2004 0.222261,-0.5648 0,-0.3643 -0.222261,-0.5611 -0.222262,-0.1967 -0.630349,-0.1967 l -0.776093,0 z"
         style="font-style:normal;font-variant:normal;font-weight:bold;font-stretch:normal;font-family:sans-serif;-inkscape-font-specification:'sans-serif Bold';fill:#ffffff;fill-opacity:1"
         id="path4156"
         inkscape:connector-curvature="0" />
      <path
         d="m 31.104487,1016.675 0,3.3193 0.502821,0 q 0.859897,0 1.311708,-0.4263 0.455454,-0.4263 0.455454,-1.2388 0,-0.8089 -0.451811,-1.2316 -0.45181,-0.4226 -1.315351,-0.4226 l -0.502821,0 z m -1.402798,-1.0603 1.479315,0 q 1.238834,0 1.843677,0.1785 0.608487,0.1749 1.042079,0.5976 0.382581,0.368 0.568406,0.8489 0.185825,0.481 0.185825,1.0895 0,0.6158 -0.185825,1.1004 -0.185825,0.4809 -0.568406,0.8489 -0.437236,0.4227 -1.049366,0.6012 -0.61213,0.1749 -1.83639,0.1749 l -1.479315,0 0,-5.4399 z"
         style="font-style:normal;font-variant:normal;font-weight:bold;font-stretch:normal;font-family:sans-serif;-inkscape-font-specification:'sans-serif Bold';fill:#ffffff;fill-opacity:1"
         id="path4158"
         inkscape:connector-curvature="0" />
      <path
         d="m 35.895862,1015.6147 3.785733,0 0,1.0603 -2.382935,0 0,1.0129 2.240833,0 0,1.0603 -2.240833,0 0,2.3064 -1.402798,0 0,-5.4399 z"
         style="font-style:normal;font-variant:normal;font-weight:bold;font-stretch:normal;font-family:sans-serif;-inkscape-font-specification:'sans-serif Bold';fill:#ffffff;fill-opacity:1"
         id="path4160"
         inkscape:connector-curvature="0" />
    </g>
  </g>
</svg>
