<svg xmlns="http://www.w3.org/2000/svg" viewBox="0 0 135.5 135.5" height="512" width="512"><g transform="translate(0 -161.5)"><path style="marker:none" d="M.2 175.8h135.2v78.3H.2z"/><rect style="marker:none" width="23" height="40.1" x="39.2" y="243.9" ry="3.1" fill="#0cb90c"/><circle style="marker:none" cx="50.8" cy="281.2" r="1.7" fill="#fff"/><rect ry="3.1" y="243.9" x="73.1" height="40.1" width="23" style="marker:none" fill="#c900e0"/><circle r="1.7" cy="281.2" cx="84.6" style="marker:none" fill="#fff"/><rect style="marker:none" width="23" height="40.1" x="106.7" y="243.9" ry="3.1" fill="#00a7e0"/><circle style="marker:none" cx="118.2" cy="281.2" r="1.7" fill="#fff"/><circle r="9.9" cy="228" cx="30.1" style="marker:none" fill="#f5a500"/><circle style="marker:none" cx="54.9" cy="228" r="9.9" fill="#0cb90c"/><circle r="9.9" cy="228" cx="78.6" style="marker:none" fill="#c900e0"/><circle style="marker:none" cx="103.4" cy="228" r="9.9" fill="#00a7e0"/><g style="line-height:1.25;-inkscape-font-specification:'Noto Sans Bold'" aria-label="phone" font-weight="700" font-size="20.6" font-family="Noto Sans" letter-spacing="0" word-spacing="0" fill="#fff" stroke-width=".5"><path style="-inkscape-font-specification:'Noto Sans Bold'" d="M81.4 177.6q1.9 0 3 1.5 1.2 1.5 1.2 4.3 0 2.9-1.2 4.4-1.2 1.5-3.1 1.5-1.2 0-2-.5-.7-.4-1.1-1H78l.2 1.7v4.5H75v-16.2h2.5l.4 1.5h.2q.4-.7 1.2-1.2.7-.5 2-.5zm-1 2.5q-1.2 0-1.7.7-.5.8-.5 2.3v.3q0 1.6.4 2.5.5.9 1.8.9 1 0 1.6-.9.5-.9.5-2.5 0-3.3-2.1-3.3zM91.2 173.4V178.2l-.1 1h.1q.6-.8 1.4-1.2.8-.4 1.9-.4 1.8 0 2.9 1 1.1 1 1.1 3.1v7.4h-3v-6.6q0-2.4-1.9-2.4-1.4 0-1.9 1-.5.9-.5 2.7v5.3h-3v-15.7zM111.8 183.4q0 2.8-1.4 4.4-1.5 1.5-4 1.5-1.6 0-2.8-.7-1.2-.7-2-2-.6-1.3-.6-3.2 0-2.8 1.4-4.3 1.5-1.5 4-1.5 1.6 0 2.8.7 1.2.7 2 2 .6 1.3.6 3.1zm-7.7 0q0 1.7.5 2.6.6.8 1.8.8 1.2 0 1.8-.8.5-.9.5-2.6 0-1.6-.5-2.5-.6-.8-1.8-.8-1.2 0-1.8.8-.5.9-.5 2.5zM120.8 177.6q1.8 0 2.9 1 1 1 1 3.1v7.4h-3v-6.6q0-1.2-.4-1.8-.5-.6-1.4-.6-1.4 0-2 1-.4.9-.4 2.7v5.3h-3.1v-11.3h2.3l.4 1.5h.2q.5-.9 1.5-1.3t2-.4zM132.5 177.6q2.4 0 3.7 1.4 1.4 1.3 1.4 3.7v1.5h-7.3q0 1.3.8 2 .7.8 2 .8 1.1 0 2-.2.9-.2 1.8-.7v2.4q-.8.4-1.7.6-1 .2-2.2.2-1.7 0-3-.6-1.3-.7-2-2-.8-1.2-.8-3.2t.7-3.2q.7-1.4 1.8-2 1.2-.7 2.8-.7zm0 2.2q-.8 0-1.4.6-.6.6-.7 1.8h4.3q0-1-.5-1.7-.6-.7-1.7-.7z"/></g><g style="line-height:1.25;-inkscape-font-specification:'Noto Sans Bold'" aria-label="party" font-weight="700" font-size="20.6" font-family="Noto Sans" letter-spacing="0" word-spacing="0" fill="#fff" stroke-width=".5"><path style="-inkscape-font-specification:'Noto Sans Bold'" d="M90.2 192.3q2 0 3.1 1.4 1.2 1.5 1.2 4.4 0 2.8-1.2 4.3t-3.1 1.5q-1.3 0-2-.4l-1.2-1H87l.1 1.6v4.5h-3v-16.1h2.5l.4 1.4h.1q.5-.7 1.3-1.1.7-.5 2-.5zm-1 2.4q-1.1 0-1.6.8-.5.7-.6 2.2v.3q0 1.7.5 2.6.5.8 1.8.8 1 0 1.5-.8.6-1 .6-2.6 0-3.3-2.1-3.3zM101.6 192.2q2.3 0 3.5 1 1.2 1 1.2 3v7.5h-2.1l-.6-1.5h-.1q-.7.9-1.5 1.3-.9.4-2.3.4-1.5 0-2.4-.9-1-.8-1-2.6t1.2-2.7q1.3-.8 3.8-1h2v-.5q0-.9-.5-1.3t-1.3-.4q-.8 0-1.6.3l-1.6.5-1-2 2-.8q1.1-.3 2.3-.3zm1.6 6.3h-1.1q-1.5 0-2.1.6-.6.5-.6 1.3 0 .7.4 1 .4.3 1.1.3 1 0 1.7-.6.6-.6.6-1.7zM115.7 192.3h1l-.2 3-.4-.1h-.5q-.8 0-1.5.2-.7.3-1.2.9-.4.6-.4 1.7v5.7h-3v-11.2h2.3l.4 1.9h.2q.5-.9 1.3-1.5.9-.6 2-.6zM123.5 201.5l1-.1 1-.3v2.3l-1.3.3q-.7.2-1.6.2-1 0-1.8-.3t-1.3-1.1q-.4-.9-.4-2.3v-5.4h-1.5v-1.3l1.7-1 .9-2.4h2v2.4h3.1v2.3h-3.1v5.4q0 .6.3 1 .4.3 1 .3zM126 192.5h3.4l2.2 6.3.2 1 .1 1 .3-1q0-.6.2-1l2.1-6.3h3.3L133 205q-.6 1.8-1.8 2.7-1.2.8-2.9.8h-.9l-.6-.1V206h1.2q1 0 1.5-.5.6-.6.9-1.4l.2-.6z"/></g><rect ry="3.1" y="243.9" x="5.6" height="40.1" width="23" style="marker:none" fill="#f5a500"/><circle r="1.7" cy="281.2" cx="17.1" style="marker:none" fill="#fff"/></g></svg>