<svg width="512" height="512" viewBox="0 0 135.5 135.5" xmlns="http://www.w3.org/2000/svg"><path d="M.2 14.3h135.2v107.9H.2z" fill="#839496"/><g fill="#002b36" transform="translate(0 -161.5)"><rect x="39.2" y="243.9" width="23" height="40.1" ry="3.1"/><rect x="73.1" y="243.9" width="23" height="40.1" ry="3.1"/><rect x="106.7" y="243.9" width="23" height="40.1" ry="3.1"/><circle cx="30.1" cy="228" r="9.9"/><circle cx="54.9" cy="228" r="9.9"/><circle cx="78.6" cy="228" r="9.9"/><circle cx="103.4" cy="228" r="9.9"/><path d="M84.4 179.1c.8 1 1.2 2.4 1.2 4.3 0 2-.4 3.4-1.2 4.4s-1.8 1.5-3.1 1.5a3.7 3.7 0 01-3.1-1.5H78l.2 1.7v4.5H75v-16.2h2.5l.4 1.5h.2c.3-.5.7-.9 1.2-1.2.5-.3 1.1-.5 2.3-.5s2 .5 2.8 1.5zm-4 1c-.8 0-1.4.2-1.7.7-.3.5-.5 1.3-.5 2.3v.3c0 1 .1 1.9.4 2.5.3.6 1 .9 1.8.9.7 0 1.2-.3 1.6-.9.3-.6.5-1.4.5-2.5 0-2.2-.7-3.3-2.1-3.3zm10.8-6.7v4.8l-.1 1h.1c.4-.5.9-1 1.4-1.2s1.2-.4 1.9-.4c1.2 0 2.2.3 2.9 1s1.1 1.7 1.1 3.1v7.4h-3v-6.6c0-1.6-.6-2.4-1.9-2.4-1 0-1.6.3-1.9 1-.3.6-.5 1.5-.5 2.7v5.3h-3v-15.7zm20.6 10c0 1.9-.5 3.3-1.4 4.4-1 1-2.3 1.5-4 1.5-1 0-2-.2-2.8-.7s-1.5-1.1-2-2c-.4-.9-.6-2-.6-3.2 0-1.9.5-3.3 1.4-4.3 1-1 2.3-1.5 4-1.5 1 0 2 .2 2.8.7s1.5 1.1 2 2c.4.9.6 1.9.6 3.1zm-7.7 0c0 1.7.6 3.4 2.3 3.4 2 0 2.3-2 2.3-3.4 0-1.7-.6-3.3-2.3-3.3-2 0-2.3 1.9-2.3 3.3zm16.7-5.8c1.2 0 2.2.3 2.9 1 .7.7 1 1.7 1 3.1v7.4h-3v-6.6c0-.8-.1-1.4-.4-1.8-.3-.4-.8-.6-1.4-.6-1 0-1.6.3-2 1a7 7 0 00-.4 2.7v5.3h-3.1v-11.3h2.3l.4 1.5h.2c.3-.6.8-1 1.5-1.3s1.3-.4 2-.4zm11.7 0c1.6 0 2.8.5 3.7 1.4 1 .9 1.4 2.1 1.4 3.7v1.5h-7.3c0 .9.3 1.5.8 2s1.1.8 2 .8c.7 0 1.4 0 2-.2.6-.1 1.2-.4 1.8-.7v2.4c-.5.3-1.1.5-1.7.6l-2.2.2a7 7 0 01-3-.6 4.8 4.8 0 01-2-2c-.5-.8-.8-1.9-.8-3.2s.2-2.4.7-3.2c.5-1 1-1.6 1.8-2 .8-.5 1.7-.7 2.8-.7zm0 2.2c-.5 0-1 .2-1.4.6s-.6 1-.7 1.8h4.3c0-.7-.2-1.2-.5-1.7-.4-.5-1-.7-1.7-.7z" stroke-width=".5" word-spacing="0"/><path d="M90.2 192.3c1.3 0 2.4.5 3.1 1.4.8 1 1.2 2.5 1.2 4.4 0 1.9-.4 3.3-1.2 4.3s-1.8 1.5-3.1 1.5a4 4 0 01-2-.4l-1.2-1 .1 1.6v4.5h-3v-16.1h2.5l.4 1.4h.1c.3-.5.8-.8 1.3-1.1.5-.3 1.1-.5 2-.5zm-1 2.4c-.7 0-1.3.3-1.6.8-.3.5-.5 1.2-.6 2.2v.3c0 1.1.2 2 .5 2.6.3.5 1 .8 1.8.8.7 0 1.2-.3 1.5-.8a5 5 0 00.6-2.6c0-2.2-.7-3.3-2.1-3.3zm12.4-2.5c1.5 0 2.7.3 3.5 1s1.2 1.7 1.2 3v7.5h-2.1l-.6-1.5h-.1c-.5.6-1 1-1.5 1.3-.6.3-1.4.4-2.3.4-1 0-1.8-.3-2.4-.9-.7-.5-1-1.4-1-2.6s.4-2.1 1.2-2.7c.9-.5 2.1-.9 3.8-1h2v-.5c0-.6-.2-1-.5-1.3s-.8-.4-1.3-.4l-1.6.3-1.6.5-1-2 2-.8c.7-.2 1.5-.3 2.3-.3zm1.6 6.3h-1.1c-1 0-1.7.2-2.1.6-.4.3-.6.8-.6 1.3s.1.8.4 1c.3.2.6.3 1.1.3.7 0 1.2-.2 1.7-.6.4-.4.6-1 .6-1.7zm12.5-6.2h1l-.2 3-.4-.1h-.5c-.5 0-1 0-1.5.2s-.9.5-1.2.9a3 3 0 00-.4 1.7v5.7h-3v-11.2h2.3l.4 1.9h.2c.3-.6.8-1.1 1.3-1.5.6-.4 1.3-.6 2-.6zm7.8 9.2l1-.1 1-.3v2.3l-1.3.3a5.8 5.8 0 01-3.4-.1c-.5-.2-1-.6-1.3-1.1-.3-.6-.4-1.4-.4-2.3v-5.4h-1.5v-1.3l1.7-1 .9-2.4h2v2.4h3.1v2.3h-3.1v5.4c0 .4.1.7.3 1 .3.2.6.3 1 .3zm2.5-9h3.4l2.6 7.8 2.5-7.8h3.3L133 205c-.4 1.2-1 2.1-1.8 2.7-.8.5-1.8.8-2.9.8h-.9l-.6-.1V206h1.2c.7 0 1.2-.2 1.5-.5.4-.4.7-.9.9-1.4l.2-.6z" stroke-width=".5"/><rect x="5.6" y="243.9" width="23" height="40.1" ry="3.1"/></g></svg>
