<svg width="64" height="64" viewBox="0 0 16.9 16.9" xmlns="http://www.w3.org/2000/svg"><g fill="#839496" transform="translate(0 -280.1)"><rect x=".2" y="285.6" width="2" height="6.3" ry=".4"/><rect x="2.6" y="285.6" width="2" height="6.3" ry=".4"/><rect x="5" y="285.6" width="2" height="6.3" ry=".4"/><rect x="7.4" y="285.6" width="2" height="6.3" ry=".4"/><rect x="9.8" y="285.6" width="2" height="6.3" ry=".4"/><rect x="12.2" y="285.6" width="2" height="6.3" ry=".4"/><rect x="14.7" y="285.6" width="2" height="6.3" ry=".4"/></g><g fill="#002b36" transform="translate(0 -280.1)"><rect x="1.6" y="285" width="1.5" height="4.1" ry=".4"/><rect x="4" y="285" width="1.5" height="4.1" ry=".4"/><rect x="6.5" y="285" width="1.5" height="4.1" ry=".4"/><rect x="11.3" y="285" width="1.5" height="4.1" ry=".4"/><rect x="13.7" y="285" width="1.5" height="4.1" ry=".4"/></g></svg>