<?xml version="1.0" encoding="UTF-8" standalone="no"?>
<!-- Created with Inkscape (http://www.inkscape.org/) -->

<svg
   xmlns:dc="http://purl.org/dc/elements/1.1/"
   xmlns:cc="http://creativecommons.org/ns#"
   xmlns:rdf="http://www.w3.org/1999/02/22-rdf-syntax-ns#"
   xmlns:svg="http://www.w3.org/2000/svg"
   xmlns="http://www.w3.org/2000/svg"
   xmlns:sodipodi="http://sodipodi.sourceforge.net/DTD/sodipodi-0.dtd"
   xmlns:inkscape="http://www.inkscape.org/namespaces/inkscape"
   width="32"
   height="32"
   viewBox="0 0 32 32.000001"
   id="svg2"
   version="1.1"
   inkscape:version="0.91 r13725"
   sodipodi:docname="product-icon.svg">
  <defs
     id="defs4" />
  <sodipodi:namedview
     id="base"
     pagecolor="#0a2a3b"
     bordercolor="#666666"
     borderopacity="1.0"
     inkscape:pageopacity="0"
     inkscape:pageshadow="2"
     inkscape:zoom="15.999999"
     inkscape:cx="10.925119"
     inkscape:cy="14.413055"
     inkscape:document-units="px"
     inkscape:current-layer="text4146"
     showgrid="false"
     units="px"
     inkscape:window-width="1920"
     inkscape:window-height="977"
     inkscape:window-x="3840"
     inkscape:window-y="0"
     inkscape:window-maximized="1"
     showborder="true"
     showguides="true"
     inkscape:guide-bbox="true" />
  <metadata
     id="metadata7">
    <rdf:RDF>
      <cc:Work
         rdf:about="">
        <dc:format>image/svg+xml</dc:format>
        <dc:type
           rdf:resource="http://purl.org/dc/dcmitype/StillImage" />
        <dc:title />
      </cc:Work>
    </rdf:RDF>
  </metadata>
  <g
     inkscape:label="Layer 1"
     inkscape:groupmode="layer"
     id="layer1"
     transform="translate(0,-1020.3622)">
    <g
       style="font-style:normal;font-weight:normal;font-size:32.30565643px;line-height:125%;font-family:sans-serif;letter-spacing:0px;word-spacing:0px;fill:#ffffff;fill-opacity:1;stroke:none;stroke-width:1px;stroke-linecap:butt;stroke-linejoin:miter;stroke-opacity:1"
       id="text4146">
      <path
         d="m 13.578396,1046.6637 0,3.2146 -3.100296,0 q -3.1145819,0 -4.5432893,-1.2572 -1.4287076,-1.2574 -1.4287076,-4.0147 l 0,-2.7431 q 0,-2.1431 -0.771502,-2.9718 -0.7715021,-0.8429 -2.80026671,-0.8429 l -0.87151158,0 0,-3.186 0.87151158,0 q 2.02876461,0 2.80026671,-0.8286 0.771502,-0.8287 0.771502,-2.9718 l 0,-2.9288 q 0,-2.7574 1.4287076,-4.0004 1.4287074,-1.2572 4.5432893,-1.2572 l 3.100296,0 0,3.2145 -0.985808,0 q -2.014478,0 -2.628822,0.6286 -0.6000575,0.6144 -0.6000575,2.6432 l 0,2.3716 q 0,2.2431 -0.6429182,3.2574 -0.6429184,1.0144 -2.2144967,1.3717 1.5858653,0.3857 2.2144967,1.4 0.6429182,1.0144 0.6429182,3.2432 l 0,2.3717 q 0,2.043 0.6000575,2.6574 0.614344,0.6286 2.628822,0.6286 l 0.985808,0 z"
         style="font-style:normal;font-variant:normal;font-weight:bold;font-stretch:normal;font-family:Roboto;-inkscape-font-specification:'Roboto Bold';fill:#ffffff;fill-opacity:1"
         id="path3336"
         inkscape:connector-curvature="0" />
      <path
         d="m 18.434039,1046.6637 1.000096,0 c 1.33346,0 2.20021,-0.2096 2.600247,-0.6286 0.409564,-0.4096 0.614344,-1.2954 0.614344,-2.6574 l 0,-2.3717 c 0,-1.4858 0.214307,-2.5669 0.642919,-3.2432 0.428613,-0.6762 1.171541,-1.1429 2.228784,-1.4 -1.057243,-0.2382 -1.800171,-0.6954 -2.228784,-1.3717 -0.428612,-0.6762 -0.642919,-1.762 -0.642919,-3.2574 l 0,-2.3716 c 0,-1.3525 -0.20478,-2.2336 -0.614344,-2.6432 -0.400037,-0.4191 -1.266787,-0.6286 -2.600247,-0.6286 l -1.000096,0 0,-3.2145 3.100296,0 c 2.076388,0 3.590818,0.419 4.543289,1.2572 0.952473,0.8286 1.428708,2.1621 1.428708,4.0004 l 0,2.9288 c 0,1.4288 0.257168,2.4194 0.771502,2.9718 0.514335,0.5524 1.447757,0.8286 2.800266,0.8286 l 0.871512,0 0,3.186 -0.871512,0 c -1.352509,0 -2.285931,0.2809 -2.800266,0.8429 -0.514334,0.5524 -0.771502,1.543 -0.771502,2.9718 l 0,2.7431 c 0,1.8382 -0.476235,3.1764 -1.428708,4.0147 -0.952471,0.8381 -2.466901,1.2572 -4.543289,1.2572 l -3.100296,0 z"
         style="font-style:normal;font-variant:normal;font-weight:bold;font-stretch:normal;font-family:Roboto;-inkscape-font-specification:'Roboto Bold';fill:#ffffff;fill-opacity:1"
         id="path3338"
         inkscape:connector-curvature="0"
         sodipodi:nodetypes="cscsscccsscsccscssssccscsscscc" />
    </g>
  </g>
</svg>
