<svg xmlns="http://www.w3.org/2000/svg" xmlns:xlink="http://www.w3.org/1999/xlink" height="37" width="120"><defs><linearGradient xlink:href="#a" id="d" gradientUnits="userSpaceOnUse" gradientTransform="matrix(.56254 0 0 .56797 -2.7 -5.3)" x1="26.6" y1="20.6" x2="135.7" y2="114.4"/><linearGradient id="a"><stop offset="0" stop-color="#5a9fd4"/><stop offset="1" stop-color="#306998"/></linearGradient><linearGradient xlink:href="#b" id="e" gradientUnits="userSpaceOnUse" gradientTransform="matrix(.56254 0 0 .56797 -2.7 -5.3)" x1="151" y1="192.4" x2="112" y2="137.3"/><linearGradient id="b"><stop offset="0" stop-color="#ffd43b"/><stop offset="1" stop-color="#ffe873"/></linearGradient><radialGradient xlink:href="#c" id="f" gradientUnits="userSpaceOnUse" gradientTransform="matrix(0 -.23995 1.05467 0 -71.4 148.9)" cx="61.5" cy="132.3" fx="61.5" fy="132.3" r="29"/><linearGradient id="c"><stop offset="0" stop-color="#b8b8b8" stop-opacity=".5"/><stop offset="1" stop-color="#7f7f7f" stop-opacity="0"/></linearGradient></defs><g transform="matrix(.26269 0 0 .26269 -1.5 -.4)"><path d="M191.3 62c0-14.6-4.2-22.1-12.5-22.5-3.3-.2-6.5.4-9.6 1.6-2.5.9-4.2 1.8-5.1 2.7v34.7c5.3 3.3 10 4.9 14.1 4.6 8.7-.5 13-7.6 13-21.2zm10.2.5c0 7.4-1.7 13.6-5.2 18.5a19.3 19.3 0 0 1-16.2 8.5c-5.2.2-10.5-1.5-16-4.9v31.6l-9-3.2V43c1.5-1.8 3.4-3.3 5.7-4.6 5.3-3.1 11.8-4.7 19-4.7 7.4 0 12.7 2.8 16.5 8.6 3.5 5.3 5.2 12 5.2 20.3zM256 83.3c0 9.9-1 16.8-3 20.6a21 21 0 0 1-11.4 9.1 43.7 43.7 0 0 1-14.8 3l-1.4-5.7a71 71 0 0 0 11.3-2.1 15 15 0 0 0 9-6.8c1.2-2.4 1.9-7 1.9-14v-2.3c-6.1 2.8-12.5 4.1-19.2 4.1-4.4 0-8.2-1.3-11.6-4.1a14 14 0 0 1-5.6-11.5v-37l9-3v37.2c0 4 1.2 7 3.8 9.2 2.5 2.2 5.9 3.2 10 3.1 4 0 8.4-1.6 13-4.7V34.9h9zM290.8 89l-3 .1c-5 0-9-1.2-11.7-3.6a12.5 12.5 0 0 1-4.2-10v-35h-6.1v-5.6h6v-15l9-3.1v18h10v5.7h-10v34.8c0 3.3.9 5.7 2.6 7.1 1.6 1.1 4 1.8 7.4 2zM344.7 88.3h-8.9V53.9c0-3.5-.8-6.5-2.5-9a8.9 8.9 0 0 0-7.8-4.3c-4 0-9.2 2.1-15.3 6.4v41.3h-9V6l9-2.8v37.4a31 31 0 0 1 18.6-6.2c4.8 0 8.6 1.6 11.5 4.7 3 3.2 4.4 7.2 4.4 11.9zM392 60.5c0-5.6-1-10.2-3.1-13.8a13.3 13.3 0 0 0-11.7-7c-9.8.5-14.7 7.5-14.7 20.9 0 6.1 1 11.3 3 15.4 2.7 5.2 6.6 7.8 11.8 7.8 9.9-.1 14.8-7.9 14.8-23.3zm9.8 0c0 8-2 14.7-6 20a22 22 0 0 1-18.6 8.9c-7.8 0-14-3-18.3-9-4-5.2-6-11.9-6-19.8 0-7.5 2.1-13.8 6.5-19a22.3 22.3 0 0 1 17.9-8c7.4 0 13.4 2.6 18 8a28.4 28.4 0 0 1 6.5 19zM452.9 88.3h-9V51.9c0-4-1.1-7-3.5-9.3a13 13 0 0 0-9.6-3.2c-4.2 0-8.3 1.4-12 4.1v44.8h-9V42.4c5.1-3.7 9.9-6.2 14.2-7.3 4-1 7.6-1.6 10.7-1.6a23 23 0 0 1 14.5 5.1 12 12 0 0 1 3.7 8.8z" fill="#646464"/><path d="M67.2 6.4c-4.6 0-9 .4-12.8 1C43 9.6 41 13.8 41 21.5v10.2h26.8v3.5H30.9c-7.8 0-14.6 4.6-16.7 13.5a50.1 50.1 0 0 0 0 27.3c1.9 8 6.4 13.6 14.2 13.6h9.2V77.2a17 17 0 0 1 16.8-16.6h26.8c7.4 0 13.4-6.2 13.4-13.6V21.4c0-7.2-6.2-12.7-13.4-14-4.6-.7-9.4-1-14-1zm-14.5 8.2a5 5 0 0 1 5 5.1 5 5 0 0 1-5 5.1 5 5 0 0 1-5-5 5 5 0 0 1 5-5.2z" fill="url(#d)"/><path d="M98 35v12c0 9.2-8 17-16.8 17H54.4C47 64 41 70.2 41 77.6V103c0 7.3 6.3 11.6 13.4 13.6 8.5 2.5 16.6 3 26.8 0 6.7-2 13.4-5.8 13.4-13.6V93H67.8v-3.4H108c7.8 0 10.7-5.4 13.4-13.6a46 46 0 0 0 0-27.3c-2-7.7-5.6-13.5-13.4-13.5zM82.7 99.8a5 5 0 0 1 5 5.1 5 5 0 0 1-5 5.1 5 5 0 0 1-5-5.1 5 5 0 0 1 5-5z" fill="url(#e)"/><ellipse ry="7" rx="35.9" cy="134.1" cx="68.1" opacity=".4" fill="url(#f)"/></g></svg>