<svg width="32" height="32" xmlns="http://www.w3.org/2000/svg"><path d="M15.97 1.31c-1.2 0-2.36.1-3.36.26-3 .58-3.52 1.69-3.52 3.7v2.69h7.04v.92h-9.7a4.36 4.36 0 00-4.38 3.54 13.16 13.16 0 000 7.18c.5 2.1 1.68 3.57 3.73 3.57H8.2V19.9a4.47 4.47 0 014.41-4.36h7.04a3.57 3.57 0 003.52-3.57V5.25c0-1.89-1.63-3.33-3.52-3.68-1.2-.18-2.47-.26-3.68-.26zm-3.8 2.16a1.31 1.31 0 011.3 1.34 1.31 1.31 0 01-1.3 1.34 1.31 1.31 0 01-1.32-1.32 1.31 1.31 0 011.31-1.36z" fill="#586e75"/><path d="M24.06 8.83v3.15c0 2.41-2.1 4.46-4.41 4.46h-7.04a3.57 3.57 0 00-3.52 3.58v6.67c0 1.92 1.65 3.05 3.52 3.57 2.23.66 4.36.79 7.04 0 1.76-.52 3.52-1.52 3.52-3.57v-2.63h-7.04v-.9h10.56c2.05 0 2.81-1.41 3.52-3.56a12.08 12.08 0 000-7.18c-.52-2.02-1.47-3.54-3.52-3.54zm-4.02 17.02a1.31 1.31 0 011.32 1.34 1.31 1.31 0 01-1.32 1.34 1.31 1.31 0 01-1.3-1.34 1.31 1.31 0 011.3-1.32z" fill="#839496"/></svg>