<?xml version="1.0" encoding="UTF-8" standalone="no"?>
<svg
   xmlns:dc="http://purl.org/dc/elements/1.1/"
   xmlns:cc="http://creativecommons.org/ns#"
   xmlns:rdf="http://www.w3.org/1999/02/22-rdf-syntax-ns#"
   xmlns:svg="http://www.w3.org/2000/svg"
   xmlns="http://www.w3.org/2000/svg"
   xmlns:sodipodi="http://sodipodi.sourceforge.net/DTD/sodipodi-0.dtd"
   xmlns:inkscape="http://www.inkscape.org/namespaces/inkscape"
   width="48"
   height="35"
   viewBox="0 0 48 35"
   id="svg2"
   version="1.1"
   inkscape:version="0.91 r13725"
   sodipodi:docname="sass-logo.svg">
  <metadata
     id="metadata10">
    <rdf:RDF>
      <cc:Work
         rdf:about="">
        <dc:format>image/svg+xml</dc:format>
        <dc:type
           rdf:resource="http://purl.org/dc/dcmitype/StillImage" />
        <dc:title></dc:title>
      </cc:Work>
    </rdf:RDF>
  </metadata>
  <defs
     id="defs8" />
  <sodipodi:namedview
     pagecolor="#ffffff"
     bordercolor="#666666"
     borderopacity="1"
     objecttolerance="10"
     gridtolerance="10"
     guidetolerance="10"
     inkscape:pageopacity="0"
     inkscape:pageshadow="2"
     inkscape:window-width="1920"
     inkscape:window-height="997"
     id="namedview6"
     showgrid="false"
     inkscape:zoom="13.906433"
     inkscape:cx="57.739987"
     inkscape:cy="17.131191"
     inkscape:window-x="1920"
     inkscape:window-y="0"
     inkscape:window-maximized="1"
     inkscape:current-layer="svg2" />
  <path
     d="m 40.786974,20.091971 c -1.632085,0.0091 -3.045343,0.401184 -4.230656,0.984722 -0.437654,-0.866191 -0.875308,-1.622968 -0.948251,-2.18827 -0.08206,-0.656482 -0.182355,-1.057665 -0.08206,-1.841795 0.100295,-0.78413 0.556184,-1.896501 0.556184,-1.987679 -0.0091,-0.08206 -0.100295,-0.483243 -1.039428,-0.492361 -0.939133,-0.0091 -1.750616,0.182356 -1.841794,0.428536 -0.09118,0.246181 -0.273534,0.811484 -0.392065,1.395023 -0.16412,0.857073 -1.878266,3.893298 -2.85387,5.488912 -0.319123,-0.62001 -0.592657,-1.167078 -0.647363,-1.604732 -0.08206,-0.656481 -0.182357,-1.057664 -0.08206,-1.841794 0.100296,-0.78413 0.556186,-1.896501 0.556186,-1.987679 -0.0091,-0.08206 -0.100296,-0.483244 -1.039429,-0.492361 -0.939132,-0.0091 -1.750616,0.182356 -1.841794,0.428536 -0.09118,0.246181 -0.191474,0.829719 -0.392065,1.395023 -0.191474,0.565303 -2.470923,5.634796 -3.063579,6.956877 -0.300887,0.674716 -0.565303,1.212666 -0.756777,1.577378 -0.191474,0.364711 -0.0091,0.02735 -0.02735,0.06383 -0.164122,0.310001 -0.2553,0.48324 -0.2553,0.48324 l 0,0.0091 c -0.127649,0.227944 -0.264416,0.446771 -0.32824,0.446771 -0.04559,0 -0.136767,-0.610892 0.01824,-1.449729 0.337358,-1.759734 1.15796,-4.504191 1.148842,-4.604486 0,-0.04559 0.155003,-0.528833 -0.528832,-0.775013 -0.665599,-0.24618 -0.902662,0.164121 -0.957368,0.164121 -0.05471,0 -0.100296,0.145884 -0.100296,0.145884 0,0 0.738541,-3.090932 -1.413259,-3.090932 -1.349433,0 -3.209462,1.467965 -4.13036,2.808281 -0.583539,0.319122 -1.823559,0.99384 -3.136521,1.714145 -0.501479,0.273534 -1.021193,0.565303 -1.513554,0.829719 L 11.363852,22.945841 C 8.7561631,20.164914 3.9328501,18.19547 4.1334415,14.457174 4.2063839,13.098623 4.6805092,9.51533 13.397121,5.17526 20.536353,1.6193203 26.25321,2.5949243 27.24705,4.7649593 c 1.413258,3.10005 -3.054461,8.8624957 -10.476345,9.6922147 -2.826517,0.319123 -4.312717,-0.775012 -4.686547,-1.185313 -0.392065,-0.428536 -0.446771,-0.446772 -0.592656,-0.364712 -0.237063,0.12765 -0.09118,0.510597 0,0.738542 0.218827,0.574421 1.130606,1.595614 2.680631,2.10621 1.358552,0.446772 4.677429,0.692953 8.689258,-0.857072 C 27.356464,13.15333 30.866814,8.320899 29.836504,4.2817162 28.787958,0.16959106 21.967848,-1.1798426 15.521567,1.1087238 11.682975,2.4763929 7.525261,4.6099568 4.5346244,7.4091196 0.97868478,10.727997 0.41338154,13.627455 0.65044419,14.831004 c 0.82971931,4.294481 6.74716761,7.093644 9.11779401,9.163383 -0.118531,0.06383 -0.2279448,0.12765 -0.3282406,0.182356 -1.1853132,0.583539 -5.6986212,2.945048 -6.8292277,5.443323 -1.2764911,2.826517 0.2005915,4.859784 1.1853133,5.133318 3.0453432,0.847955 6.1636286,-0.674716 7.8504218,-3.18211 1.677673,-2.507393 1.477082,-5.762446 0.702069,-7.248647 l -0.02735,-0.0547 0.930014,-0.547068 c 0.601775,-0.355594 1.194432,-0.683834 1.714146,-0.966487 -0.291769,0.793249 -0.501479,1.732381 -0.610892,3.10005 -0.127649,1.604732 0.528832,3.68359 1.395022,4.504191 0.382948,0.355594 0.838837,0.364712 1.121489,0.364712 1.002958,0 1.458847,-0.829719 1.960326,-1.823559 0.62001,-1.212667 1.167078,-2.616807 1.167078,-2.616807 0,0 -0.683835,3.80212 1.185313,3.80212 0.683835,0 1.367669,-0.884426 1.677674,-1.340315 l 0,0.0091 c 0,0 0.01824,-0.02735 0.05471,-0.09118 0.07294,-0.109414 0.109413,-0.173239 0.109413,-0.173239 l 0,-0.01824 c 0.273534,-0.474125 0.884426,-1.559143 1.796205,-3.355348 1.176196,-2.31592 2.306803,-5.215378 2.306803,-5.215378 0,0 0.109413,0.711187 0.446771,1.878265 0.200592,0.692952 0.638245,1.449729 0.975604,2.18827 -0.273534,0.382948 -0.437654,0.601775 -0.437654,0.601775 l 0.0091,0.0091 c -0.218827,0.291769 -0.465008,0.601774 -0.720306,0.911779 -0.930015,1.112371 -2.042386,2.379745 -2.188271,2.744457 -0.173237,0.428536 -0.136767,0.747659 0.200592,1.002957 0.246181,0.182355 0.683834,0.218826 1.148842,0.182355 0.838837,-0.0547 1.422376,-0.264416 1.714145,-0.392065 0.45589,-0.16412 0.975605,-0.4103 1.477083,-0.775012 0.911779,-0.674717 1.467965,-1.632085 1.413258,-2.908577 -0.02735,-0.702069 -0.255298,-1.395022 -0.53795,-2.051503 0.08206,-0.118531 0.16412,-0.237063 0.246181,-0.364712 1.440611,-2.10621 2.552982,-4.422131 2.552982,-4.422131 0,0 0.109413,0.711189 0.446772,1.878266 0.173238,0.592657 0.519714,1.24002 0.829719,1.878266 -1.349433,1.103253 -2.197388,2.379745 -2.489158,3.218581 -0.53795,1.550025 -0.118531,2.252096 0.674717,2.416216 0.355594,0.07294 0.866191,-0.09118 1.249138,-0.255298 0.474125,-0.155003 1.048546,-0.419419 1.577379,-0.811484 0.911779,-0.674717 1.787087,-1.61385 1.741498,-2.881223 -0.02735,-0.583539 -0.182356,-1.15796 -0.392065,-1.705028 1.148842,-0.474124 2.635043,-0.747659 4.522426,-0.519714 4.057418,0.474125 4.859784,3.008872 4.704782,4.066536 -0.155003,1.057664 -1.002958,1.641203 -1.28561,1.82356 -0.282651,0.173237 -0.373829,0.237062 -0.346476,0.364711 0.03648,0.191474 0.164121,0.182356 0.410301,0.145885 0.337359,-0.05471 2.133564,-0.866191 2.206506,-2.817399 0.109414,-2.507393 -2.270331,-5.242731 -6.49187,-5.215378 z M 9.4947041,30.641259 c -1.3403154,1.467965 -3.2276987,2.02415 -4.0300646,1.550025 -0.8661905,-0.501478 -0.5288321,-2.662396 1.1214886,-4.221538 1.0029574,-0.948251 2.306802,-1.823559 3.1638749,-2.361509 0.1914736,-0.118531 0.483243,-0.29177 0.829719,-0.501479 0.05471,-0.03647 0.09118,-0.0547 0.09118,-0.0547 0.06383,-0.03647 0.136767,-0.08206 0.20971,-0.127649 0.610892,2.224742 0.02735,4.175949 -1.3859057,5.716857 z m 9.8016289,-6.665107 c -0.465007,1.139724 -1.449728,4.066535 -2.042385,3.902416 -0.510596,-0.136767 -0.820602,-2.352391 -0.100296,-4.540662 0.364712,-1.103253 1.139724,-2.416215 1.595614,-2.926812 0.738542,-0.820602 1.540907,-1.094135 1.741499,-0.756777 0.237063,0.437654 -0.902662,3.610647 -1.194432,4.321835 z m 8.087484,3.865945 c -0.200591,0.100295 -0.382947,0.173237 -0.465007,0.118531 -0.06383,-0.03647 0.08206,-0.173239 0.08206,-0.173239 0,0 1.012075,-1.085017 1.413258,-1.586496 0.227944,-0.291769 0.501479,-0.629128 0.793248,-1.012075 l 0,0.109414 c 0,1.312962 -1.258256,2.188271 -1.823559,2.543865 z m 6.236571,-1.422377 c -0.145885,-0.109413 -0.127649,-0.446771 0.364712,-1.504436 0.191474,-0.419418 0.629127,-1.121488 1.385905,-1.787087 0.09118,0.273534 0.145885,0.537949 0.136767,0.78413 -0.0091,1.641203 -1.176196,2.252095 -1.887384,2.507393 z"
     id="path4"
     inkscape:connector-curvature="0"
     style="fill:#cf649a" />
</svg>
