<svg width="64" height="64" viewBox="0 0 16.93 16.93" xmlns="http://www.w3.org/2000/svg"><path d="M3.6 2.5c-.58 0-1.05.46-1.05 1.04v13.91c0 .58.47 1.04 1.04 1.04h6.06c.58 0 1.04-.46 1.04-1.04V3.54c0-.58-.46-1.04-1.04-1.04zm.59 1.03h.51c.34 0 .6.27.6.6v.52a.6.6 0 01-.6.6H4.2a.6.6 0 01-.6-.6v-.52c0-.33.26-.6.6-.6zm2.23 0h.52c.33 0 .6.27.6.6v2.8a.6.6 0 01-.6.6h-.52a.6.6 0 01-.6-.6v-2.8c0-.33.27-.6.6-.6zm2.11 0h.52c.33 0 .6.27.6.6v.52a.6.6 0 01-.6.6h-.52a.6.6 0 01-.6-.6v-.52c0-.33.27-.6.6-.6zM4.2 5.8h.51c.34 0 .6.27.6.6v.52a.6.6 0 01-.6.6H4.2a.6.6 0 01-.6-.6V6.4c0-.33.26-.6.6-.6zm4.34 0h.52c.33 0 .6.27.6.6v.52a.6.6 0 01-.6.6h-.52a.6.6 0 01-.6-.6V6.4c0-.33.27-.6.6-.6zM4.2 7.97h.51c.34 0 .6.27.6.6v.52a.6.6 0 01-.6.6H4.2a.6.6 0 01-.6-.6v-.52c0-.33.26-.6.6-.6zm2.23 0h.52c.33 0 .6.27.6.6v.52a.6.6 0 01-.6.6h-.52a.6.6 0 01-.6-.6v-.52c0-.33.27-.6.6-.6zm2.11 0h.52c.33 0 .6.27.6.6v4.9a.6.6 0 01-.6.6h-.52a.6.6 0 01-.6-.6v-4.9c0-.33.27-.6.6-.6zM4.2 10.13h.51c.34 0 .6.27.6.6v.52a.6.6 0 01-.6.6H4.2a.6.6 0 01-.6-.6v-.52c0-.33.26-.6.6-.6zm2.23 0h.52c.33 0 .6.27.6.6v.52a.6.6 0 01-.6.6h-.52a.6.6 0 01-.6-.6v-.52c0-.33.27-.6.6-.6zm-2.23 2.2h.51c.34 0 .6.27.6.6v.52a.6.6 0 01-.6.6H4.2a.6.6 0 01-.6-.6v-.52c0-.33.26-.6.6-.6zm2.23 0h.52c.33 0 .6.27.6.6v.52a.6.6 0 01-.6.6h-.52a.6.6 0 01-.6-.6v-.52c0-.33.27-.6.6-.6zM4.19 14.5h.51c.34 0 .6.27.6.6v.52a.6.6 0 01-.6.6H4.2a.6.6 0 01-.6-.6v-.51c0-.34.26-.6.6-.6zm2.23 0h.52c.33 0 .6.27.6.6v.52a.6.6 0 01-.6.6h-.52a.6.6 0 01-.6-.6v-.51c0-.34.27-.6.6-.6zm2.11 0h.52c.33 0 .6.27.6.6v.52a.6.6 0 01-.6.6h-.52a.6.6 0 01-.6-.6v-.51c0-.34.27-.6.6-.6zM13.88 8.1a2 2 0 00-2 2v1.32h2.04v-.24a.52.52 0 01-.36-.49V9.32c0-.23.15-.42.36-.49V8.1zm.57 0v.75c.19.08.32.26.32.47v1.37c0 .21-.13.4-.32.48v.25h2.03V10.1a2 2 0 00-2-2.01zm-2.58 3.85v2.38a2 2 0 002.01 2h.6a2 2 0 002-2v-2.38z" fill="#839496"/><path d="M14.18 8.2c0-4.2-2.16-2.25-2.16-6.61l.01-2.77M2.68 6.2C1.85 6.2.14 5 1.18 2.9c1-2.03.87-4.3.87-4.3" fill="none" stroke="#839496" stroke-width=".79"/></svg>