<?xml version="1.0" encoding="UTF-8" standalone="no"?>
<!-- Generator: Adobe Illustrator 16.0.0, SVG Export Plug-In . SVG Version: 6.00 Build 0)  -->

<svg
   xmlns:dc="http://purl.org/dc/elements/1.1/"
   xmlns:cc="http://creativecommons.org/ns#"
   xmlns:rdf="http://www.w3.org/1999/02/22-rdf-syntax-ns#"
   xmlns:svg="http://www.w3.org/2000/svg"
   xmlns="http://www.w3.org/2000/svg"
   xmlns:sodipodi="http://sodipodi.sourceforge.net/DTD/sodipodi-0.dtd"
   xmlns:inkscape="http://www.inkscape.org/namespaces/inkscape"
   version="1.1"
   id="Capa_1"
   x="0px"
   y="0px"
   width="55"
   height="55"
   viewBox="0 0 55.000001 55.000001"
   xml:space="preserve"
   sodipodi:docname="volleyball-logo.svg"
   inkscape:version="0.92.4 5da689c313, 2019-01-14"><metadata
   id="metadata59"><rdf:RDF><cc:Work
       rdf:about=""><dc:format>image/svg+xml</dc:format><dc:type
         rdf:resource="http://purl.org/dc/dcmitype/StillImage" /><dc:title></dc:title></cc:Work></rdf:RDF></metadata><defs
   id="defs57" /><sodipodi:namedview
   pagecolor="#ffffff"
   bordercolor="#666666"
   borderopacity="1"
   objecttolerance="10"
   gridtolerance="10"
   guidetolerance="10"
   inkscape:pageopacity="0"
   inkscape:pageshadow="2"
   inkscape:window-width="1325"
   inkscape:window-height="895"
   id="namedview55"
   showgrid="false"
   inkscape:zoom="4.5167141"
   inkscape:cx="19.855248"
   inkscape:cy="-0.0042907517"
   inkscape:window-x="703"
   inkscape:window-y="334"
   inkscape:window-maximized="0"
   inkscape:current-layer="Capa_1" />
<g
   id="g22"
   transform="matrix(0.10192601,0,0,0.10192601,5.8287029,6.3578175)">
	<g
   id="g20">
		<path
   d="m 54.725,134.583 0.4,2.938 c 5.955,7.794 19.393,23.268 42.487,39.325 l 4.498,-1.35 c 7.702,-19.266 21.474,-47.418 32.894,-63.948 l 0.06,-0.09 C 177.932,44.354 232.95,22.326 271.554,15.664 L 271.98,9.857 C 258.122,5.309 244.092,2.419 229.091,1.018 223.118,0.461 217.712,0 212.028,0 204.49,0 197.186,0.846 189.043,2.66 163.787,8.291 139.984,22.489 114.134,47.344 86.813,73.615 67.435,102.012 54.875,134.2 Z"
   id="path2"
   inkscape:connector-curvature="0" />
		<path
   d="m 100.927,291.182 c 24.764,8.543 51.262,12.875 78.76,12.875 h 0.006 c 9.929,0 20.2,-0.562 30.531,-1.674 7.319,-0.788 14.537,-2.006 22.19,-3.298 l 1.705,-0.287 2.46,-3.452 c -4.704,-28.188 -15.674,-54.277 -30.886,-73.468 l -2.929,-1.08 c -0.888,0.175 -1.771,0.347 -2.544,0.493 -16.068,3.051 -32.17,3.3 -47.566,0.734 C 103.839,213.89 64.09,188.148 34.51,145.516 30.457,139.674 26.958,133.527 24.071,128.284 l -5.429,0.371 C 7.315,158.112 2.222,191.637 2.013,203.041 l 0.467,1.663 c 3.852,6.065 13.529,21.126 20.197,29.961 19.993,26.487 46.32,45.504 78.25,56.517 z"
   id="path4"
   inkscape:connector-curvature="0" />
		<path
   d="M 43.461,112.189 C 55.152,88.157 69.472,66.595 86.019,48.105 L 81.954,43.727 C 64.955,56.814 49.902,72.79 37.216,91.209 c -1.213,1.763 -3.329,5.234 -4.891,7.837 l -0.051,2.998 c 1.895,3.417 3.88,6.899 5.901,10.349 z"
   id="path6"
   inkscape:connector-curvature="0" />
		<path
   d="m 128.484,163.802 c -2.951,6.748 -5.477,13.616 -8.15,20.888 l -0.602,1.637 1.771,3.851 c 19.61,7.272 40.075,11.117 59.183,11.117 6.868,0 13.574,-0.49 19.932,-1.459 l 2.391,-2.007 c 0.289,-0.857 0.579,-1.708 0.836,-2.455 5.344,-15.508 13.072,-29.521 22.975,-41.652 31.297,-38.336 73.375,-60.062 125.065,-64.573 4.357,-0.381 8.988,-0.558 14.574,-0.558 1.852,0 3.715,0.02 5.569,0.049 l 2.373,-4.896 C 354.456,59.29 327.88,38.223 318.085,32.38 l -1.677,-0.421 c -7.184,0.333 -25.074,1.259 -36.033,2.659 -32.918,4.204 -62.495,17.617 -87.909,39.867 -26.79,23.455 -48.317,53.505 -63.982,89.317 z"
   id="path8"
   inkscape:connector-curvature="0" />
		<path
   d="m 397.216,117.728 c -0.92,-1.933 -2.87,-5.501 -4.345,-8.154 l -2.57,-1.543 c -3.886,-0.066 -7.953,-0.088 -11.915,-0.061 l -2.464,4.682 c 14.974,22.132 26.495,45.31 34.245,68.887 l 2.865,-0.656 0.005,2.72 v -2.721 l 2.953,-0.677 c -2.842,-21.266 -9.158,-42.287 -18.774,-62.477 z"
   id="path10"
   inkscape:connector-curvature="0" />
		<path
   d="m 187.301,402.485 c -19.35,0 -38.347,-1.957 -56.463,-5.817 l -1.78,5.703 c 19.812,8.269 41.162,13.409 63.46,15.276 2.126,0.18 6.193,0.291 9.231,0.355 l 2.628,-1.444 c 1.385,-2.282 3.561,-5.918 6.06,-10.27 l -2.8,-4.487 c -6.843,0.454 -13.686,0.684 -20.336,0.684 z"
   id="path12"
   inkscape:connector-curvature="0" />
		<path
   d="m 351.183,111.582 -0.298,-0.374 -2.735,-1.11 c -9.728,1.265 -29.846,5.174 -55.292,17.154 l -1.079,4.57 c 12.84,16.297 30.345,42.294 38.957,60.448 l 0.049,0.097 c 23.519,45.273 31.37,90.676 23.336,134.945 -1.936,10.656 -4.781,21.104 -8.462,31.055 l 4.815,3.273 c 10.826,-9.711 20.309,-20.389 28.987,-32.645 8.078,-11.405 13.736,-20.039 18.587,-35.512 7.744,-24.689 7.34,-52.401 -1.272,-87.212 -9.105,-36.789 -24.018,-67.764 -45.593,-94.689 z"
   id="path14"
   inkscape:connector-curvature="0" />
		<path
   d="m 288.73,160.512 c -4.364,-5.922 -9.051,-11.538 -14.026,-17.505 l -1.107,-1.328 -4.223,-0.388 c -21.979,18.267 -38.988,40.888 -47.898,63.698 l 0.543,3.073 c 0.598,0.679 1.189,1.354 1.709,1.95 10.765,12.379 19.041,26.077 24.6,40.715 17.569,46.266 15.363,93.569 -6.559,140.602 -3.008,6.45 -6.554,12.566 -9.625,17.7 l 3.055,4.502 c 31.15,-5.059 62.678,-17.552 72.634,-23.116 l 1.201,-1.241 c 3.299,-6.384 11.434,-22.334 15.702,-32.541 12.808,-30.616 15.968,-62.938 9.393,-96.067 -6.934,-34.929 -22.207,-68.591 -45.399,-100.054 z"
   id="path16"
   inkscape:connector-curvature="0" />
		<path
   d="m 233.466,319.48 c -16.689,2.354 -37.62,3.816 -54.622,3.816 -6.505,0 -12.298,-0.213 -17.218,-0.634 l -0.108,-0.007 c -50.96,-2.498 -94.134,-18.594 -128.323,-47.84 -8.228,-7.037 -15.817,-14.76 -22.559,-22.953 l -5.256,2.511 c 2.933,14.239 7.378,27.812 13.593,41.487 5.783,12.727 10.391,21.965 21.308,33.947 17.427,19.131 41.568,32.743 75.975,42.843 24.354,7.148 48.452,10.773 71.622,10.773 11.069,0 22.223,-0.822 33.146,-2.444 l 0.457,-0.064 2.351,-1.808 c 3.81,-9.036 10.567,-28.381 13.042,-56.394 z"
   id="path18"
   inkscape:connector-curvature="0" />
	</g>
</g>
<g
   id="g24"
   transform="matrix(0.13080586,0,0,0.13080586,-0.20722924,0.32189984)">
</g>
<g
   id="g26"
   transform="matrix(0.13080586,0,0,0.13080586,-0.20722924,0.32189984)">
</g>
<g
   id="g28"
   transform="matrix(0.13080586,0,0,0.13080586,-0.20722924,0.32189984)">
</g>
<g
   id="g30"
   transform="matrix(0.13080586,0,0,0.13080586,-0.20722924,0.32189984)">
</g>
<g
   id="g32"
   transform="matrix(0.13080586,0,0,0.13080586,-0.20722924,0.32189984)">
</g>
<g
   id="g34"
   transform="matrix(0.13080586,0,0,0.13080586,-0.20722924,0.32189984)">
</g>
<g
   id="g36"
   transform="matrix(0.13080586,0,0,0.13080586,-0.20722924,0.32189984)">
</g>
<g
   id="g38"
   transform="matrix(0.13080586,0,0,0.13080586,-0.20722924,0.32189984)">
</g>
<g
   id="g40"
   transform="matrix(0.13080586,0,0,0.13080586,-0.20722924,0.32189984)">
</g>
<g
   id="g42"
   transform="matrix(0.13080586,0,0,0.13080586,-0.20722924,0.32189984)">
</g>
<g
   id="g44"
   transform="matrix(0.13080586,0,0,0.13080586,-0.20722924,0.32189984)">
</g>
<g
   id="g46"
   transform="matrix(0.13080586,0,0,0.13080586,-0.20722924,0.32189984)">
</g>
<g
   id="g48"
   transform="matrix(0.13080586,0,0,0.13080586,-0.20722924,0.32189984)">
</g>
<g
   id="g50"
   transform="matrix(0.13080586,0,0,0.13080586,-0.20722924,0.32189984)">
</g>
<g
   id="g52"
   transform="matrix(0.13080586,0,0,0.13080586,-0.20722924,0.32189984)">
</g>
</svg>