<svg xmlns="http://www.w3.org/2000/svg" height="55" width="55"><path d="M11.45 20.37c.6.8 1.97 2.38 4.33 4.01.24.11.36.01.46-.13a38.63 38.63 0 0 1 3.35-6.52v-.01c4.37-6.84 9.98-9.09 13.92-9.77.4-.17.3-.37.04-.59a19.73 19.73 0 0 0-6.11-1c-.77 0-1.51.08-2.34.27-2.58.57-5 2.02-7.64 4.55a24.47 24.47 0 0 0-6.04 8.86c-.03.1-.05.24.03.33z"/><path d="M16.12 36.04c2.52.87 5.22 1.3 8.02 1.3 1.02 0 2.06-.05 3.12-.16.89-.1 1.65-.25 2.43-.37.19-.02.3-.1.25-.35a16.7 16.7 0 0 0-3.15-7.49l-.3-.1-.25.04c-1.64.31-3.28.34-4.85.08-4.98-.83-9.03-3.46-12.04-7.8-.42-.6-.73-1.25-1.07-1.76-.25-.37-.45-.22-.55.04-1.16 3-1.67 6.42-1.7 7.58l.05.17c.4.62 1.38 2.16 2.06 3.06a16.58 16.58 0 0 0 7.98 5.76zM10.26 17.8a27.65 27.65 0 0 1 4.34-6.54c.28-.31-.14-.65-.42-.45a20.26 20.26 0 0 0-5.06 5.64c-.07.16-.04.24 0 .3l.6 1.06c.2.17.37.12.54-.02z"/><path d="M18.92 23.05c-.35.83-.61 1.56-.89 2.3-.08.22-.02.32.18.4 2.01.7 4.09 1.13 6.04 1.13.7 0 1.38-.05 2.03-.15.23-.07.23-.32.33-.46.54-1.58 1.33-3 2.34-4.24 3.19-3.91 7.48-6.13 12.74-6.59a16.84 16.84 0 0 1 2.06-.05l.24-.5a27.6 27.6 0 0 0-5.74-5.23l-.17-.04c-.73.03-2.56.12-3.67.27-3.36.42-6.37 1.8-8.96 4.06a25.55 25.55 0 0 0-6.53 9.1zM46.32 18.36l-.45-.83c-.05-.1-.13-.18-.26-.16H44.4c-.19 0-.51.07-.26.47a38.38 38.38 0 0 1 3.5 7.02c.13.35.61.35.59-.13-.11-2.19-.93-4.31-1.91-6.37zM24.92 47.38c-1.97 0-3.9-.28-5.76-.6-.69-.1-.7.33-.18.59a17.99 17.99 0 0 0 7.41 1.6c.17 0 .22-.07.27-.15l.62-1.05c.12-.31.01-.46-.29-.46-.7.05-1.4.07-2.07.07z"/><path d="M41.62 17.73l-.03-.04-.28-.11c-.99.13-3.04.53-5.63 1.75-.24.13-.2.3-.11.46 1.3 1.66 3.1 4.31 3.97 6.17 2.4 4.62 3.2 9.25 2.38 13.76a22 22 0 0 1-.86 3.16c-.12.37.07.66.5.34 1.17-.9 2.06-2.08 2.95-3.33.82-1.16 1.4-2.04 1.89-3.62.79-2.52.75-5.34-.13-8.89a24.47 24.47 0 0 0-4.65-9.65z"/><path d="M35.26 22.72c-.54-.72-1.04-1.32-1.54-1.92-.14-.12-.28-.16-.44-.04a16.6 16.6 0 0 0-4.88 6.5c-.06.23.12.37.23.5a14.92 14.92 0 0 1 2.51 4.15c1.8 4.72 1.57 9.54-.67 14.33-.3.66-.68 1.28-.98 1.8-.15.27-.2.54.31.47a26.54 26.54 0 0 0 7.4-2.36l.13-.13c.33-.65 1.16-2.27 1.6-3.31 1.3-3.12 1.63-6.42.96-9.8-.71-3.55-2.27-6.98-4.63-10.2z"/><path d="M29.62 38.92c-1.7.24-3.83.39-5.56.39-.67 0-1.26-.02-1.76-.06-5.2-.26-9.6-1.9-13.09-4.88-.84-.72-1.56-1.55-2.3-2.34-.3-.33-.63-.3-.53.26.25 1.46.75 2.83 1.38 4.22.6 1.3 1.06 2.24 2.17 3.46 1.78 1.95 4.24 3.34 7.75 4.37 2.48.73 4.94 1.1 7.3 1.1 1.13 0 2.26-.09 3.38-.25h.04l.24-.2c.4-.91 1.1-2.88 1.33-5.74.02-.16.1-.4-.35-.33z"/></svg>