<svg width="55" height="55" xmlns="http://www.w3.org/2000/svg"><path d="M25.02 2.08c-3.13.73-6.08 2.46-9.3 5.53-3.2 3-5.71 6.69-7.34 10.77-.03.12-.06.3.04.4.73.98 2.4 2.9 5.27 4.88.29.13.44.01.56-.16a46.96 46.96 0 014.07-7.93C23.63 7.24 30.46 4.5 35.25 3.67c.49-.2.36-.45.05-.71-3.65-1.02-6.48-1.77-10.28-.9zM40.8 5.72c-.89.03-3.11.14-4.46.33a20.1 20.1 0 00-10.9 4.93c-4.43 4.33-7.33 8.58-9.02 13.86-.1.27-.02.4.22.49 3.2 1.22 6.45 1.77 9.81 1.2.28-.1.29-.4.4-.57a16.65 16.65 0 012.85-5.15c3.88-4.76 9.1-7.46 15.5-8.02.83-.07 1.66-.09 2.5-.06.34 0 .44-.4.29-.6-2.26-2.56-4.48-4.97-7.19-6.41zM12.01 7.09a.39.39 0 00-.27.07 24.63 24.63 0 00-6.15 6.86c-.09.2-.05.3 0 .37l.72 1.29c.25.2.58.2 1.37-1.33a34.85 34.85 0 014.57-6.64c.26-.28.03-.59-.24-.62zm36.48 8.05c-.23 0-.62.09-.32.57 1.71 2.7 3.14 5.56 4.26 8.54.16.42.74.42.72-.16-.14-2.66-1.13-5.24-2.33-7.74l-.54-1.01c-.06-.13-.16-.22-.32-.2zm-3.76.26c-1.2.16-3.7.64-6.84 2.12-.3.16-.25.37-.14.56a46.54 46.54 0 014.83 7.5c2.92 5.62 3.9 11.26 2.9 16.74-.26 1.3-.6 2.59-1.05 3.84-.15.45.08.8.6.41 2.64-2.39 4.96-5.52 5.9-8.45.95-3.06.9-6.5-.17-10.8a29.7 29.7 0 00-5.65-11.74c-.12-.16-.17-.2-.38-.18zM4.16 17.38c-.11.03-.2.16-.27.32a33.7 33.7 0 00-2.06 9.21l.06.2c2.7 4.86 7.57 9.12 12.2 10.73 5.7 1.83 11.08 1.83 16.5.93.24-.02.37-.12.31-.42a20.3 20.3 0 00-3.83-9.1c-.13-.19-.46-.13-.67-.08-1.99.38-3.98.41-5.9.1-6.05-1.01-10.97-4.21-14.63-9.49-.51-.73-.89-1.52-1.3-2.14-.16-.22-.3-.29-.4-.26zm31.08 1.8a.37.37 0 00-.28.08 20.2 20.2 0 00-5.93 7.9c-.07.29.15.46.28.62a18.16 18.16 0 013.05 5.04c2.2 5.74 1.91 11.6-.81 17.42-.37.8-.83 1.56-1.2 2.2-.17.32-.24.65.38.56 3.36-.67 6.66-1.47 9.16-3.03 3.13-5 4-11.16 3.11-15.94a35.6 35.6 0 00-7.5-14.72.52.52 0 00-.26-.13zM2.4 32.72c-.13.04-.2.22-.14.56.78 3.49 2.26 7.05 4.32 9.34 2.16 2.37 5.16 4.06 9.42 5.31 4.52 1.22 8.73 1.64 13 1.04h.04l.3-.24c.48-1.11 1.33-3.5 1.61-6.98.03-.2.12-.49-.42-.4-3.12.39-5.97.53-8.9.4-8.4-.41-14.1-3.26-18.72-8.78-.18-.2-.37-.3-.5-.25zm15.12 18.17c-.55.02-.5.46.06.73a21.88 21.88 0 009.01 1.95c.2 0 .27-.09.33-.18l.75-1.28c.15-.38.01-.56-.35-.56-3.39.35-6.65-.16-9.52-.65a1.5 1.5 0 00-.28-.01z"/></svg>