<?xml version="1.0" encoding="UTF-8" standalone="no"?>
<!-- Created with Inkscape (http://www.inkscape.org/) -->

<svg
   xmlns:dc="http://purl.org/dc/elements/1.1/"
   xmlns:cc="http://creativecommons.org/ns#"
   xmlns:rdf="http://www.w3.org/1999/02/22-rdf-syntax-ns#"
   xmlns:svg="http://www.w3.org/2000/svg"
   xmlns="http://www.w3.org/2000/svg"
   xmlns:sodipodi="http://sodipodi.sourceforge.net/DTD/sodipodi-0.dtd"
   xmlns:inkscape="http://www.inkscape.org/namespaces/inkscape"
   width="512"
   height="512"
   viewBox="0 0 135.46666 135.46667"
   version="1.1"
   id="svg411"
   inkscape:version="0.92.4 5da689c313, 2019-01-14"
   sodipodi:docname="yarnball-projectcard.svg">
  <defs
     id="defs405" />
  <sodipodi:namedview
     id="base"
     pagecolor="#ffffff"
     bordercolor="#666666"
     borderopacity="1.0"
     inkscape:pageopacity="0.0"
     inkscape:pageshadow="2"
     inkscape:zoom="0.7"
     inkscape:cx="137.25211"
     inkscape:cy="254.41064"
     inkscape:document-units="mm"
     inkscape:current-layer="layer1"
     showgrid="false"
     units="px"
     showguides="false"
     inkscape:window-width="1258"
     inkscape:window-height="770"
     inkscape:window-x="273"
     inkscape:window-y="316"
     inkscape:window-maximized="0" />
  <metadata
     id="metadata408">
    <rdf:RDF>
      <cc:Work
         rdf:about="">
        <dc:format>image/svg+xml</dc:format>
        <dc:type
           rdf:resource="http://purl.org/dc/dcmitype/StillImage" />
        <dc:title></dc:title>
      </cc:Work>
    </rdf:RDF>
  </metadata>
  <g
     inkscape:label="Layer 1"
     inkscape:groupmode="layer"
     id="layer1"
     transform="translate(0,-161.53332)">
    <rect
       style="display:inline;opacity:1;vector-effect:none;fill:#333f4f;fill-opacity:1;stroke:none;stroke-width:1.6409936px;stroke-linecap:butt;stroke-linejoin:miter;stroke-miterlimit:4;stroke-dasharray:none;stroke-dashoffset:0;stroke-opacity:1;marker:none"
       id="rect5092"
       width="136.9164"
       height="136.9417"
       x="-0.37797609"
       y="161.19221" />
    <text
       id="text1870"
       y="278.75409"
       x="40.3927"
       style="font-style:normal;font-variant:normal;font-weight:normal;font-stretch:normal;font-size:12.50056171px;line-height:1.25;font-family:Volkhov;-inkscape-font-specification:Volkhov;letter-spacing:0px;word-spacing:0px;display:inline;opacity:1;vector-effect:none;fill:#ffffff;fill-opacity:1;stroke:none;stroke-width:2.90740299px;stroke-linecap:butt;stroke-linejoin:miter;stroke-miterlimit:4;stroke-dasharray:none;stroke-dashoffset:0;stroke-opacity:1"
       xml:space="preserve"><tspan
         style="font-style:normal;font-variant:normal;font-weight:normal;font-stretch:normal;font-size:12.50056171px;font-family:Volkhov;-inkscape-font-specification:Volkhov;vector-effect:none;fill:#ffffff;fill-opacity:1;stroke:none;stroke-width:2.90740299px;stroke-linecap:butt;stroke-linejoin:miter;stroke-miterlimit:4;stroke-dasharray:none;stroke-dashoffset:0;stroke-opacity:1"
         y="278.75409"
         x="40.3927"
         id="tspan1868"
         sodipodi:role="line">Yarnball</tspan></text>
    <path
       sodipodi:nodetypes="ccsssccsssc"
       inkscape:connector-curvature="0"
       id="path4442"
       d="m 48.280482,232.22277 0.0346,-6.10244 c 0,0 -14.92391,11.23373 -11.954131,19.33081 2.969789,8.09712 21.051462,5.67712 40.313414,-8.45681 15.487457,-11.36431 15.597277,-21.16592 9.95004,-23.56135 -4.32009,-1.83245 -8.85372,-0.89694 -8.85372,-0.89694 -0.68934,1.43168 -1.27734,2.77706 -1.35954,4.57972 0,0 6.41109,-1.64624 8.58315,0.90932 2.69604,3.17216 -6.99826,13.19947 -16.854163,19.20205 -11.03539,6.72097 -24.15363,10.37086 -27.15917,7.05022 -2.749542,-3.03773 7.298219,-12.05458 7.298219,-12.05458 z"
       style="display:inline;fill:#ffffff;fill-opacity:1;fill-rule:evenodd;stroke:none;stroke-width:1.30472028px;stroke-linecap:butt;stroke-linejoin:miter;stroke-opacity:1" />
    <path
       sodipodi:nodetypes="cccccsccssc"
       inkscape:connector-curvature="0"
       id="path4444"
       d="m 51.385383,242.05154 4.509501,-1.46729 c 0,0 -0.41718,-2.23926 -0.561711,-6.30797 l -3.19741,-1.86498 3.26294,-6.81836 c 0.362439,-5.0482 1.521481,-10.9671 3.44353,-15.47838 5.06575,-11.89028 9.367999,2.1191 9.367999,2.1191 1.004922,-0.70843 2.602453,-2.3781 3.412613,-4.05821 0,0 -4.408473,-14.22901 -14.258362,-4.60621 -3.374639,3.29682 -5.557639,11.33236 -6.24495,18.87082 -0.91253,10.00872 0.265779,19.61148 0.265779,19.61148 z"
       style="color:#000000;clip-rule:nonzero;display:inline;overflow:visible;visibility:visible;opacity:1;isolation:auto;mix-blend-mode:normal;color-interpolation:sRGB;color-interpolation-filters:linearRGB;solid-color:#000000;solid-opacity:1;fill:#ffffff;fill-opacity:1;fill-rule:evenodd;stroke:none;stroke-width:1.30472028px;stroke-linecap:butt;stroke-linejoin:miter;stroke-miterlimit:4;stroke-dasharray:none;stroke-dashoffset:0;stroke-opacity:1;color-rendering:auto;image-rendering:auto;shape-rendering:auto;text-rendering:auto;enable-background:accumulate" />
    <path
       sodipodi:nodetypes="ccsccsc"
       inkscape:connector-curvature="0"
       id="path4446"
       d="m 76.568505,245.01964 -1.047,4.56253 c 0,0 10.07632,2.66583 13.48453,-2.76035 3.809137,-6.06447 -3.90892,-13.83362 -3.90892,-13.83362 l -3.45205,3.19824 c 0,0 4.88521,5.34057 3.50279,7.86867 -1.31713,2.40875 -8.57935,0.96453 -8.57935,0.96453 z"
       style="color:#000000;clip-rule:nonzero;display:inline;overflow:visible;visibility:visible;opacity:1;isolation:auto;mix-blend-mode:normal;color-interpolation:sRGB;color-interpolation-filters:linearRGB;solid-color:#000000;solid-opacity:1;fill:#ffffff;fill-opacity:1;fill-rule:evenodd;stroke:none;stroke-width:0.65236014;stroke-linecap:butt;stroke-linejoin:miter;stroke-miterlimit:4;stroke-dasharray:none;stroke-dashoffset:0;stroke-opacity:1;color-rendering:auto;image-rendering:auto;shape-rendering:auto;text-rendering:auto;enable-background:accumulate" />
    <path
       sodipodi:nodetypes="ccsccsc"
       inkscape:connector-curvature="0"
       id="path4448"
       d="m 74.715555,241.46607 -5.254232,3.25534 c 0,0 -1.962568,11.36673 -6.320301,12.35504 -2.666709,0.60476 -5.178089,-7.08923 -5.178089,-7.08923 l -4.467349,1.42887 c 0,0 3.40043,10.9817 10.076968,10.33077 9.112363,-0.8884 11.143003,-20.28079 11.143003,-20.28079 z"
       style="color:#000000;clip-rule:nonzero;display:inline;overflow:visible;visibility:visible;opacity:1;isolation:auto;mix-blend-mode:normal;color-interpolation:sRGB;color-interpolation-filters:linearRGB;solid-color:#000000;solid-opacity:1;fill:#ffffff;fill-opacity:1;fill-rule:evenodd;stroke:none;stroke-width:0.65236014;stroke-linecap:butt;stroke-linejoin:miter;stroke-miterlimit:4;stroke-dasharray:none;stroke-dashoffset:0;stroke-opacity:1;color-rendering:auto;image-rendering:auto;shape-rendering:auto;text-rendering:auto;enable-background:accumulate" />
    <path
       sodipodi:nodetypes="ccsccsc"
       inkscape:connector-curvature="0"
       id="path4450"
       d="m 50.500413,212.7074 -1.015299,4.59428 c 0,0 -7.7671,-1.54836 -8.73167,1.19301 -0.911231,2.58987 3.604349,7.66558 3.604349,7.66558 l -3.401261,3.19821 c 0,0 -7.561259,-7.95629 -3.908938,-13.80823 3.15109,-5.04889 13.452819,-2.84285 13.452819,-2.84285 z"
       style="color:#000000;clip-rule:nonzero;display:inline;overflow:visible;visibility:visible;opacity:1;isolation:auto;mix-blend-mode:normal;color-interpolation:sRGB;color-interpolation-filters:linearRGB;solid-color:#000000;solid-opacity:1;fill:#ffffff;fill-opacity:1;fill-rule:evenodd;stroke:none;stroke-width:1.30472028px;stroke-linecap:butt;stroke-linejoin:miter;stroke-miterlimit:4;stroke-dasharray:none;stroke-dashoffset:0;stroke-opacity:1;color-rendering:auto;image-rendering:auto;shape-rendering:auto;text-rendering:auto;enable-background:accumulate" />
    <path
       sodipodi:nodetypes="zzssssssssccssssccssssccsszz"
       inkscape:connector-curvature="0"
       id="path4436-2"
       d="m 93.580632,177.99264 c -4.35776,-2.51596 -6.098877,5.97838 -11.232237,14.86952 -5.1333,8.89121 -10.02365,18.72842 -13.384772,20.2922 -3.789511,1.76312 -6.552909,2.68358 -9.003631,6.92832 -2.218219,3.84208 -6.85342,11.88392 -6.477368,12.10109 l 1.05854,0.61108 c 0.599498,0.34616 2.897629,-3.87432 4.536678,-6.48033 2.302291,-3.66059 3.200911,-5.42834 4.316352,-5.81815 0.164208,-0.0572 0.750969,0.28996 0.781198,0.4512 0.213032,1.13621 -0.97549,2.75716 -3.136159,6.49951 -1.65418,2.86519 -3.696941,6.34161 -3.544999,7.05289 l 1.266129,0.731 c 0.66897,-0.19528 2.032321,-2.99971 4.165561,-6.69458 2.160669,-3.7424 3.150269,-5.47825 4.257871,-5.85194 0.163218,-0.0553 0.841808,0.35752 0.890719,0.51428 0.38612,1.23606 -0.828151,2.84221 -2.98881,6.58462 -2.140352,3.70714 -3.717602,6.44728 -3.542691,7.05422 l 1.18147,0.68213 c 0.53829,-0.0494 2.370201,-3.06801 4.38944,-6.56538 1.842101,-3.1907 3.077321,-5.52037 4.180792,-5.89643 0.14251,-0.0493 0.80892,0.37133 0.83243,0.46404 0.30624,1.20651 -0.72154,2.92022 -2.882201,6.66263 -1.26269,2.18699 -2.938471,5.07788 -2.938471,5.07788 l 4.058211,-2.44717 c 0,0 2.922581,-4.84346 3.872881,-6.4894 2.46527,-4.27004 0.95483,-7.42795 0.90607,-11.60342 -0.0394,-3.51602 5.90844,-12.61215 11.10305,-21.60953 5.194647,-8.99737 11.691723,-14.60426 7.333947,-17.12023 z"
       style="color:#000000;clip-rule:nonzero;display:inline;overflow:visible;visibility:visible;opacity:1;isolation:auto;mix-blend-mode:normal;color-interpolation:sRGB;color-interpolation-filters:linearRGB;solid-color:#000000;solid-opacity:1;fill:#ffffff;fill-opacity:1;fill-rule:evenodd;stroke:none;stroke-width:1.30472028px;stroke-linecap:butt;stroke-linejoin:miter;stroke-miterlimit:4;stroke-dasharray:none;stroke-dashoffset:0;stroke-opacity:1;color-rendering:auto;image-rendering:auto;shape-rendering:auto;text-rendering:auto;enable-background:accumulate" />
    <path
       style="color:#000000;clip-rule:nonzero;display:inline;overflow:visible;visibility:visible;opacity:1;isolation:auto;mix-blend-mode:normal;color-interpolation:sRGB;color-interpolation-filters:linearRGB;solid-color:#000000;solid-opacity:1;fill:#ffffff;fill-opacity:1;fill-rule:evenodd;stroke:none;stroke-width:1.30472028px;stroke-linecap:butt;stroke-linejoin:miter;stroke-miterlimit:4;stroke-dasharray:none;stroke-dashoffset:0;stroke-opacity:1;color-rendering:auto;image-rendering:auto;shape-rendering:auto;text-rendering:auto;enable-background:accumulate"
       d="m 93.580632,177.99264 c -4.35776,-2.51596 -6.098877,5.97838 -11.232237,14.86952 -5.1333,8.89121 -10.02365,18.72842 -13.384772,20.2922 -3.789511,1.76312 -6.552909,2.68358 -9.003631,6.92832 -2.218219,3.84208 -6.85342,11.88392 -6.477368,12.10109 l 1.05854,0.61108 c 0.599498,0.34616 2.897629,-3.87432 4.536678,-6.48033 2.302291,-3.66059 3.200911,-5.42834 4.316352,-5.81815 0.164208,-0.0572 0.750969,0.28996 0.781198,0.4512 0.213032,1.13621 -0.97549,2.75716 -3.136159,6.49951 -1.65418,2.86519 -3.696941,6.34161 -3.544999,7.05289 l 1.266129,0.731 c 0.66897,-0.19528 2.032321,-2.99971 4.165561,-6.69458 2.160669,-3.7424 3.150269,-5.47825 4.257871,-5.85194 0.163218,-0.0553 0.841808,0.35752 0.890719,0.51428 0.38612,1.23606 -0.828151,2.84221 -2.98881,6.58462 -2.140352,3.70714 -3.717602,6.44728 -3.542691,7.05422 l 1.18147,0.68213 c 0.53829,-0.0494 2.370201,-3.06801 4.38944,-6.56538 1.842101,-3.1907 3.077321,-5.52037 4.180792,-5.89643 0.14251,-0.0493 0.80892,0.37133 0.83243,0.46404 0.30624,1.20651 -0.72154,2.92022 -2.882201,6.66263 -1.26269,2.18699 -2.938471,5.07788 -2.938471,5.07788 l 4.058211,-2.44717 c 0,0 2.922581,-4.84346 3.872881,-6.4894 2.46527,-4.27004 0.95483,-7.42795 0.90607,-11.60342 -0.0394,-3.51602 5.90844,-12.61215 11.10305,-21.60953 5.194647,-8.99737 11.691723,-14.60426 7.333947,-17.12023 z"
       id="path824"
       inkscape:connector-curvature="0"
       sodipodi:nodetypes="zzssssssssccssssccssssccsszz" />
  </g>
</svg>
