<svg width="512" height="512" viewBox="0 0 135.5 135.5" xmlns="http://www.w3.org/2000/svg"><path d="M94.2 26.1C86.1 40 78.6 55.5 73.4 58c-6 2.8-10.3 4.2-14 10.9a139 139 0 00-10.2 18.8l1.5 1c1 .5 4.7-6.2 7.2-10.1 3.6-5.8 5-8.4 6.8-9l1.2.6c.3 1.8-1.5 4.3-5 10.1-2.5 4.6-5.8 10-5.5 11l2 1.2c1-.3 3.2-4.7 6.5-10.5 3.4-5.7 5-8.6 6.7-9 .2-.2 1.3.4 1.4.8.6 1.8-1.4 4.3-4.7 10.3a42 42 0 00-5.6 11l1.9 1c1 0 3.7-4.7 6.9-10.3 3-5 4.6-8.6 6.5-9.2l1.3.7c.4 2-1.1 4.7-4.6 10.5l-4.5 7.8 6.3-3.7 6.2-10.2c3.8-6.7 1.4-11.5 1.3-18.1 0-5.5 9.3-19.8 17.3-33.8 8-14.1 19.7-22.4 11.6-26.8s-10.6 11-17.7 23.2zm-29 11.7c-2.8 0-6 1.4-10 5.2-5.2 5.2-8.7 17.8-9.8 29.7-1.4 15.6.5 30.5.5 30.5v-.2l7-2.2s-.6-3.6-.9-10l-5-2.6 5.2-10.7a84 84 0 015.3-24.2c8-18.8 14.7 3.3 14.7 3.3 1.5-1.1 4-3.8 5.3-6.3 0 0-3.9-12.5-12.3-12.5zM36.7 56.5c-4.9 0-10.7 1-13.3 5.1-5.7 9 6.2 21.6 6.2 21.6l5.4-5s-7.2-7.8-5.7-11.9c1.4-4.4 13.6-1.9 13.6-1.9l1.6-7.2s-3.6-.7-7.8-.7zm54.8 0c-2.7 0-4.5.4-4.5.4-1 2.2-1.9 4.4-2 7.2 0 0 10-2.7 13.4 1.4 4.3 5-11 20.7-26.4 30-17.2 10.5-37.7 16.3-42.4 11C25.2 101.8 41 87.7 41 87.7v-9.5s-23.4 17.5-18.7 30.2c4.7 12.6 33 8.9 63.2-13.2 24.2-17.8 24.3-33.1 15.6-36.9-3.5-1.4-7-1.7-9.6-1.7zm7 32.5l-5.4 5s7.8 8.3 5.5 12.2c-2 3.7-13.3 1.5-13.3 1.5l-1.6 7s15.7 4.3 21-4.1c6-9.4-6.1-21.6-6.1-21.6zm-16.2 13.3l-8.1 5s-3.1 17.8-10 19.2c-4 1-8-11-8-11l-7 2.2S54.5 135 64.8 134c14.6-1.5 17.7-31.6 17.7-31.6z" fill="#757575"/></svg>
