<svg xmlns="http://www.w3.org/2000/svg" viewBox="0 0 135.5 135.5" height="512" width="512"><path style="marker:none" fill="#333f4f" d="M-.4-.3h136.9v136.9H-.4z"/><g style="line-height:1.25;-inkscape-font-specification:Volkhov" aria-label="Yarnball" font-weight="400" font-size="12.5" font-family="Volkhov" letter-spacing="0" word-spacing="0" fill="#fff" stroke-width="2.9"><path style="-inkscape-font-specification:Volkhov" d="M40.3 109v-.5h3.6v.5l-.8.2 2 3 1.9-2.9-1-.3v-.5h3.1v.5l-1.1.3-2.5 3.9v3.2l1.2.2v.6h-3.8v-.6l1.1-.2v-3.2l-2.7-3.9zM48.4 115.7q0-2.2 3.9-2.2v-.4q0-1.1-.4-1.4-.3-.3-.9-.3l-1.5 1.2q-.3-.1-.5-.5-.2-.3-.2-.7l1.2-.5 1.2-.1q2.6 0 2.6 2.1v3.5h1v.4l-.7.4-.7.2q-.7 0-1-.6-1 .6-2 .6-.8 0-1.4-.4-.6-.5-.6-1.3zm1.6 0q0 .4.3.6.3.2.8.2.7 0 1.2-.4v-2q-1.2 0-1.7.5-.6.4-.6 1zM55.3 117.2v-.5l1.1-.3V112h-1v-.6l2-.4h.5v.7q1-1 2.3-1l.1.6v.8l-1.7-.1-.7.4v4l1.3.3v.5zM61 117.2v-.5l1-.3V112h-1v-.6l2-.4h.5v.6q1-.8 2-.8t1.6.5q.6.6.6 1.4v3.7l1 .3v.5h-3.3v-.5l.8-.3V113q0-1.3-1.1-1.3-.8 0-1.6.6v4.1l.9.3v.5zM68.7 108.2v-.5l2-.5h.6v4.2q.8-.6 1.8-.6 1.1 0 1.9.8.8.8.8 2.3 0 1.6-1 2.5-1.1 1-2.7 1-1.2 0-2.3-.6v-8.6zm2.6 8.4l.7.1q1 0 1.6-.7.6-.7.6-2 0-1.2-.5-1.7-.4-.6-1.2-.6-.5 0-1.2.3zM76.7 115.7q0-2.2 3.9-2.2v-.4q0-1.1-.3-1.4-.3-.3-1-.3l-1.4 1.2q-.3-.1-.6-.5-.2-.3-.2-.7l1.2-.5 1.2-.1q2.6 0 2.6 2.1v3.5h1v.4q-.3.3-.7.4-.3.2-.7.2-.7 0-1-.6-.9.6-2 .6-.8 0-1.4-.4-.6-.5-.6-1.3zm1.6 0q0 .4.3.6.3.2.8.2.7 0 1.2-.4v-2q-1.1 0-1.7.5-.6.4-.6 1zM83.5 117.2v-.5l1-.3v-8.2h-1v-.5l2-.5h.5v9.2l1.1.3v.5zM87.6 117.2v-.5l1-.3v-8.2h-1v-.5l2-.5h.6v9.2l1 .3v.5z"/></g><path d="M48.3 70.7v-6.1s-15 11.2-12 19.3c3 8.1 21.1 5.7 40.4-8.4 15.5-11.4 15.6-21.2 10-23.6-4.4-1.8-9-.9-9-.9-.6 1.4-1.2 2.8-1.3 4.6 0 0 6.4-1.7 8.6.9 2.7 3.2-7 13.2-16.9 19.2-11 6.7-24.1 10.4-27.1 7-2.8-3 7.3-12 7.3-12z" fill="#fff" fill-rule="evenodd"/><path style="isolation:auto;mix-blend-mode:normal" d="M51.4 80.5l4.5-1.4s-.4-2.3-.6-6.4L52.1 71l3.3-6.8c.4-5 1.5-11 3.4-15.5 5.1-12 9.4 2.1 9.4 2.1 1-.7 2.6-2.4 3.4-4 0 0-4.4-14.3-14.2-4.7-3.4 3.3-5.6 11.4-6.3 19-.9 10 .3 19.5.3 19.5zM76.6 83.5l-1 4.5s10 2.7 13.4-2.7c3.8-6-3.9-13.8-3.9-13.8l-3.5 3.2s5 5.3 3.5 7.8c-1.3 2.4-8.5 1-8.5 1zM74.7 80l-5.2 3.2s-2 11.4-6.4 12.3c-2.6.6-5.1-7-5.1-7l-4.5 1.4s3.4 11 10 10.3C72.8 99.3 74.8 80 74.8 80zM50.5 51.2l-1 4.6s-7.8-1.6-8.7 1.2c-1 2.6 3.6 7.6 3.6 7.6L41 67.8s-7.6-8-4-13.8c3.2-5 13.5-2.8 13.5-2.8z" color="#000" overflow="visible" fill="#fff" fill-rule="evenodd"/><path style="isolation:auto;mix-blend-mode:normal" d="M93.6 16.5c-4.4-2.6-6.1 6-11.3 14.8-5 9-10 18.8-13.3 20.3-3.8 1.8-6.6 2.7-9 7-2.3 3.8-6.9 11.8-6.5 12l1 .7c.6.3 3-4 4.6-6.5 2.3-3.7 3.2-5.4 4.3-5.8l.8.4c.2 1.2-1 2.8-3.2 6.5-1.6 2.9-3.7 6.4-3.5 7l1.3.8c.6-.2 2-3 4.1-6.7 2.2-3.7 3.2-5.5 4.3-5.8.1-.1.8.3.9.5.4 1.2-.9 2.8-3 6.6a26.8 26.8 0 0 0-3.6 7l1.2.7c.6 0 2.4-3 4.4-6.6 1.9-3.2 3-5.5 4.2-5.9l.8.5c.3 1.2-.7 3-2.9 6.7l-2.9 5 4-2.4 4-6.5c2.4-4.3.9-7.4.8-11.6 0-3.5 6-12.6 11.1-21.6 5.2-9 11.7-14.6 7.4-17.1z" color="#000" overflow="visible" fill="#fff" fill-rule="evenodd"/><path d="M93.6 16.5c-4.4-2.6-6.1 6-11.3 14.8-5 9-10 18.8-13.3 20.3-3.8 1.8-6.6 2.7-9 7-2.3 3.8-6.9 11.8-6.5 12l1 .7c.6.3 3-4 4.6-6.5 2.3-3.7 3.2-5.4 4.3-5.8l.8.4c.2 1.2-1 2.8-3.2 6.5-1.6 2.9-3.7 6.4-3.5 7l1.3.8c.6-.2 2-3 4.1-6.7 2.2-3.7 3.2-5.5 4.3-5.8.1-.1.8.3.9.5.4 1.2-.9 2.8-3 6.6a26.8 26.8 0 0 0-3.6 7l1.2.7c.6 0 2.4-3 4.4-6.6 1.9-3.2 3-5.5 4.2-5.9l.8.5c.3 1.2-.7 3-2.9 6.7l-2.9 5 4-2.4 4-6.5c2.4-4.3.9-7.4.8-11.6 0-3.5 6-12.6 11.1-21.6 5.2-9 11.7-14.6 7.4-17.1z" style="isolation:auto;mix-blend-mode:normal" color="#000" overflow="visible" fill="#fff" fill-rule="evenodd"/></svg>